<?xml version="1.0" encoding="UTF-8" standalone="no"?>
<!-- Created with Inkscape (http://www.inkscape.org/) -->

<svg
   width="12.669855mm"
   height="5.2939496mm"
   viewBox="0 0 12.669855 5.2939497"
   version="1.1"
   id="svg1"
   xmlns="http://www.w3.org/2000/svg"
   xmlns:svg="http://www.w3.org/2000/svg">
  <defs
     id="defs1" />
  <g
     id="text1"
     style="font-weight:900;font-size:3.88056px;line-height:0.9;font-family:'HarmonyOS Sans';-inkscape-font-specification:'HarmonyOS Sans Heavy';text-align:center;letter-spacing:-0.132292px;word-spacing:0px;text-anchor:middle;stroke-width:0.264583"
     aria-label="Hold both&#10;for Adjust"
     transform="matrix(0.71612767,0,0,0.71612767,4.810688,0.72388985)">
    <path
       d="m -5.8348104,-0.89830282 v 1.0749151 h 1.1719291 v -1.0749151 h 0.6635758 V 1.942267 H -4.6628813 V 0.76257683 H -5.8348104 V 1.942267 h -0.6635757 v -2.84056982 z m 2.1029087,1.83550484 q 0,-0.32208647 0.1435807,-0.55880062 0.1474613,-0.24059472 0.388056,-0.3686532 0.2444753,-0.12805847 0.5277561,-0.12805847 0.2794003,0 0.5199951,0.12805847 0.2444752,0.12805848 0.3880559,0.3686532 0.1435808,0.23671415 0.1435808,0.55880062 0,0.31820588 -0.1435808,0.55880068 -0.1435807,0.2405947 -0.3880559,0.3686531 -0.2405948,0.1280585 -0.5199951,0.1280585 -0.2832808,0 -0.5277561,-0.1280585 Q -3.4408597,1.7365974 -3.588321,1.4960027 -3.7319017,1.2554079 -3.7319017,0.93720202 Z m 0.651934,0 q 0,0.15522238 0.050447,0.27163918 0.054328,0.1164168 0.1435807,0.1785058 0.093134,0.062089 0.2095503,0.062089 0.1125362,0 0.2017891,-0.062089 0.089253,-0.062089 0.1435807,-0.1785058 0.054328,-0.1164168 0.054328,-0.27163918 0,-0.15522239 -0.054328,-0.27163919 -0.054328,-0.12029736 -0.1435807,-0.18238632 -0.089253,-0.062089 -0.2017891,-0.062089 -0.1164168,0 -0.2095503,0.062089 -0.089253,0.062089 -0.1435807,0.18238632 -0.050447,0.1164168 -0.050447,0.27163919 z M -0.77138895,-1.0108391 V 1.942267 H -1.4039202 v -2.9531061 z m 1.7187334,1.16804858 V -1.0108391 H 1.5798757 V 1.942267 H 1.0171945 Q 1.0016723,1.7327168 0.99003061,1.6589862 0.88137493,1.8258502 0.71839142,1.907342 0.5554079,1.9927143 0.35749934,1.9927143 q -0.25223639,0 -0.46178663,-0.1241779 -0.20566967,-0.1241779 -0.32984759,-0.3647726 -0.12029736,-0.2405947 -0.12029736,-0.56656178 0,-0.32984759 0.12029736,-0.56656174 0.12417792,-0.24059472 0.33372815,-0.36477264 0.20955024,-0.12417791 0.45790607,-0.12417791 0.18238632,0 0.3298476,0.06985007 0.15134183,0.06596952 0.25999751,0.20566968 z M 0.52048286,1.4610776 q 0.1164168,0 0.2134308,-0.058208 0.097014,-0.058208 0.15522239,-0.1746252 0.0582084,-0.1202973 0.0582084,-0.29104198 0,-0.17074463 -0.0582084,-0.27940031 -0.0582084,-0.11253624 -0.15522239,-0.16686408 -0.0931334,-0.0543278 -0.2134308,-0.0543278 -0.12417792,0 -0.22119192,0.062089 -0.097014,0.0582084 -0.15134183,0.17074464 -0.05044728,0.10865568 -0.05044728,0.26775863 0,0.1552224 0.05432784,0.2755198 0.0543278,0.1202973 0.14746127,0.1862669 0.097014,0.062089 0.22119192,0.062088 z M 4.0472069,-0.11831027 q 0.2483559,0 0.4540255,0.12417791 0.2095503,0.12417792 0.3298476,0.36477264 0.1241779,0.23671415 0.1241779,0.56656174 0,0.32596708 -0.1241779,0.56656178 -0.1202973,0.2405947 -0.3298476,0.3647726 -0.2056696,0.1241779 -0.4540255,0.1241779 -0.2017891,0 -0.3647726,-0.081492 Q 3.5194508,1.8297308 3.4107951,1.6589862 3.3875117,1.8374919 3.3836312,1.942267 H 2.82095 V -1.0108391 H 3.4534813 V 0.15720948 Q 3.5621369,0.01750932 3.7095982,-0.0484602 3.8609401,-0.11831027 4.0472069,-0.11831027 Z M 3.8842234,1.4610776 q 0.1202974,0 0.2134308,-0.06597 0.097014,-0.06597 0.1513418,-0.1823863 0.054328,-0.1202974 0.054328,-0.27551978 0,-0.15522239 -0.054328,-0.26775863 -0.050447,-0.11253624 -0.1474612,-0.17074464 -0.093133,-0.062089 -0.2173114,-0.062089 -0.1202973,0 -0.2173113,0.0543278 -0.097014,0.0543278 -0.1552224,0.16686408 -0.058208,0.10865568 -0.058208,0.27940031 0,0.17074466 0.058208,0.29104196 0.058208,0.1164168 0.1552224,0.1746252 0.1008945,0.058208 0.2173113,0.058209 z M 5.0596778,0.93720202 q 0,-0.32208647 0.1435807,-0.55880062 0.1474612,-0.24059472 0.388056,-0.3686532 0.2444752,-0.12805847 0.5277561,-0.12805847 0.2794003,0 0.519995,0.12805847 0.2444753,0.12805848 0.388056,0.3686532 0.1435808,0.23671415 0.1435808,0.55880062 0,0.31820588 -0.1435808,0.55880068 -0.1435807,0.2405947 -0.388056,0.3686531 -0.2405947,0.1280585 -0.519995,0.1280585 -0.2832809,0 -0.5277561,-0.1280585 Q 5.3507197,1.7365974 5.2032585,1.4960027 5.0596778,1.2554079 5.0596778,0.93720202 Z m 0.651934,0 q 0,0.15522238 0.050447,0.27163918 0.054328,0.1164168 0.1435807,0.1785058 0.093133,0.062089 0.2095503,0.062089 0.1125362,0 0.2017891,-0.062089 0.089253,-0.062089 0.1435807,-0.1785058 0.054328,-0.1164168 0.054328,-0.27163918 0,-0.15522239 -0.054328,-0.27163919 -0.054328,-0.12029736 -0.1435807,-0.18238632 -0.089253,-0.062089 -0.2017891,-0.062089 -0.1164168,0 -0.2095503,0.062089 -0.089253,0.062089 -0.1435807,0.18238632 -0.050447,0.1164168 -0.050447,0.27163919 z M 8.6721272,1.3601831 8.8933191,1.7986863 q -0.2173113,0.194028 -0.6131284,0.194028 -0.3570115,0 -0.5704423,-0.1823863 Q 7.5001981,1.6240611 7.5001981,1.1545134 V 0.46765427 H 7.1315449 v -0.53163671 h 0.3686532 v -0.64417294 h 0.6325313 v 0.64417294 H 8.7458579 V 0.46765427 H 8.1327294 V 1.0419771 q 0,0.194028 0.058208,0.3026837 0.058208,0.1047751 0.2211919,0.1047751 0.06985,0 0.131939,-0.019403 0.062089,-0.019403 0.1280589,-0.06985 z m 1.5247068,-1.47849337 q 0.337608,0 0.531636,0.22119191 0.194028,0.22119192 0.194028,0.65193407 V 1.942267 H 10.289967 V 0.9682465 q 0,-0.25223639 -0.07373,-0.39193655 -0.07373,-0.13970016 -0.2522368,-0.13970016 -0.1164168,0 -0.1979086,0.0659695 Q 9.6845999,0.56854883 9.6380331,0.69272675 9.595347,0.81690467 9.595347,0.99541042 V 1.942267 H 8.9628157 V -1.0108391 H 9.595347 V 0.1843734 Q 9.6962415,0.029151 9.8475834,-0.04457964 9.9989252,-0.11831027 10.196834,-0.11831027 Z"
       id="path4" />
    <path
       d="m -5.4680998,2.9706153 q -0.1358196,0 -0.2056697,0.1047751 -0.06985,0.1047752 -0.06985,0.3298476 v 0.089253 l -0.077611,-0.06597 h 0.6053673 V 3.9562776 H -5.7436195 V 5.4347709 H -6.3761508 V 3.9562776 H -6.7176401 V 3.4285214 h 0.3414893 v -0.046567 q 0,-0.4773089 0.2328336,-0.714023 0.2367141,-0.2405948 0.617009,-0.2405948 0.1901475,0 0.3376087,0.058208 0.1474613,0.058208 0.2289531,0.1513419 L -5.2003411,3.079271 Q -5.3206385,2.9706153 -5.4680998,2.9706153 Z m 0.201436,1.4590906 q 0,-0.3220865 0.1435807,-0.5588007 0.1474613,-0.2405947 0.388056,-0.3686532 0.2444752,-0.1280584 0.5277561,-0.1280584 0.2794003,0 0.5199951,0.1280584 0.2444752,0.1280585 0.3880559,0.3686532 0.1435808,0.2367142 0.1435808,0.5588007 0,0.3182059 -0.1435808,0.5588006 -0.1435807,0.2405947 -0.3880559,0.3686532 -0.2405948,0.1280585 -0.5199951,0.1280585 -0.2832809,0 -0.5277561,-0.1280585 Q -4.9756218,5.2291012 -5.1230831,4.9885065 -5.2666638,4.7479118 -5.2666638,4.4297059 Z m 0.651934,0 q 0,0.1552224 0.050447,0.2716392 0.054328,0.1164168 0.1435807,0.1785057 0.093133,0.062089 0.2095503,0.062089 0.1125362,0 0.2017891,-0.062089 0.089253,-0.062089 0.1435807,-0.1785057 0.054328,-0.1164168 0.054328,-0.2716392 0,-0.1552224 -0.054328,-0.2716392 -0.054328,-0.1202974 -0.1435807,-0.1823863 -0.089253,-0.062089 -0.2017891,-0.062089 -0.1164168,0 -0.2095503,0.062089 -0.089253,0.062089 -0.1435807,0.1823863 -0.050447,0.1164168 -0.050447,0.2716392 z m 2.8479763,-1.0555123 q 0.124178,0 0.2328336,0.038806 0.1125363,0.038806 0.1668641,0.1008945 l -0.2444753,0.4811894 q -0.1125362,-0.081492 -0.2483558,-0.081492 -0.1358196,0 -0.2367142,0.081492 -0.1008945,0.077611 -0.1552223,0.221192 -0.054328,0.1397001 -0.054328,0.3298476 V 5.4347709 H -2.9386826 V 3.4285214 h 0.5626812 q 0.015522,0.2134308 0.034925,0.3104448 0.089253,-0.1785058 0.2367141,-0.2716392 0.1474613,-0.093133 0.3376088,-0.093133 z M 0.37460554,2.594201 H 0.96057009 L 2.1130964,5.4347709 H 1.4145956 L 1.1972842,4.860448 H 0.12236915 L -0.08718109,5.4347709 H -0.74687627 Z M 0.32803882,4.3055279 H 0.98773401 L 0.6501253,3.4207603 Z M 3.5679554,3.6497133 V 2.4816648 H 4.2004867 V 5.4347709 H 3.6378055 Q 3.6222833,5.2252206 3.6106416,5.15149 3.5019859,5.3183541 3.3390024,5.3998458 q -0.1629835,0.085372 -0.3608921,0.085372 -0.2522364,0 -0.4617866,-0.124178 Q 2.310654,5.2368623 2.1864761,4.9962676 2.0661788,4.7556729 2.0661788,4.4297059 q 0,-0.3298476 0.1202973,-0.5665618 0.1241779,-0.2405947 0.3337282,-0.3647726 0.2095502,-0.1241779 0.457906,-0.1241779 0.1823864,0 0.3298476,0.06985 0.1513419,0.06597 0.2599975,0.2056697 z M 3.1410939,4.9535815 q 0.1164167,0 0.2134307,-0.058208 0.097014,-0.058208 0.1552224,-0.1746252 0.058208,-0.1202974 0.058208,-0.291042 0,-0.1707447 -0.058208,-0.2794004 -0.058208,-0.1125362 -0.1552224,-0.166864 -0.093133,-0.054328 -0.2134307,-0.054328 -0.124178,0 -0.221192,0.062089 -0.097014,0.058208 -0.1513418,0.1707446 -0.050447,0.1086557 -0.050447,0.2677587 0,0.1552224 0.054328,0.2755197 0.054328,0.1202974 0.1474612,0.1862669 0.097014,0.062089 0.2211916,0.062089 z M 4.8365452,3.2150906 q -0.1474613,0 -0.256117,-0.1086557 -0.1047751,-0.1125362 -0.1047751,-0.263878 0,-0.1552224 0.1047751,-0.2638781 0.1047752,-0.1125363 0.256117,-0.1125363 0.1513418,0 0.2599975,0.1125363 0.1125362,0.1086557 0.1125362,0.2638781 0,0.1513418 -0.1086556,0.263878 Q 4.9917676,3.2150906 4.8365452,3.2150906 Z M 4.3010279,6.3816275 q -0.1823863,0 -0.3531309,-0.062089 Q 3.7771523,6.2613301 3.6684967,6.1410328 l 0.3376087,-0.422981 q 0.097014,0.1241779 0.2367141,0.1241779 0.1513419,0 0.2173114,-0.1164168 0.065969,-0.1164168 0.065969,-0.353131 V 3.4285214 h 0.6325313 v 2.0062495 q 0,0.3104448 -0.1202974,0.5238756 Q 4.9219175,6.1759578 4.7278895,6.2768524 4.5338615,6.3816275 4.3010279,6.3816275 Z m 2.4676812,-2.01013 V 3.4285214 H 7.4012404 V 5.4347709 H 6.8424397 q -0.00388,-0.015522 -0.00388,-0.034925 0,-0.015522 -0.00388,-0.031044 -0.011642,-0.1629836 -0.027164,-0.2444753 -0.1008946,0.1823863 -0.2599975,0.2716392 -0.159103,0.089253 -0.3686532,0.089253 -0.3453699,0 -0.5393979,-0.221192 Q 5.4454382,5.0428343 5.4454382,4.6120922 V 3.4285214 h 0.6325312 v 0.97014 q 0,0.2405947 0.06985,0.388056 0.06985,0.1435807 0.2483558,0.1435807 0.1202974,0 0.2017891,-0.065969 0.085372,-0.06597 0.1280585,-0.1901475 0.042686,-0.1241779 0.042686,-0.3026841 z m 2.514249,0.457906 q 0,0.2056697 -0.1125363,0.3570115 Q 9.0578856,5.3338763 8.859977,5.407607 8.6659491,5.485218 8.4175932,5.485218 q -0.325967,0 -0.5665617,-0.1397002 -0.2405947,-0.1397 -0.3298476,-0.3841752 l 0.457906,-0.2677587 q 0.050447,0.1358196 0.1707447,0.2134308 0.1202973,0.073731 0.2716392,0.073731 0.097014,0 0.1552224,-0.031045 0.058208,-0.034925 0.058208,-0.097014 0,-0.054328 -0.046567,-0.089253 Q 8.5456517,4.7246284 8.4758016,4.7013451 8.4098321,4.6741811 8.2778931,4.6353755 8.0761039,4.5771671 7.9402843,4.5189587 7.8083453,4.4607503 7.7074508,4.3482141 7.6104368,4.2317973 7.6104368,4.049411 q 0,-0.2095502 0.1164168,-0.3608921 0.1164167,-0.1552224 0.3104447,-0.2328336 0.1979086,-0.081492 0.4229811,-0.081492 0.3182059,0 0.5355172,0.1397001 0.2173114,0.1358196 0.2755198,0.353131 L 8.8134103,4.1231416 Q 8.7590825,4.0067248 8.6737102,3.9446359 q -0.085372,-0.06597 -0.2173114,-0.06597 -0.093133,0 -0.1474613,0.038806 -0.050447,0.034925 -0.050447,0.093133 0,0.050447 0.042686,0.089253 0.042686,0.034925 0.1086557,0.058208 0.06985,0.023283 0.1901474,0.058208 0.2056697,0.054328 0.3414893,0.1164168 0.1397002,0.058208 0.2405947,0.1823863 0.1008946,0.1202973 0.1008946,0.3143253 z m 1.4703829,0.023283 0.221192,0.4385033 q -0.217311,0.194028 -0.613129,0.194028 -0.357011,0 -0.5704419,-0.1823864 Q 9.5814119,5.116565 9.5814119,4.6470172 V 3.9601581 H 9.2127587 V 3.4285214 H 9.5814119 V 2.7843485 h 0.6325311 v 0.6441729 h 0.613129 V 3.9601581 H 10.213943 V 4.534481 q 0,0.194028 0.05821,0.3026837 0.05821,0.1047751 0.221191,0.1047751 0.06985,0 0.131939,-0.019403 0.06209,-0.019403 0.128059,-0.06985 z"
       id="path5" />
  </g>
</svg>
