<?xml version="1.0" encoding="UTF-8" standalone="no"?>
<!-- Created with Inkscape (http://www.inkscape.org/) -->

<svg
   width="12.899278mm"
   height="5.2939496mm"
   viewBox="0 0 12.899278 5.2939497"
   version="1.1"
   id="svg1"
   xmlns="http://www.w3.org/2000/svg"
   xmlns:svg="http://www.w3.org/2000/svg">
  <defs
     id="defs1" />
  <g
     id="text1"
     style="font-weight:900;font-size:3.88056px;line-height:0.9;font-family:'HarmonyOS Sans';-inkscape-font-specification:'HarmonyOS Sans Heavy';text-align:center;letter-spacing:-0.132292px;word-spacing:0px;text-anchor:middle;stroke-width:0.264583"
     aria-label="Hold both&#10;for Adjust"
     transform="matrix(0.71612767,0,0,0.71612767,4.9253989,0.72388985)">
    <path
       d="m -5.9184197,-0.89830282 v 1.0749151 h 1.1719291 v -1.0749151 h 0.6635758 V 1.942267 H -4.7464906 V 0.76257683 H -5.9184197 V 1.942267 h -0.6635757 v -2.84056982 z m 2.1029087,1.83550484 q 0,-0.32208647 0.1435807,-0.55880062 0.1474613,-0.24059472 0.388056,-0.3686532 0.2444753,-0.12805847 0.5277561,-0.12805847 0.2794003,0 0.5199951,0.12805847 0.2444752,0.12805848 0.3880559,0.3686532 0.1435808,0.23671415 0.1435808,0.55880062 0,0.31820588 -0.1435808,0.55880068 -0.1435807,0.2405947 -0.3880559,0.3686531 -0.2405948,0.1280585 -0.5199951,0.1280585 -0.2832808,0 -0.5277561,-0.1280585 Q -3.524469,1.7365974 -3.6719303,1.4960027 -3.815511,1.2554079 -3.815511,0.93720202 Z m 0.651934,0 q 0,0.15522238 0.050447,0.27163918 0.054328,0.1164168 0.1435807,0.1785058 0.093134,0.062089 0.2095503,0.062089 0.1125362,0 0.2017891,-0.062089 0.089253,-0.062089 0.1435807,-0.1785058 0.054328,-0.1164168 0.054328,-0.27163918 0,-0.15522239 -0.054328,-0.27163919 -0.054328,-0.12029736 -0.1435807,-0.18238632 -0.089253,-0.062089 -0.2017891,-0.062089 -0.1164168,0 -0.2095503,0.062089 -0.089253,0.062089 -0.1435807,0.18238632 -0.050447,0.1164168 -0.050447,0.27163919 z M -0.85499822,-1.0108391 V 1.942267 H -1.4875295 v -2.9531061 z m 1.7187334,1.16804858 V -1.0108391 H 1.4962664 V 1.942267 H 0.93358523 Q 0.91806303,1.7327168 0.90642134,1.6589862 0.79776566,1.8258502 0.63478215,1.907342 0.47179863,1.992714 0.27389007,1.992714 q -0.25223639,0 -0.46178663,-0.1241779 -0.20566967,-0.1241779 -0.32984759,-0.3647726 -0.12029736,-0.2405947 -0.12029736,-0.56656178 0,-0.32984759 0.12029736,-0.56656174 0.12417792,-0.24059472 0.33372815,-0.36477264 0.20955024,-0.12417791 0.45790607,-0.12417791 0.18238632,0 0.3298476,0.06985007 0.15134183,0.06596952 0.25999751,0.20566998 z M 0.43687359,1.4610776 q 0.1164168,0 0.2134308,-0.058208 0.097014,-0.058208 0.15522239,-0.1746252 0.0582084,-0.1202973 0.0582084,-0.29104198 0,-0.17074463 -0.0582084,-0.27940031 -0.0582084,-0.11253624 -0.15522239,-0.16686408 -0.0931334,-0.0543278 -0.2134308,-0.0543278 -0.12417792,0 -0.22119192,0.062089 -0.097014,0.0582084 -0.15134183,0.17074464 -0.05044728,0.10865568 -0.05044728,0.26775863 0,0.1552224 0.05432784,0.2755198 0.0543278,0.1202973 0.14746127,0.1862669 0.097014,0.062089 0.22119192,0.062088 z M 3.9635976,-0.11831027 q 0.2483559,0 0.4540255,0.12417791 0.2095503,0.12417792 0.3298476,0.36477264 0.1241779,0.23671415 0.1241779,0.56656174 0,0.32596708 -0.1241779,0.56656178 -0.1202973,0.2405947 -0.3298476,0.3647726 -0.2056696,0.1241779 -0.4540255,0.1241779 -0.2017891,0 -0.3647726,-0.081492 Q 3.4358415,1.8297308 3.3271858,1.6589862 3.3039024,1.8374919 3.3000219,1.942267 H 2.7373407 V -1.0108391 H 3.369872 V 0.15720948 Q 3.4785276,0.01750932 3.6259889,-0.0484602 3.7773308,-0.11831027 3.9635976,-0.11831027 Z M 3.8006141,1.4610776 q 0.1202974,0 0.2134308,-0.06597 0.097014,-0.06597 0.1513418,-0.1823863 0.054328,-0.1202974 0.054328,-0.27551978 0,-0.15522239 -0.054328,-0.26775863 -0.050447,-0.11253624 -0.1474612,-0.17074464 -0.093133,-0.062089 -0.2173114,-0.062089 -0.1202973,0 -0.2173113,0.0543278 -0.097014,0.0543278 -0.1552224,0.16686408 -0.058208,0.10865568 -0.058208,0.27940031 0,0.17074466 0.058208,0.29104196 0.058208,0.1164168 0.1552224,0.1746252 0.1008945,0.058208 0.2173113,0.058209 z M 4.9760685,0.93720202 q 0,-0.32208647 0.1435807,-0.55880062 0.1474612,-0.24059472 0.388056,-0.3686532 0.2444752,-0.12805847 0.5277561,-0.12805847 0.2794003,0 0.519995,0.12805847 0.2444753,0.12805848 0.388056,0.3686532 0.1435808,0.23671415 0.1435808,0.55880062 0,0.31820588 -0.1435808,0.55880068 -0.1435807,0.2405947 -0.388056,0.3686531 -0.2405947,0.1280585 -0.519995,0.1280585 -0.2832809,0 -0.5277561,-0.1280585 Q 5.2671104,1.7365974 5.1196492,1.4960027 4.9760685,1.2554079 4.9760685,0.93720202 Z m 0.651934,0 q 0,0.15522238 0.050447,0.27163918 0.054328,0.1164168 0.1435807,0.1785058 0.093133,0.062089 0.2095503,0.062089 0.1125362,0 0.2017891,-0.062089 0.089253,-0.062089 0.1435807,-0.1785058 0.054328,-0.1164168 0.054328,-0.27163918 0,-0.15522239 -0.054328,-0.27163919 -0.054328,-0.12029736 -0.1435807,-0.18238632 -0.089253,-0.062089 -0.2017891,-0.062089 -0.1164168,0 -0.2095503,0.062089 -0.089253,0.062089 -0.1435807,0.18238632 -0.050447,0.1164168 -0.050447,0.27163919 z M 8.5885179,1.3601831 8.8097098,1.7986863 q -0.2173113,0.194028 -0.6131284,0.194028 -0.3570115,0 -0.5704423,-0.1823863 Q 7.4165888,1.6240611 7.4165888,1.1545134 V 0.46765427 H 7.0479356 v -0.53163671 h 0.3686532 v -0.64417294 h 0.6325313 v 0.64417294 H 8.6622486 V 0.46765427 H 8.0491201 V 1.0419771 q 0,0.194028 0.058208,0.3026837 0.058208,0.1047751 0.2211919,0.1047751 0.06985,0 0.131939,-0.019403 0.062089,-0.019403 0.1280589,-0.06985 z m 1.5247071,-1.47849337 q 0.337608,0 0.531636,0.22119191 0.194028,0.22119192 0.194028,0.65193407 V 1.942267 H 10.206358 V 0.9682465 q 0,-0.25223639 -0.07373,-0.39193655 -0.07373,-0.13970016 -0.2522371,-0.13970016 -0.1164168,0 -0.1979086,0.0659695 -0.081492,0.0659695 -0.1280585,0.19014746 -0.042686,0.12417792 -0.042686,0.30268367 V 1.942267 H 8.8792064 V -1.0108391 H 9.5117377 V 0.1843734 Q 9.6126322,0.029151 9.7639741,-0.04457964 9.9153159,-0.11831027 10.113225,-0.11831027 Z"
       id="path4" />
    <path
       d="m -5.628282,2.9706153 c -0.090546,0 -0.159103,0.034925 -0.2056697,0.1047751 -0.046567,0.06985 -0.06985,0.1797993 -0.06985,0.3298476 v 0.089253 l -0.077611,-0.06597 h 0.6053673 V 3.9562776 H -5.9038017 V 5.4347709 H -6.536333 V 3.9562776 H -6.8778223 V 3.4285214 h 0.3414893 v -0.046567 c 0,-0.3182059 0.077611,-0.5562136 0.2328336,-0.714023 0.1578094,-0.1603965 0.3634791,-0.2405948 0.617009,-0.2405948 0.126765,0 0.2393012,0.019403 0.3376087,0.058208 0.098308,0.038805 0.1746252,0.089253 0.2289531,0.1513419 L -5.3605233,3.079271 C -5.4407216,3.0068339 -5.5299745,2.9706153 -5.628282,2.9706153 Z m 0.201436,1.4590906 c 0,-0.2147243 0.04786,-0.4009912 0.1435807,-0.5588007 0.098307,-0.1603965 0.2276595,-0.2832809 0.388056,-0.3686532 0.1629835,-0.085372 0.3389022,-0.1280584 0.5277561,-0.1280584 0.1862669,0 0.3595986,0.042686 0.5199951,0.1280584 0.1629835,0.085372 0.2923354,0.2082567 0.3880559,0.3686532 0.095721,0.1578095 0.1435808,0.3440764 0.1435808,0.5588007 0,0.2121373 -0.04786,0.3984041 -0.1435808,0.5588006 -0.09572,0.1603965 -0.2250724,0.2832809 -0.3880559,0.3686532 -0.1603965,0.085372 -0.3337282,0.1280585 -0.5199951,0.1280585 -0.1888539,0 -0.3647726,-0.042686 -0.5277561,-0.1280585 C -5.0556058,5.2717874 -5.1849578,5.148903 -5.2832653,4.9885065 -5.3789858,4.82811 -5.426846,4.6418432 -5.426846,4.4297059 Z m 0.651934,0 c 0,0.1034816 0.016816,0.194028 0.050447,0.2716392 0.036219,0.077611 0.084079,0.1371131 0.1435807,0.1785057 0.062089,0.041393 0.1319388,0.062089 0.2095503,0.062089 0.075024,0 0.1422872,-0.020696 0.2017891,-0.062089 0.059502,-0.041393 0.1073622,-0.1008946 0.1435807,-0.1785057 0.036219,-0.077611 0.054328,-0.1681576 0.054328,-0.2716392 0,-0.1034816 -0.018109,-0.194028 -0.054328,-0.2716392 -0.036219,-0.080198 -0.084079,-0.1409937 -0.1435807,-0.1823863 -0.059502,-0.041393 -0.126765,-0.062089 -0.2017891,-0.062089 -0.077611,0 -0.1474613,0.020696 -0.2095503,0.062089 -0.059502,0.041393 -0.1073622,0.1021881 -0.1435807,0.1823863 -0.033631,0.077611 -0.050447,0.1681576 -0.050447,0.2716392 z m 2.8479763,-1.0555123 c 0.082785,0 0.1603965,0.012935 0.2328336,0.038806 0.075024,0.025871 0.1306456,0.059502 0.1668641,0.1008945 l -0.2444753,0.4811894 c -0.075024,-0.054328 -0.1578094,-0.081492 -0.2483558,-0.081492 -0.090546,0 -0.1694511,0.027164 -0.2367142,0.081492 -0.067263,0.051741 -0.1190038,0.1254713 -0.1552223,0.221192 -0.036219,0.093133 -0.054328,0.2030826 -0.054328,0.3298476 V 5.4347709 H -3.0988648 V 3.4285214 h 0.5626812 c 0.010348,0.1422872 0.02199,0.2457688 0.034925,0.3104448 0.059502,-0.1190039 0.1384067,-0.2095503 0.2367141,-0.2716392 0.098308,-0.062089 0.2108438,-0.093133 0.3376088,-0.093133 z M 0.21442338,2.594201 H 0.80038793 L 1.9529142,5.4347709 H 1.2544134 L 1.037102,4.860448 H -0.03781301 L -0.24736325,5.4347709 H -0.90705843 Z M 0.16785666,4.3055279 H 0.82755185 L 0.48994314,3.4207603 Z M 3.4077732,3.6497133 V 2.4816648 H 4.0403045 V 5.4347709 H 3.4776233 C 3.4672752,5.2950707 3.4582205,5.2006437 3.4504594,5.15149 3.3780223,5.2627327 3.2874759,5.345518 3.1788202,5.3998458 c -0.1086557,0.056915 -0.228953,0.085372 -0.3608921,0.085372 -0.1681576,0 -0.3220865,-0.041393 -0.4617866,-0.124178 C 2.2190284,5.2782548 2.1090792,5.1566641 2.0262939,4.9962676 1.9460957,4.8358711 1.9059966,4.6470172 1.9059966,4.4297059 c 0,-0.2198984 0.040099,-0.4087523 0.1202973,-0.5665618 0.082785,-0.1603965 0.194028,-0.2819873 0.3337282,-0.3647726 0.1397001,-0.082785 0.2923355,-0.1241779 0.457906,-0.1241779 0.1215909,0 0.2315401,0.023283 0.3298476,0.06985 0.1008946,0.04398 0.1875604,0.1125366 0.2599975,0.2056697 z M 2.9809117,4.9535815 c 0.077611,0 0.1487547,-0.019403 0.2134307,-0.058208 0.064676,-0.038805 0.1164168,-0.097014 0.1552224,-0.1746252 0.038805,-0.080198 0.058208,-0.1772123 0.058208,-0.291042 0,-0.1138298 -0.019403,-0.2069633 -0.058208,-0.2794004 -0.038805,-0.075024 -0.090546,-0.1306455 -0.1552224,-0.166864 -0.062089,-0.036219 -0.1332322,-0.054328 -0.2134307,-0.054328 -0.082785,0 -0.156516,0.020696 -0.221192,0.062089 -0.064676,0.038805 -0.1151233,0.09572 -0.1513418,0.1707446 -0.033631,0.072437 -0.050447,0.16169 -0.050447,0.2677587 0,0.1034816 0.018109,0.1953215 0.054328,0.2755197 0.036219,0.080198 0.085372,0.1422872 0.1474612,0.1862669 0.064676,0.041393 0.1384065,0.062089 0.2211916,0.062089 z M 4.8525638,3.2150906 c -0.098307,0 -0.1836799,-0.036219 -0.256117,-0.1086557 -0.06985,-0.075024 -0.1047751,-0.1629835 -0.1047751,-0.263878 0,-0.1034816 0.034925,-0.191441 0.1047751,-0.2638781 0.06985,-0.075024 0.1552225,-0.1125363 0.256117,-0.1125363 0.1008945,0 0.1875604,0.037512 0.2599975,0.1125363 0.075024,0.072437 0.1125362,0.1603965 0.1125362,0.2638781 0,0.1008945 -0.036218,0.1888539 -0.1086556,0.263878 C 5.0440048,3.178872 4.9560454,3.2150906 4.8525638,3.2150906 Z M 4.3170465,6.3816275 c -0.1215909,0 -0.2393012,-0.020696 -0.3531309,-0.062089 C 3.8500858,6.2807329 3.7569524,6.221231 3.6845153,6.1410328 L 4.022124,5.7180518 c 0.064676,0.082785 0.1435807,0.1241779 0.2367141,0.1241779 0.1008946,0 0.1733317,-0.038806 0.2173114,-0.1164168 0.043979,-0.077611 0.065969,-0.1953215 0.065969,-0.353131 V 3.4285214 h 0.6325313 v 2.0062495 c 0,0.2069632 -0.040099,0.3815884 -0.1202974,0.5238756 C 4.9767414,6.1035207 4.8732601,6.2095893 4.7439081,6.2768524 4.6145561,6.3467024 4.4722689,6.3816275 4.3170465,6.3816275 Z M 6.928892,4.3714975 V 3.4285214 H 7.5614233 V 5.4347709 H 7.0026226 c -0.00259,-0.010348 -0.00388,-0.02199 -0.00388,-0.034925 0,-0.010348 -0.00129,-0.020696 -0.00388,-0.031044 C 6.9871012,5.2601462 6.9780466,5.1786544 6.9676986,5.1243266 6.9004355,5.2459175 6.8137697,5.3364639 6.7077011,5.3959658 6.6016324,5.4554678 6.478748,5.4852188 6.3390479,5.4852188 6.1088013,5.4852188 5.929002,5.4114878 5.79965,5.2640268 5.6702974,5.1165651 5.6056211,4.8992536 5.6056211,4.6120922 V 3.4285214 h 0.6325312 v 0.97014 c 0,0.1603965 0.023283,0.2897485 0.06985,0.388056 0.046567,0.095721 0.1293519,0.1435807 0.2483558,0.1435807 0.080198,0 0.1474613,-0.02199 0.2017891,-0.065969 0.056915,-0.04398 0.099601,-0.1073625 0.1280585,-0.1901475 0.028457,-0.082785 0.042686,-0.18368 0.042686,-0.3026841 z m 2.514249,0.457906 C 9.4317544,4.966043 9.4056289,5.0855205 9.3306047,5.186415 9.2555805,5.2847225 9.1520989,5.3584532 9.0201599,5.407607 8.8908079,5.4593477 8.7433467,5.485218 8.5777761,5.485218 8.3604647,5.485218 8.1716108,5.4386513 8.0112144,5.3455178 7.8508179,5.2523845 7.7408687,5.1243261 7.6813668,4.9613426 l 0.457906,-0.2677587 c 0.033631,0.090546 0.090546,0.16169 0.1707447,0.2134308 0.080198,0.049154 0.1707446,0.073731 0.2716392,0.073731 0.064676,0 0.1164168,-0.010348 0.1552224,-0.031045 0.038805,-0.023283 0.058208,-0.055621 0.058208,-0.097014 0,-0.036219 -0.015522,-0.06597 -0.046567,-0.089253 C 8.7200631,4.7375635 8.6825512,4.7168673 8.6359845,4.7013451 8.5920048,4.6832358 8.5260353,4.6612459 8.438076,4.6353755 8.3035498,4.5965699 8.1910136,4.5577643 8.1004672,4.5189587 8.0125078,4.4801531 7.9348967,4.4232382 7.8676337,4.3482141 7.8029577,4.2706029 7.7706197,4.1710019 7.7706197,4.049411 c 0,-0.1397001 0.038806,-0.2599975 0.1164168,-0.3608921 0.077611,-0.1034816 0.1810927,-0.1810928 0.3104447,-0.2328336 0.131939,-0.054328 0.2729327,-0.081492 0.4229811,-0.081492 0.2121372,0 0.390643,0.046567 0.5355172,0.1397001 0.1448742,0.090546 0.2367142,0.2082567 0.2755198,0.353131 L 8.9735932,4.1231416 C 8.9373746,4.0455304 8.8908079,3.9860285 8.8338931,3.9446359 c -0.056915,-0.04398 -0.1293518,-0.06597 -0.2173114,-0.06597 -0.062089,0 -0.1112425,0.012935 -0.1474613,0.038806 -0.033631,0.023283 -0.050447,0.054328 -0.050447,0.093133 0,0.033631 0.014229,0.063382 0.042686,0.089253 0.028457,0.023283 0.064676,0.042686 0.1086557,0.058208 0.046567,0.015522 0.1099491,0.034925 0.1901474,0.058208 0.1371131,0.036219 0.2509429,0.075024 0.3414893,0.1164168 0.093133,0.038805 0.1733317,0.099601 0.2405947,0.1823863 0.067263,0.080198 0.1116367,0.1854201 0.1008946,0.3143253 z m 1.470383,0.023283 0.221192,0.4385033 c -0.144874,0.129352 -0.34925,0.194028 -0.613129,0.194028 -0.238007,0 -0.428154,-0.060796 -0.570442,-0.1823864 C 9.8114448,5.1786538 9.7415948,4.9600491 9.7415948,4.6470172 V 3.9601581 H 9.3729416 V 3.4285214 H 9.7415948 V 2.7843485 h 0.6325312 v 0.6441729 h 0.613129 V 3.9601581 H 10.374126 V 4.534481 c 0,0.129352 0.0194,0.2302466 0.05821,0.3026837 0.03881,0.06985 0.112537,0.1047751 0.221191,0.1047751 0.04657,0 0.09055,-0.00647 0.131939,-0.019403 0.04139,-0.012935 0.181089,-0.053941 0.128059,-0.06985 z"
       id="path5" />
  </g>
</svg>
