<?xml version="1.0" encoding="UTF-8" standalone="no"?>
<!-- Created with Inkscape (http://www.inkscape.org/) -->

<svg
   width="10.149708mm"
   height="3.13234mm"
   viewBox="0 0 10.149708 3.13234"
   version="1.1"
   id="svg1"
   xmlns="http://www.w3.org/2000/svg"
   xmlns:svg="http://www.w3.org/2000/svg">
  <defs
     id="defs1" />
  <g
     id="layer1"
     transform="translate(-59.493176,-148.63201)">
    <text
       xml:space="preserve"
       style="font-style:normal;font-variant:normal;font-weight:bold;font-stretch:normal;font-size:3.52777px;line-height:0.9;font-family:'HarmonyOS Sans';-inkscape-font-specification:'HarmonyOS Sans Bold';text-align:center;text-decoration-color:#000000;letter-spacing:0.079375px;writing-mode:lr-tb;direction:ltr;text-anchor:middle;fill:#000000;stroke-width:0.264583"
       x="68.657768"
       y="148.46114"
       id="text1"><tspan
         id="tspan1"
         style="stroke-width:0.264583"
         x="68.657768"
         y="148.46114" /></text>
    <path
       d="m 60.390361,148.73441 h 0.468772 l 0.922021,2.27245 h -0.558801 l -0.173848,-0.45945 h -0.859932 l -0.167641,0.45945 h -0.527756 z m -0.03726,1.36906 h 0.527757 l -0.270087,-0.70782 z m 2.746451,-0.52466 v -0.93443 h 0.506025 v 2.36248 h -0.450144 q -0.01242,-0.16764 -0.02173,-0.22662 -0.08693,0.13349 -0.217312,0.19869 -0.130387,0.0683 -0.288714,0.0683 -0.201789,0 -0.369429,-0.0993 -0.164536,-0.0993 -0.263878,-0.29181 -0.09624,-0.19248 -0.09624,-0.45325 0,-0.26388 0.09624,-0.45326 0.09934,-0.19247 0.266982,-0.29181 0.167641,-0.0994 0.366325,-0.0994 0.14591,0 0.263878,0.0559 0.121074,0.0528 0.207998,0.16454 z m -0.341489,1.0431 q 0.09313,0 0.170745,-0.0466 0.07761,-0.0466 0.124177,-0.1397 0.04657,-0.0962 0.04657,-0.23283 0,-0.1366 -0.04657,-0.22352 -0.04657,-0.09 -0.124177,-0.13349 -0.0745,-0.0434 -0.170745,-0.0434 -0.09934,0 -0.176954,0.0497 -0.07761,0.0466 -0.121073,0.1366 -0.04036,0.0869 -0.04036,0.2142 0,0.12418 0.04346,0.22042 0.04346,0.0962 0.117969,0.14901 0.07761,0.0497 0.176953,0.0497 z m 1.510878,-1.39079 q -0.117969,0 -0.204893,-0.0869 -0.08382,-0.09 -0.08382,-0.21111 0,-0.12417 0.08382,-0.2111 0.08382,-0.09 0.204893,-0.09 0.121074,0 0.207998,0.09 0.09003,0.0869 0.09003,0.2111 0,0.12108 -0.08692,0.21111 -0.08692,0.0869 -0.211103,0.0869 z m -0.428414,2.53323 q -0.145909,0 -0.282505,-0.0497 -0.136595,-0.0466 -0.22352,-0.14281 l 0.270087,-0.33838 q 0.07761,0.0993 0.189372,0.0993 0.121073,0 0.173848,-0.0931 0.05278,-0.0931 0.05278,-0.28251 v -1.55533 h 0.506025 v 1.605 q 0,0.24836 -0.09624,0.41911 -0.09313,0.17385 -0.248356,0.25456 -0.155223,0.0838 -0.34149,0.0838 z m 2.128662,-1.6081 v -0.75439 h 0.506024 v 1.605 h -0.44704 q -0.0031,-0.0124 -0.0031,-0.0279 0,-0.0124 -0.0031,-0.0248 -0.0093,-0.13038 -0.02173,-0.19557 -0.08072,0.1459 -0.207998,0.21731 -0.127282,0.0714 -0.294922,0.0714 -0.276296,0 -0.431519,-0.17695 -0.155222,-0.17696 -0.155222,-0.52156 v -0.94685 h 0.506025 v 0.77611 q 0,0.19248 0.05588,0.31045 0.05588,0.11486 0.198684,0.11486 0.09624,0 0.161432,-0.0528 0.0683,-0.0528 0.102447,-0.15212 0.03415,-0.0993 0.03415,-0.24214 z m 2.165916,0.36632 q 0,0.16453 -0.09003,0.28561 -0.09003,0.11797 -0.248356,0.17695 -0.155223,0.0621 -0.353907,0.0621 -0.260774,0 -0.45325,-0.11176 -0.192475,-0.11176 -0.263878,-0.30734 l 0.366325,-0.21421 q 0.04036,0.10866 0.136596,0.17075 0.09624,0.059 0.217311,0.059 0.07761,0 0.124178,-0.0248 0.04657,-0.0279 0.04657,-0.0776 0,-0.0434 -0.03726,-0.0714 -0.03415,-0.031 -0.09003,-0.0497 -0.05278,-0.0218 -0.158327,-0.0528 -0.161431,-0.0466 -0.270087,-0.0931 -0.105551,-0.0466 -0.186267,-0.1366 -0.07761,-0.0931 -0.07761,-0.23904 0,-0.16764 0.09313,-0.28871 0.09313,-0.12418 0.248355,-0.18627 0.158327,-0.0652 0.338385,-0.0652 0.254565,0 0.428414,0.11176 0.173849,0.10866 0.220416,0.28251 l -0.366325,0.20489 q -0.04346,-0.0931 -0.11176,-0.1428 -0.0683,-0.0528 -0.173849,-0.0528 -0.0745,0 -0.117969,0.031 -0.04036,0.0279 -0.04036,0.0745 0,0.0403 0.03415,0.0714 0.03415,0.0279 0.08692,0.0466 0.05588,0.0186 0.152118,0.0466 0.164536,0.0434 0.273192,0.0931 0.11176,0.0466 0.192476,0.14591 0.08072,0.0962 0.08072,0.25146 z m 1.330824,0.0186 0.176953,0.3508 q -0.173849,0.15522 -0.490503,0.15522 -0.285609,0 -0.456354,-0.14591 -0.16764,-0.14901 -0.16764,-0.52465 v -0.54949 h -0.294923 v -0.42531 h 0.294923 v -0.51534 h 0.506025 v 0.51534 h 0.490503 v 0.42531 H 69.03441 v 0.45946 q 0,0.15522 0.04657,0.24215 0.04657,0.0838 0.176954,0.0838 0.05588,0 0.105551,-0.0155 0.04967,-0.0155 0.102447,-0.0559 z"
       id="text4"
       style="font-weight:900;font-size:3.88056px;line-height:0.9;font-family:'HarmonyOS Sans';-inkscape-font-specification:'HarmonyOS Sans Heavy';text-align:center;letter-spacing:0.0608542px;text-anchor:middle;stroke-width:0.211666"
       aria-label="Adjust" />
  </g>
</svg>
