<?xml version="1.0" encoding="UTF-8" standalone="no"?>
<!-- Created with Inkscape (http://www.inkscape.org/) -->

<svg
   width="10.290505mm"
   height="2.6282299mm"
   viewBox="0 0 10.290506 2.62823"
   version="1.1"
   id="svg1"
   xmlns="http://www.w3.org/2000/svg"
   xmlns:svg="http://www.w3.org/2000/svg">
  <defs
     id="defs1" />
  <g
     id="layer1"
     transform="translate(-71.769349,-104.80373)">
    <path
       d="m 73.38154,105.83031 v 0.51506 h -1.008942 v 0.51858 h 1.167692 v 0.52211 h -1.770941 v -2.58233 h 1.728607 v 0.51858 h -1.125358 v 0.508 z m 1.894414,-0.3175 q 0.306916,0 0.483304,0.20108 0.176389,0.20109 0.176389,0.59267 v 1.0795 H 75.36062 v -0.88547 q 0,-0.22931 -0.06703,-0.35631 -0.06703,-0.127 -0.229305,-0.127 -0.105833,0 -0.179917,0.06 -0.07408,0.06 -0.116416,0.17287 -0.0388,0.11288 -0.0388,0.27516 v 0.86078 h -0.575027 v -1.82386 h 0.511527 q 0.01411,0.19403 0.03175,0.28222 0.08819,-0.16933 0.23636,-0.25047 0.148167,-0.0811 0.342194,-0.0811 z m 2.497659,1.34408 0.201083,0.39864 q -0.197555,0.17639 -0.557387,0.17639 -0.324555,0 -0.518583,-0.16581 -0.190499,-0.16933 -0.190499,-0.59619 v -0.62442 h -0.335138 v -0.4833 h 0.335138 v -0.58561 h 0.575026 v 0.58561 h 0.557388 v 0.4833 h -0.557388 v 0.52211 q 0,0.17639 0.05292,0.27517 0.05292,0.0952 0.201083,0.0952 0.0635,0 0.119944,-0.0176 0.05644,-0.0176 0.116416,-0.0635 z m 1.449915,-1.34408 q 0.28575,0 0.493888,0.14111 0.208138,0.14111 0.296333,0.39864 0.09172,0.254 0.03528,0.58561 h -1.167691 q 0.02469,0.10231 0.07761,0.17286 0.05292,0.0706 0.123472,0.10936 0.07408,0.0353 0.165806,0.0353 0.10936,0 0.197555,-0.0529 0.09172,-0.0564 0.137583,-0.15522 l 0.419804,0.25047 q -0.07761,0.20814 -0.292805,0.32103 -0.215193,0.11289 -0.483304,0.11289 -0.246944,0 -0.465666,-0.10936 -0.215194,-0.10936 -0.349249,-0.32456 -0.130527,-0.21872 -0.130527,-0.53269 0,-0.30692 0.130527,-0.52211 0.134055,-0.21519 0.349249,-0.32103 0.215194,-0.10936 0.462138,-0.10936 z m -0.01764,0.45861 q -0.08114,0 -0.144638,0.0353 -0.0635,0.0318 -0.109361,0.0953 -0.04586,0.06 -0.07055,0.14464 h 0.606776 q -0.01058,-0.0917 -0.04939,-0.1517 -0.0388,-0.0635 -0.09878,-0.0917 -0.05997,-0.0318 -0.134056,-0.0318 z m 2.490607,-0.45861 q 0.112889,0 0.211666,0.0353 0.102306,0.0353 0.151694,0.0917 l -0.222249,0.43744 q -0.102306,-0.0741 -0.225778,-0.0741 -0.123471,0 -0.215193,0.0741 -0.09172,0.0706 -0.141111,0.20109 -0.04939,0.127 -0.04939,0.29986 v 0.80786 h -0.575027 v -1.82386 h 0.511527 q 0.01411,0.19403 0.03175,0.28222 0.08114,-0.16228 0.215194,-0.24694 0.134055,-0.0847 0.306916,-0.0847 z"
       id="text1"
       style="font-weight:900;font-size:3.52777px;line-height:0.9;font-family:'HarmonyOS Sans';-inkscape-font-specification:'HarmonyOS Sans Heavy';text-align:center;letter-spacing:0.264583px;text-anchor:middle;stroke-width:1.71979"
       aria-label="Enter" />
  </g>
</svg>
