<?xml version="1.0" encoding="UTF-8" standalone="no"?>
<!-- Created with Inkscape (http://www.inkscape.org/) -->

<svg
   width="3.9523878mm"
   height="2.6810899mm"
   viewBox="0 0 3.9523878 2.6810899"
   version="1.1"
   id="svg1"
   xmlns="http://www.w3.org/2000/svg"
   xmlns:svg="http://www.w3.org/2000/svg">
  <defs
     id="defs1" />
  <g
     id="layer1"
     transform="translate(-79.412313,-120.52226)">
    <path
       d="m 79.412313,123.15748 v -2.58233 h 1.728607 v 0.52564 h -1.125358 v 0.56444 h 1.008942 v 0.52211 h -1.008942 v 0.97014 z m 3.518472,-1.3335 c 0.138759,0.0541 0.245768,0.13285 0.321027,0.23636 0.07526,0.10349 0.112889,0.23049 0.112889,0.381 0,0.15993 -0.04233,0.29751 -0.127,0.41275 -0.08231,0.11524 -0.195203,0.20226 -0.338666,0.26106 -0.143462,0.0588 -0.303388,0.0882 -0.479777,0.0882 -0.225777,0 -0.418628,-0.0517 -0.578554,-0.15522 -0.157573,-0.10348 -0.270462,-0.25282 -0.338666,-0.44803 l 0.472721,-0.27516 c 0.03293,0.11053 0.0882,0.19637 0.165806,0.25752 0.07761,0.0588 0.164629,0.0882 0.261055,0.0882 0.06115,0 0.116415,-0.0106 0.165805,-0.0317 0.04939,-0.0235 0.08819,-0.0565 0.116416,-0.0988 0.03057,-0.0423 0.04586,-0.0941 0.04586,-0.15522 0,-0.10113 -0.04233,-0.17639 -0.127,-0.22578 -0.08467,-0.0494 -0.209313,-0.0741 -0.373943,-0.0741 h -0.08819 v -0.48683 h 0.144638 c 0.112889,0 0.201083,-0.0282 0.264583,-0.0847 0.06585,-0.0565 0.09878,-0.12467 0.09878,-0.20461 0,-0.0753 -0.02587,-0.13523 -0.07761,-0.17992 -0.04939,-0.047 -0.115238,-0.0705 -0.197556,-0.0705 -0.08937,0 -0.168156,0.0306 -0.23636,0.0917 -0.0682,0.0611 -0.118768,0.14698 -0.151694,0.25753 l -0.451555,-0.26106 c 0.06115,-0.20226 0.170508,-0.35631 0.328083,-0.46214 0.159926,-0.10818 0.349249,-0.16227 0.567971,-0.16227 0.166981,0 0.315147,0.0318 0.444499,0.0953 0.131704,0.0611 0.232833,0.14697 0.303388,0.25752 0.07291,0.11054 0.109361,0.23636 0.109361,0.37747 0,0.13171 -0.03057,0.24695 -0.09172,0.34573 -0.05879,0.0964 -0.146987,0.17168 -0.264583,0.22577 z"
       id="text1"
       style="font-weight:900;font-size:3.52777px;line-height:0.9;font-family:'HarmonyOS Sans';-inkscape-font-specification:'HarmonyOS Sans Heavy';text-align:center;letter-spacing:0.264583px;text-anchor:middle;stroke-width:1.71979"
       aria-label="F3" />
  </g>
</svg>
