<?xml version="1.0" encoding="UTF-8" standalone="no"?>
<!-- Created with Inkscape (http://www.inkscape.org/) -->

<svg
   width="2.0799799mm"
   height="6.7056074mm"
   viewBox="0 0 2.0799799 6.7056069"
   version="1.1"
   id="svg1"
   xmlns="http://www.w3.org/2000/svg"
   xmlns:svg="http://www.w3.org/2000/svg">
  <defs
     id="defs1" />
  <g
     id="text7"
     style="font-weight:900;font-size:3.88056px;line-height:0.9;font-family:'HarmonyOS Sans';-inkscape-font-specification:'HarmonyOS Sans Heavy';text-align:center;letter-spacing:0px;word-spacing:0px;text-anchor:middle;stroke-width:0.264583"
     aria-label=":&#10;;"
     transform="translate(2.4634231,1.4202428)">
    <g
       id="text10"
       style="stroke-width:0.0700042"
       aria-label=")&#10;0">
      <path
         d="m -0.85104807,0.37645641 q 0,0.55103951 -0.18238633,1.01282619 -0.1823863,0.4617866 -0.5005922,0.7838731 h -0.6208896 q 0.3220865,-0.3841755 0.48507,-0.8032759 0.1668641,-0.41910052 0.1668641,-0.99342339 0,-0.57044231 -0.1668641,-0.98566222 -0.1629835,-0.41910049 -0.48507,-0.81103699 h 0.6208896 q 0.3182059,0.3220864 0.5005922,0.78775363 0.18238633,0.46178663 0.18238633,1.00894558 z"
         id="path11" />
      <path
         d="m -0.38344303,3.8146324 q 0,0.7179036 -0.2716392,1.0943179 -0.26775863,0.3764143 -0.76447027,0.3764143 -0.4967117,0 -0.7722315,-0.3725337 -0.2716391,-0.3764143 -0.2716391,-1.0981985 0,-0.7217841 0.2716391,-1.0981984 0.2755198,-0.3764144 0.7722315,-0.3764144 0.49671164,0 0.76447027,0.3764144 0.2716392,0.3764143 0.2716392,1.0981984 z m -1.37759877,0 q 0,0.4385033 0.081492,0.6519341 0.085372,0.2134308 0.2599975,0.2134308 0.1746252,0 0.2522364,-0.2134308 0.081492,-0.2173114 0.081492,-0.6519341 0,-0.4385033 -0.081492,-0.6519341 -0.077611,-0.2134308 -0.2522364,-0.2134308 -0.1707447,0 -0.256117,0.2095503 -0.085372,0.2095502 -0.085373,0.6558146 z"
         id="path12" />
    </g>
  </g>
</svg>
