<?xml version="1.0" encoding="UTF-8" standalone="no"?>
<!-- Created with Inkscape (http://www.inkscape.org/) -->

<svg
   width="3.643846mm"
   height="7.1452088mm"
   viewBox="0 0 3.6438463 7.145209"
   version="1.1"
   id="svg1"
   xmlns="http://www.w3.org/2000/svg"
   xmlns:svg="http://www.w3.org/2000/svg">
  <defs
     id="defs1" />
  <g
     id="text2"
     style="font-weight:bold;font-size:3.88056px;line-height:0.9;font-family:'HarmonyOS Sans';-inkscape-font-specification:'HarmonyOS Sans Bold';text-align:center;letter-spacing:0.079375px;text-anchor:middle;stroke-width:0.264583"
     aria-label="@&#10;2"
     transform="translate(4.0212571,1.4573739)">
    <path
       d="m -1.8656062,4.6556064 -0.4850699,0.5393978 h 1.137004 V 5.6878353 H -3.1733549 V 5.3230627 l 0.8576038,-0.9623789 q 0.2211919,-0.2444753 0.3065642,-0.388056 0.089253,-0.1435807 0.089253,-0.2949225 0,-0.1668641 -0.093133,-0.2677587 -0.093133,-0.1008945 -0.2522364,-0.1008945 -0.159103,0 -0.2871615,0.1202973 -0.1241779,0.1164168 -0.1901474,0.3337282 L -3.184996,3.5069606 q 0.1047751,-0.3453698 0.3647726,-0.5277561 0.2638781,-0.1862669 0.6092479,-0.1862669 0.2677586,0 0.4695478,0.1125362 0.2017891,0.1086557 0.3065642,0.3026837 0.1086557,0.194028 0.1086557,0.4423838 0,0.2444753 -0.1202974,0.4579061 -0.1164168,0.2134308 -0.419101,0.547159 z"
       id="path4" />
    <path
       style="font-weight:900;-inkscape-font-specification:'HarmonyOS Sans Heavy';stroke-width:0.0700042"
       d="m -2.1391855,-1.4573739 c 0.3363152,0 0.6377053,0.071144 0.9041704,0.2134308 0.26905232,0.1422872 0.47860277,0.34666343 0.62865108,0.61312853 0.15263538,0.2664651 0.22895308,0.5782034 0.22895308,0.9352149 0,0.3130319 -0.063382,0.5600942 -0.1901475,0.74118687 -0.12676494,0.1810928 -0.32208644,0.2716392 -0.58596486,0.2716392 -0.1371131,0 -0.2574105,-0.024577 -0.3608921,-0.073731 C -1.617897,1.1917544 -1.6955082,1.1115565 -1.747249,1.0029007 -1.811925,1.1089693 -1.8908297,1.187874 -1.9839631,1.2396148 c -0.093133,0.049154 -0.1992021,0.073731 -0.3182059,0.073731 -0.1474613,0 -0.283281,-0.037512 -0.4074589,-0.1125363 -0.1241779,-0.077611 -0.2237789,-0.1888539 -0.2988031,-0.33372807 -0.072437,-0.1448743 -0.1086556,-0.3169124 -0.1086556,-0.5161145 0,-0.1992021 0.036218,-0.3712402 0.1086556,-0.5161144 0.075024,-0.1448743 0.1746252,-0.256117 0.2988031,-0.3337282 0.1241779,-0.077611 0.2599976,-0.1164168 0.4074589,-0.1164168 0.1060686,0 0.2017891,0.020696 0.2871614,0.062089 0.087959,0.041393 0.1629835,0.1047751 0.2250725,0.1901474 0.010348,-0.067263 0.018109,-0.1358196 0.023283,-0.2056697 h 0.4385033 v 1.1137207 c 0,0.1164168 0.016816,0.2004956 0.050447,0.2522364 0.033632,0.049154 0.082785,0.044148 0.1474612,0.044148 0.1008946,0 0.17203832,-0.019571 0.21343104,-0.1178785 0.0439797,-0.1008946 0.0659695,-0.2341272 0.0659695,-0.3996977 0,-0.2819873 -0.0543278,-0.522582 -0.16298374,-0.7217841 -0.1086557,-0.2017891 -0.2599975,-0.3544245 -0.4540255,-0.4579061 -0.194028,-0.1034816 -0.4216875,-0.15522243 -0.6829786,-0.15522243 -0.2716391,0 -0.5135274,0.056915 -0.7256647,0.17074463 -0.2121372,0.1138298 -0.3777078,0.2729328 -0.4967117,0.4773089 -0.1190038,0.2043761 -0.1785058,0.4385032 -0.1785058,0.7023813 0,0.2612911 0.058208,0.4941247 0.1746252,0.69850077 0.1190039,0.2017891 0.2832809,0.3583051 0.4928311,0.4695478 0.2095503,0.1138298 0.4462645,0.1707446 0.7101426,0.1707446 0.1500483,0 0.291042,-0.018109 0.422981,-0.054328 0.1319391,-0.036218 0.2483559,-0.087959 0.3492504,-0.1552224 l 0.2173114,0.403911 c -0.1112427,0.090546 -0.2522364,0.1603964 -0.4229811,0.2095502 -0.1707446,0.049154 -0.3595985,0.073731 -0.5665617,0.073731 -0.3570116,0 -0.676511,-0.076318 -0.9584984,-0.228953 C -3.4120092,1.7767587 -3.6306141,1.5672085 -3.7884235,1.2981564 -3.9436459,1.0291042 -4.0212571,0.68857573 -4.0212571,0.33932533 c 0,-0.3518374 0.080198,-0.6635757 0.2405947,-0.9352149 0.1629836,-0.2716392 0.3867625,-0.48248303 0.6713369,-0.63253133 0.2871614,-0.1526353 0.6105414,-0.2289531 0.97014,-0.228953 z m -0.073731,2.25460533 c 0.067263,0 0.129352,-0.014229 0.1862669,-0.042686 0.056915,-0.028457 0.1034816,-0.076318 0.1397001,-0.1435808 0.036218,-0.067263 0.054328,-0.1539288 0.054328,-0.2599975 0,-0.1060686 -0.018109,-0.1927344 -0.054328,-0.2599975 -0.036218,-0.067263 -0.082785,-0.1151233 -0.1397001,-0.1435807 -0.056915,-0.028457 -0.1190039,-0.042686 -0.1862669,-0.042686 -0.075024,0 -0.1397002,0.016816 -0.194028,0.050447 -0.054328,0.033631 -0.097014,0.084079 -0.1280585,0.1513418 -0.031045,0.067263 -0.046567,0.1487548 -0.046567,0.2444753 0,0.095721 0.015522,0.1772122 0.046567,0.2444753 0.031045,0.067263 0.073731,0.1177103 0.1280585,0.1513418 0.054328,0.033631 0.1190039,0.050447 0.194028,0.0504473 z"
       id="text4"
       aria-label="@" />
  </g>
</svg>
