<?xml version="1.0" encoding="UTF-8" standalone="no"?>
<!-- Created with Inkscape (http://www.inkscape.org/) -->

<svg
   width="2.4376893mm"
   height="5.8067203mm"
   viewBox="0 0 2.4376894 5.8067205"
   version="1.1"
   id="svg1"
   xmlns="http://www.w3.org/2000/svg"
   xmlns:svg="http://www.w3.org/2000/svg">
  <defs
     id="defs1" />
  <g
     id="layer1"
     transform="translate(-34.552901,-126.53732)">
    <g
       id="text6"
       style="font-weight:900;font-size:3.52777px;line-height:0.9;font-family:'HarmonyOS Sans';-inkscape-font-specification:'HarmonyOS Sans Heavy';text-align:center;letter-spacing:0.079375px;text-anchor:middle;stroke-width:0.264583"
       aria-label="#&#10;3">
      <path
         d="m 36.789507,126.53732 -0.127,0.5327 h 0.328083 v 0.51858 h -0.448027 l -0.116416,0.49389 h 0.324555 v 0.52211 h -0.448027 l -0.123472,0.52563 h -0.511527 l 0.123472,-0.52563 H 35.39251 l -0.123472,0.52563 h -0.511526 l 0.123472,-0.52563 h -0.328083 v -0.52211 h 0.451555 l 0.116416,-0.49389 h -0.328083 v -0.51858 h 0.451555 l 0.123472,-0.5327 h 0.511527 l -0.123472,0.5327 h 0.398638 l 0.123472,-0.5327 z m -0.740832,1.03364 h -0.42686 l -0.126999,0.53269 h 0.42686 z"
         id="path7" />
      <path
         d="m 36.277097,130.96467 q 0.208138,0.0811 0.321027,0.23637 0.112889,0.15522 0.112889,0.38099 0,0.23989 -0.127,0.41275 -0.123472,0.17286 -0.338666,0.26106 -0.215194,0.0882 -0.479777,0.0882 -0.338666,0 -0.578554,-0.15522 -0.236361,-0.15522 -0.338666,-0.44803 l 0.472721,-0.27516 q 0.04939,0.1658 0.165805,0.25753 0.116417,0.0882 0.261055,0.0882 0.09172,0 0.165806,-0.0317 0.07408,-0.0353 0.116416,-0.0988 0.04586,-0.0635 0.04586,-0.15522 0,-0.15169 -0.127,-0.22578 -0.126999,-0.0741 -0.373943,-0.0741 h -0.08819 v -0.48683 h 0.144639 q 0.169333,0 0.264583,-0.0847 0.09878,-0.0847 0.09878,-0.20461 0,-0.11289 -0.07761,-0.17992 -0.07408,-0.0705 -0.197555,-0.0705 -0.134055,0 -0.23636,0.0917 -0.102306,0.0917 -0.151694,0.25753 L 34.8801,130.28734 q 0.09172,-0.30339 0.328083,-0.46213 0.239888,-0.16228 0.567971,-0.16228 0.250471,0 0.444499,0.0953 0.197555,0.0917 0.303388,0.25752 0.109361,0.16581 0.109361,0.37748 0,0.19755 -0.09172,0.34572 -0.08819,0.14464 -0.264583,0.22577 z"
         id="path8" />
    </g>
  </g>
</svg>
