<?xml version="1.0" encoding="UTF-8" standalone="no"?>
<!-- Created with Inkscape (http://www.inkscape.org/) -->

<svg
   width="2.308933mm"
   height="6.8569493mm"
   viewBox="0 0 2.3089331 6.8569487"
   version="1.1"
   id="svg1"
   xmlns="http://www.w3.org/2000/svg"
   xmlns:svg="http://www.w3.org/2000/svg">
  <defs
     id="defs1" />
  <g
     id="text1"
     style="font-weight:900;font-size:3.88056px;line-height:0.9;font-family:'HarmonyOS Sans';-inkscape-font-specification:'HarmonyOS Sans Heavy';text-align:center;letter-spacing:0px;word-spacing:0px;text-anchor:middle;stroke-width:0.264583"
     aria-label="$&#10;4"
     transform="translate(-0.36089187,0.46077408)">
    <path
       d="M 1.7889379,0.66458829 V 1.2777168 q 0.2444753,0.06985 0.4191005,0.1591029 0.1746252,0.089253 0.2871614,0.2483559 0.1164168,0.1552223 0.1164168,0.3919365 0,0.3725338 -0.228953,0.582084 Q 2.1575911,2.8687463 1.8083407,2.9269547 V 3.4547109 H 1.2650623 V 2.9308353 Q 0.94297586,2.8765074 0.69850059,2.6902406 0.45402531,2.5000931 0.36089187,2.1935289 L 0.85760354,1.910248 Q 0.94297586,2.0732315 1.0438704,2.1741261 1.144765,2.2711401 1.2844651,2.3138263 V 1.6929367 Q 1.0361093,1.6230866 0.8614841,1.5338337 0.68685891,1.4445808 0.57044211,1.2854779 0.45402531,1.1263749 0.45402531,0.88966077 q 0,-0.36089207 0.22895304,-0.57432287 Q 0.91193138,0.1019071 1.2650623,0.03593759 V -0.46077408 H 1.8083407 V 0.03205703 Q 2.114905,0.08638486 2.3322163,0.26101006 2.5495277,0.4317547 2.6154972,0.69563277 L 2.1071438,0.98279421 Q 2.0489354,0.86249685 1.9713242,0.78488565 1.893713,0.70339389 1.7889379,0.66458829 Z M 1.0516315,0.86249685 q 0,0.0582084 0.027164,0.10865568 0.031044,0.0465667 0.081492,0.0814918 0.050447,0.034925 0.1241779,0.06597 V 0.63354381 q -0.1086556,0.0271639 -0.1707446,0.0853723 -0.062089,0.0543278 -0.062089,0.14358074 z M 1.7889379,1.8559202 V 2.3293485 Q 1.8975936,2.3060655 1.955802,2.2517375 2.01401,2.1974095 2.01401,2.1120373 2.01401,2.0538293 1.986846,2.0072622 1.959682,1.9568152 1.909235,1.9218902 1.858788,1.8830842 1.7889379,1.8559202 Z"
       id="path2" />
    <path
       d="m 1.6453572,4.6732066 h 0.644173 V 5.2746934 H 2.669825 V 5.8412551 H 2.2895302 V 6.3961752 H 1.6453572 V 5.8412551 H 0.44626419 V 5.3872296 L 1.3853597,3.5517248 H 2.0722188 L 1.1835706,5.2746934 h 0.4617866 z"
       id="path3" />
  </g>
</svg>
