<?xml version="1.0" encoding="UTF-8" standalone="no"?>
<!-- Created with Inkscape (http://www.inkscape.org/) -->

<svg
   width="2.6645298mm"
   height="6.8569489mm"
   viewBox="0 0 2.6645299 6.8569482"
   version="1.1"
   id="svg1"
   xmlns="http://www.w3.org/2000/svg"
   xmlns:svg="http://www.w3.org/2000/svg">
  <defs
     id="defs1" />
  <g
     id="text1"
     style="font-weight:900;font-size:3.88056px;line-height:0.9;font-family:'HarmonyOS Sans';-inkscape-font-specification:'HarmonyOS Sans Heavy';text-align:center;letter-spacing:0px;word-spacing:0px;text-anchor:middle;stroke-width:0.264583"
     aria-label="$&#10;4"
     transform="translate(-0.14711015,0.46077401)">
    <path
       d="m 1.6453572,4.6732066 h 0.644173 V 5.2746934 H 2.669825 V 5.8412551 H 2.2895302 V 6.3961752 H 1.6453572 V 5.8412551 H 0.44626419 V 5.3872296 L 1.3853597,3.5517248 H 2.0722188 L 1.1835706,5.2746934 h 0.4617866 z"
       id="path3" />
  </g>
  <path
     d="M 1.6876885,0.95047987 V 1.675085 c 0.1926167,0.055033 0.3577166,0.1177102 0.4952999,0.1880305 0.1375833,0.07032 0.2507074,0.1681573 0.3393721,0.293511 0.091722,0.1222963 0.1375833,0.2766953 0.1375833,0.4631972 0,0.293511 -0.090193,0.5228165 -0.2705804,0.6879165 C 2.2120338,3.4728401 1.9857857,3.5783207 1.7106191,3.6241818 v 0.291303 H 1.0685636 V 3.6287679 C 0.8147989,3.5859642 0.5916082,3.4911846 0.3989916,3.3444291 0.2063749,3.1946162 0.0733777,2.9989421 0,2.757407 L 0.5870221,2.4226209 c 0.067263,0.1284111 0.1406407,0.232363 0.2201333,0.3118555 0.079492,0.076435 0.1742721,0.1314685 0.2843388,0.1651 V 2.1657988 C 0.8958202,2.1107658 0.7291915,2.0480886 0.5916082,1.9777682 0.4540249,1.9074482 0.3393721,1.8096109 0.2476499,1.6842572 0.1559277,1.5589035 0.1100666,1.4029758 0.1100666,1.216474 c 0,-0.28433858 0.090194,-0.51058669 0.2705805,-0.67874406 C 0.5610341,0.36957257 0.7903396,0.25950593 1.0685636,0.20753001 V 0 H 1.7106191 V 0.2029439 C 1.9521542,0.2457476 2.1585292,0.33594113 2.3297439,0.4735244 2.5009587,0.6080503 2.612554,0.77926509 2.66453,0.98716865 L 2.0637495,1.3265406 C 2.0178885,1.231761 1.9643835,1.1537971 1.9032357,1.092649 1.8420877,1.0284435 1.7702385,0.98105385 1.6876885,0.95047987 Z M 0.8163276,1.1843712 c 0,0.045861 0.010701,0.088665 0.032103,0.1284111 0.024459,0.036689 0.056562,0.068791 0.096308,0.096308 0.039746,0.027517 0.088664,0.053505 0.1467555,0.077964 V 0.91379097 c -0.085607,0.0214019 -0.1528703,0.0550333 -0.2017888,0.10089413 -0.048919,0.042804 -0.073378,0.099366 -0.0733777,0.1696861 z m 0.8713609,1.1740442 v 0.5595054 c 0.085607,-0.018345 0.1513416,-0.048919 0.1972027,-0.091722 0.045861,-0.042803 0.068792,-0.097837 0.068792,-0.1650999 0,-0.045861 -0.010701,-0.087136 -0.032103,-0.123825 -0.021402,-0.039746 -0.051976,-0.073378 -0.091722,-0.1008944 -0.039746,-0.030574 -0.087136,-0.056562 -0.1421697,-0.077964 z"
     id="text2"
     style="font-weight:900;font-size:4.58611px;line-height:0.9;font-family:'HarmonyOS Sans';-inkscape-font-specification:'HarmonyOS Sans Heavy';text-align:center;letter-spacing:0px;word-spacing:0px;text-anchor:middle;stroke-width:0.264583"
     aria-label="$" />
</svg>
