<?xml version="1.0" encoding="UTF-8" standalone="no"?>
<!-- Created with Inkscape (http://www.inkscape.org/) -->

<svg
   width="3.3566842mm"
   height="6.437849mm"
   viewBox="0 0 3.3566843 6.4378485"
   version="1.1"
   id="svg1"
   xmlns="http://www.w3.org/2000/svg"
   xmlns:svg="http://www.w3.org/2000/svg">
  <defs
     id="defs1" />
  <g
     id="text5"
     style="font-weight:900;font-size:3.88056px;line-height:0.9;font-family:'HarmonyOS Sans';-inkscape-font-specification:'HarmonyOS Sans Heavy';text-align:center;letter-spacing:0px;word-spacing:0px;text-anchor:middle;stroke-width:0.264583"
     aria-label="%&#10;5"
     transform="translate(0.63641117,-0.42880191)">
    <path
       d="m 0.81491824,1.1622277 q 0,0.2173114 -0.10089455,0.3841754 -0.097014,0.1668641 -0.26387808,0.256117 -0.16298352,0.089253 -0.36089207,0.089253 -0.194028,0 -0.36089207,-0.089253 -0.16298352,-0.089253 -0.26387808,-0.256117 -0.10089456,-0.166864 -0.10089456,-0.3841754 0,-0.21731135 0.10089456,-0.38417543 0.10089456,-0.16686408 0.26775864,-0.25611696 0.16686407,-0.0931334 0.35701151,-0.0931334 0.19790855,0 0.36089207,0.0892529 0.16686408,0.0892529 0.26387808,0.25999752 0.10089455,0.16686408 0.10089455,0.38417537 z m -0.49283111,-0.00388 q 0,-0.1164168 -0.0659695,-0.18626683 -0.0659695,-0.0737306 -0.16686407,-0.0737306 -0.097014,0 -0.16298352,0.0737306 -0.06208896,0.06985 -0.06208896,0.18626683 0,0.1202974 0.06208896,0.1901475 0.06596952,0.06985 0.16298352,0.06985 0.10089456,0 0.16686407,-0.06985 0.0659695,-0.06985 0.0659695,-0.1901475 z M 2.7202732,2.6446016 q 0,0.2173113 -0.1008946,0.3841754 -0.097014,0.1668641 -0.2638781,0.256117 -0.166864,0.089253 -0.360892,0.089253 -0.194028,0 -0.3608921,-0.089253 Q 1.4668523,3.1956411 1.3659578,3.028777 1.2650632,2.8619129 1.2650632,2.6446016 q 0,-0.2211919 0.1008946,-0.3841754 0.1008945,-0.1668641 0.2677586,-0.256117 0.1707446,-0.093133 0.3608921,-0.093133 0.194028,0 0.360892,0.089253 0.1668641,0.089253 0.2638781,0.256117 0.1008946,0.1668641 0.1008946,0.3880554 z M 2.2274421,2.640721 q 0,-0.1202973 -0.06985,-0.1901474 -0.06597,-0.06985 -0.1629835,-0.06985 -0.097014,0 -0.1629836,0.06985 -0.06597,0.06985 -0.06597,0.1901474 0,0.1164168 0.06597,0.1901475 0.06597,0.06985 0.1629836,0.06985 0.097014,0 0.1629835,-0.06985 0.06985,-0.073731 0.06985,-0.1901475 z M -0.12417726,3.3236996 1.5716274,0.48312971 H 2.2080393 L 0.51223457,3.3236996 Z"
       id="path6" />
    <path
       d="m 1.1467048,4.9535347 q 0.2444753,0 0.4462644,0.1164167 0.2056697,0.1125363 0.325967,0.3259671 0.124178,0.2095502 0.124178,0.4928311 0,0.3026837 -0.1358196,0.5277561 -0.1358196,0.221192 -0.3686532,0.3337282 -0.2328336,0.1164168 -0.5122339,0.1164168 -0.33760876,0 -0.57820347,-0.1552224 Q 0.20760931,6.5600865 0.1028342,6.2535222 L 0.63059034,5.9430774 q 0.0465667,0.1707447 0.14358072,0.256117 0.10089456,0.081492 0.24059474,0.081492 0.1047751,0 0.1785057,-0.050447 0.077611,-0.050447 0.1125363,-0.1358196 0.034925,-0.085372 0.034925,-0.1862669 0,-0.1086557 -0.038806,-0.194028 -0.038806,-0.085372 -0.1202973,-0.1358196 -0.077611,-0.050447 -0.19014748,-0.050447 -0.22895304,0 -0.3492504,0.2250725 L 0.15716203,5.5200964 0.34730947,3.971753 H 1.9072946 V 4.5305536 H 0.89834898 l -0.062089,0.4734283 Q 0.90999058,4.9806989 0.98760182,4.9690569 1.065213,4.9535349 1.1467048,4.9535347 Z"
       id="path7" />
  </g>
</svg>
