<?xml version="1.0" encoding="UTF-8" standalone="no"?>
<!-- Created with Inkscape (http://www.inkscape.org/) -->

<svg
   width="2.0838609mm"
   height="6.3835211mm"
   viewBox="0 0 2.0838609 6.3835205"
   version="1.1"
   id="svg1"
   xmlns="http://www.w3.org/2000/svg"
   xmlns:svg="http://www.w3.org/2000/svg">
  <defs
     id="defs1" />
  <g
     id="text3"
     style="font-weight:900;font-size:3.88056px;line-height:0.9;font-family:'HarmonyOS Sans';-inkscape-font-specification:'HarmonyOS Sans Heavy';text-align:center;letter-spacing:0px;word-spacing:0px;text-anchor:middle;stroke-width:0.264583"
     aria-label="^&#10;6"
     transform="translate(-0.10184924,-1.3458864)">
    <path
       d="M 1.1224382,2.0055816 0.71497936,2.9679605 H 0.12901482 L 0.8275156,1.3458864 h 0.5898451 l 0.6985008,1.6220741 h -0.582084 z"
       id="path4" />
    <path
       d="m 1.2660172,5.8512164 q 0.2716392,0 0.4773089,0.1125363 0.2095502,0.1086556 0.325967,0.3182059 0.1164168,0.2056696 0.1164168,0.4811894 0,0.2794003 -0.1435807,0.5005922 -0.1435807,0.2211919 -0.3841754,0.3414893 -0.2367142,0.1241779 -0.5161145,0.1241779 -0.28328088,0 -0.51999503,-0.1280585 Q 0.38513011,7.477171 0.2415494,7.2520986 0.10184924,7.0231455 0.10184924,6.7243424 q 0,-0.2250725 0.0814918,-0.4307421 0.0853723,-0.2056697 0.31044479,-0.5549201 L 1.0719892,4.8345097 H 1.7821317 L 1.2466144,5.6455467 Q 1.1457199,5.7891275 1.1379587,5.8007691 l -0.054328,0.06985 q 0.093133,-0.019403 0.1823865,-0.019403 z M 1.1379587,7.1395623 q 0.1008946,0 0.1785058,-0.046567 0.081492,-0.050447 0.1241779,-0.1358196 0.042686,-0.085372 0.042686,-0.194028 0,-0.1086557 -0.042686,-0.1901474 -0.042686,-0.085372 -0.1241779,-0.1280585 -0.077611,-0.046567 -0.1785058,-0.046567 -0.1008945,0 -0.18238628,0.046567 -0.0776112,0.042686 -0.12417792,0.1280585 -0.0426862,0.085372 -0.0426862,0.194028 0,0.1086556 0.0426862,0.194028 0.0465667,0.085372 0.12417792,0.131939 0.0814918,0.046567 0.18238628,0.046567 z"
       id="path5" />
  </g>
</svg>
