<?xml version="1.0" encoding="UTF-8" standalone="no"?>
<!-- Created with Inkscape (http://www.inkscape.org/) -->

<svg
   width="3.0113144mm"
   height="6.499938mm"
   viewBox="0 0 3.0113145 6.4999384"
   version="1.1"
   id="svg1"
   xmlns="http://www.w3.org/2000/svg"
   xmlns:svg="http://www.w3.org/2000/svg">
  <defs
     id="defs1" />
  <g
     id="text1"
     style="font-weight:900;font-size:3.88056px;line-height:0.9;font-family:'HarmonyOS Sans';-inkscape-font-specification:'HarmonyOS Sans Heavy';text-align:center;letter-spacing:0.0608542px;text-anchor:middle;stroke-width:0.264583"
     aria-label="~&#10;`"
     transform="translate(2.3917574,0.93575999)">
    <g
       id="text4"
       style="stroke-width:0.0700042"
       aria-label="_&#10;-">
      <g
         id="text6"
         style="font-size:3.88056px;stroke-width:0.0185219"
         aria-label="&amp;&#10;7">
        <path
           d="m -0.04401869,1.3925762 0.66357575,0.679098 h -0.77223142 l -0.2716392,-0.2755197 q -0.20178911,0.1552224 -0.44626439,0.2405947 -0.24059475,0.085372 -0.51611445,0.085372 -0.3026837,0 -0.5316367,-0.1008946 -0.2250725,-0.097014 -0.3492504,-0.2832808 -0.1241779,-0.1862669 -0.1241779,-0.4462644 0,-0.2211919 0.081492,-0.38417546 0.085372,-0.16686408 0.2250725,-0.27940032 0.1397002,-0.1164168 0.325967,-0.20955023 -0.1435807,-0.17074464 -0.2017891,-0.30268368 -0.054328,-0.13193904 -0.054328,-0.27551975 0,-0.24447528 0.1202973,-0.41910047 0.1241779,-0.1746252 0.3298476,-0.26387808 0.2095503,-0.0931334 0.4617867,-0.0931334 0.25611691,0 0.44626435,0.097014 0.19402799,0.0931334 0.29492255,0.25611696 0.10089456,0.15910295 0.10089456,0.36477263 0,0.17462519 -0.0776112,0.31044479 -0.0776112,0.1358196 -0.20178912,0.23671416 -0.12029735,0.097014 -0.29880311,0.19014743 -0.007761,0.003881 -0.0194028,0.0116417 -0.0116417,0.003881 -0.0194028,0.007761 L -0.4592386,0.96959519 Q -0.33506068,0.72123936 -0.28849396,0.38751121 H 0.34403731 Q 0.30135115,0.6591504 0.20433715,0.91914791 0.10732315,1.1752649 -0.04401869,1.3925762 Z M -1.3866924,-0.15188662 q 0,0.06985008 0.031045,0.14358071 0.034925,0.07373064 0.1358196,0.19014744 0.00776,-0.003881 0.011642,-0.003881 0.00776,-0.003881 0.015522,-0.007761 0.093133,-0.0543278 0.1591029,-0.10089456 0.0698501,-0.05044728 0.10865571,-0.11253624 0.0388056,-0.06208895 0.0388056,-0.13581959 0,-0.10477512 -0.0698501,-0.16686408 -0.06985,-0.062089 -0.17462521,-0.062089 -0.1125362,0 -0.1862668,0.0659695 -0.06985,0.0659695 -0.069851,0.19014782 z m 0.073731,1.72296862 q 0.1319391,0 0.256117,-0.042686 0.12805845,-0.046567 0.24447525,-0.131939 L -1.4060952,0.79108944 q -0.1047751,0.062089 -0.1785058,0.12417791 -0.073731,0.062089 -0.1164168,0.13970015 -0.042686,0.077611 -0.042686,0.1746252 0,0.159103 0.1164168,0.2522364 0.1164168,0.089253 0.3143256,0.089253 z"
           id="path7" />
        <path
           d="M -1.6511886,5.564178 -0.72761535,3.2979311 H -1.9538723 V 2.7197276 H 0.01357159 V 3.1349475 L -0.93328503,5.564178 Z"
           id="path8" />
      </g>
    </g>
  </g>
</svg>
