<?xml version="1.0" encoding="UTF-8" standalone="no"?>
<!-- Created with Inkscape (http://www.inkscape.org/) -->

<svg
   width="2.0140109mm"
   height="5.15171mm"
   viewBox="0 0 2.0140109 5.1517099"
   version="1.1"
   id="svg1"
   xmlns="http://www.w3.org/2000/svg"
   xmlns:svg="http://www.w3.org/2000/svg">
  <defs
     id="defs1" />
  <g
     id="layer1"
     transform="translate(-66.770613,-145.59846)">
    <text
       xml:space="preserve"
       style="font-style:normal;font-variant:normal;font-weight:bold;font-stretch:normal;font-size:3.52777px;line-height:0.9;font-family:'HarmonyOS Sans';-inkscape-font-specification:'HarmonyOS Sans Bold';text-align:center;text-decoration-color:#000000;letter-spacing:0.079375px;writing-mode:lr-tb;direction:ltr;text-anchor:middle;fill:#000000;stroke-width:0.264583"
       x="68.657768"
       y="148.46114"
       id="text1"><tspan
         id="tspan1"
         style="stroke-width:0.264583"
         x="68.657768"
         y="148.46114" /></text>
    <g
       id="text2"
       style="font-weight:bold;font-size:3.88056px;line-height:0.9;font-family:'Liberation Serif';-inkscape-font-specification:'Liberation Serif Bold';text-align:center;letter-spacing:0.079375px;text-anchor:middle;stroke-width:0.264583"
       aria-label="&#10;*&#10;8">
      <path
         style="font-family:'HarmonyOS Sans';-inkscape-font-specification:'HarmonyOS Sans Bold'"
         d="m 67.941659,145.59846 -0.05045,0.51612 0.426862,-0.29881 0.201789,0.34925 -0.477309,0.22119 0.477309,0.21732 -0.201789,0.34925 -0.426862,-0.30269 0.05045,0.52 h -0.403578 l 0.04269,-0.51612 -0.422981,0.29881 -0.201789,-0.34925 0.469548,-0.21732 -0.469548,-0.22119 0.201789,-0.34925 0.422981,0.29881 -0.04269,-0.51612 z"
         id="path4" />
      <path
         style="font-family:'HarmonyOS Sans';-inkscape-font-specification:'HarmonyOS Sans Bold'"
         d="m 68.326718,149.15914 q 0.213431,0.10478 0.333728,0.29105 0.124178,0.18238 0.124178,0.4385 0,0.25223 -0.124178,0.45014 -0.120297,0.19403 -0.34925,0.30269 -0.225073,0.10865 -0.523876,0.10865 -0.310445,0 -0.539398,-0.10865 -0.225072,-0.10866 -0.353131,-0.30657 -0.124178,-0.19791 -0.124178,-0.44626 0,-0.25612 0.124178,-0.4385 0.124178,-0.18627 0.34149,-0.28717 -0.174626,-0.0931 -0.27164,-0.24059 -0.09701,-0.15134 -0.09701,-0.34537 0,-0.20955 0.108656,-0.38418 0.112536,-0.1785 0.318206,-0.2794 0.20955,-0.10477 0.492831,-0.10477 0.283281,0 0.48119,0.10477 0.197908,0.1009 0.302683,0.27552 0.104775,0.17075 0.104775,0.38806 0,0.19403 -0.09313,0.34537 -0.09313,0.14746 -0.256117,0.23671 z m -0.539398,-0.88088 q -0.100894,0 -0.178506,0.0427 -0.07373,0.0427 -0.116416,0.1203 -0.03881,0.0737 -0.03881,0.16298 0,0.14358 0.08925,0.23672 0.08925,0.0892 0.244475,0.0892 0.147461,0 0.240595,-0.0931 0.09313,-0.0931 0.09313,-0.23284 0,-0.0892 -0.04269,-0.16298 -0.04269,-0.0737 -0.120297,-0.11642 -0.07373,-0.0466 -0.170745,-0.0466 z m 0,1.97132 q 0.116417,0 0.20567,-0.0504 0.09313,-0.0504 0.143581,-0.14358 0.05433,-0.0931 0.05433,-0.21731 0,-0.12806 -0.05045,-0.22507 -0.04657,-0.097 -0.1397,-0.14746 -0.08925,-0.0543 -0.213431,-0.0543 -0.124178,0 -0.221192,0.0543 -0.09313,0.0504 -0.14358,0.14746 -0.05045,0.097 -0.05045,0.22507 0,0.12806 0.05045,0.22119 0.05433,0.0893 0.147461,0.1397 0.09701,0.0504 0.217311,0.0504 z"
         id="path5" />
    </g>
  </g>
</svg>
