<?xml version="1.0" encoding="UTF-8" standalone="no"?>
<!-- Created with Inkscape (http://www.inkscape.org/) -->

<svg
   width="2.0916219mm"
   height="5.2236142mm"
   viewBox="0 0 2.0916219 5.2236141"
   version="1.1"
   id="svg1"
   xmlns="http://www.w3.org/2000/svg"
   xmlns:svg="http://www.w3.org/2000/svg">
  <defs
     id="defs1" />
  <g
     id="text3"
     style="font-weight:900;font-size:3.88056px;line-height:0.9;font-family:'HarmonyOS Sans';-inkscape-font-specification:'HarmonyOS Sans Heavy';text-align:center;letter-spacing:0.079375px;text-anchor:middle;stroke-width:0.264583"
     aria-label="*&#10;8"
     transform="translate(-1.8575923,-1.4138075)">
    <path
       style="font-size:4.23333px"
       d="M 3.1115405,1.4138075 3.0565072,1.9641404 3.5094735,1.6424073 3.7550066,2.0699737 3.2427737,2.3028068 3.7550066,2.5314067 3.5094735,2.958973 3.0522739,2.6330066 3.1115405,3.1875728 H 2.6162409 L 2.6670409,2.6372399 2.2183079,2.958973 1.9685415,2.5314067 2.4723077,2.3028068 1.9685415,2.0699737 2.2183079,1.6424073 l 0.448733,0.3217331 -0.0508,-0.5503329 z"
       id="path3" />
    <path
       d="m 3.4951886,5.0425114 q 0.2134308,0.1047752 0.3337281,0.2871615 0.1202974,0.1823863 0.1202974,0.4385032 0,0.256117 -0.1280585,0.4540256 -0.1241779,0.1979085 -0.3608921,0.3065642 -0.2328336,0.1086557 -0.5471589,0.1086557 -0.3220865,0 -0.5626812,-0.1125363 Q 2.1137092,6.4162297 1.9856507,6.2183211 1.8575923,6.0204125 1.8575923,5.7681761 q 0,-0.2561169 0.1202973,-0.4385032 Q 2.1020675,5.1472866 2.3154983,5.046392 2.1447537,4.9571391 2.0477397,4.8096778 1.9546063,4.6622166 1.9546063,4.4681886 q 0,-0.2134308 0.1125362,-0.388056 Q 2.1796787,3.9016268 2.3931095,3.7968517 2.6104209,3.688196 2.9131046,3.688196 q 0.3026836,0 0.5083533,0.1047751 0.2095503,0.1047752 0.3104448,0.2794004 0.1047751,0.1746252 0.1047751,0.3958171 0,0.194028 -0.089253,0.3414892 -0.089253,0.1435808 -0.2522362,0.2328336 z M 2.9131046,4.235355 q -0.081492,0 -0.1435808,0.038806 -0.062089,0.034925 -0.097014,0.097014 -0.031045,0.062089 -0.031045,0.1358196 0,0.1164168 0.073731,0.194028 0.073731,0.073731 0.1979086,0.073731 0.1202973,0 0.1979085,-0.073731 0.077611,-0.077611 0.077611,-0.194028 0,-0.073731 -0.034925,-0.1319391 Q 3.1187742,4.3129662 3.0528047,4.2741606 2.9907158,4.235355 2.9131046,4.235355 Z m 0,1.816102 q 0.097014,0 0.1707446,-0.042686 0.077611,-0.046567 0.1202974,-0.124178 0.046567,-0.081492 0.046567,-0.1901474 0,-0.1086557 -0.042686,-0.1862669 -0.042686,-0.081492 -0.1202973,-0.1280584 -0.073731,-0.046567 -0.1746252,-0.046567 -0.1008946,0 -0.1823863,0.046567 -0.081492,0.042686 -0.1280585,0.1241779 -0.042686,0.081492 -0.042686,0.1901474 0,0.1086557 0.046567,0.1901474 0.046567,0.077611 0.124178,0.124178 0.081492,0.042686 0.1823863,0.042686 z"
       id="path4" />
  </g>
</svg>
