<?xml version="1.0" encoding="UTF-8" standalone="no"?>
<!-- Created with Inkscape (http://www.inkscape.org/) -->

<svg
   width="2.2690647mm"
   height="7.2559276mm"
   viewBox="0 0 2.2690647 7.2559274"
   version="1.1"
   id="svg1"
   xmlns="http://www.w3.org/2000/svg"
   xmlns:svg="http://www.w3.org/2000/svg">
  <defs
     id="defs1" />
  <g
     id="text3"
     style="font-weight:900;font-size:3.88056px;line-height:0.9;font-family:'HarmonyOS Sans';-inkscape-font-specification:'HarmonyOS Sans Heavy';text-align:center;letter-spacing:0.079375px;text-anchor:middle;stroke-width:0.264583"
     aria-label="*&#10;8"
     transform="translate(-1.5959082,1.041327)">
    <g
       id="text4"
       style="font-size:4.23333px;stroke-width:0.0700042"
       aria-label="(&#10;9">
      <path
         d="m 2.0832729,0.91870468 q 0,-0.5968995 0.1989665,-1.10066574 Q 2.4812059,-0.68996064 2.8283389,-1.041327 H 3.5056717 Q 3.1543053,-0.6137607 2.9722721,-0.15656108 2.7944723,0.2964052 2.7944723,0.91870468 q 0,0.62653282 0.1777998,1.08373242 0.1820332,0.4571996 0.5333996,0.8762993 H 2.8283389 Q 2.4812059,2.52737 2.2822394,2.0236037 2.0832729,1.5198375 2.0832729,0.91870468 Z"
         id="path5" />
      <path
         d="m 2.7304405,3.0565361 q 0.3132664,0 0.5714996,0.1396999 0.2582331,0.1354665 0.4106329,0.385233 0.1523999,0.2455331 0.1523999,0.5714995 0,0.2455332 -0.0889,0.4698996 -0.0889,0.2243665 -0.3386664,0.6053662 L 2.8066405,6.2146001 H 2.0319411 L 2.620374,5.3298342 Q 2.7304405,5.173201 2.7389072,5.160501 l 0.055033,-0.0762 Q 2.6923403,5.105468 2.5949737,5.105468 2.3028739,5.105468 2.0742741,4.9869348 1.8499079,4.8641679 1.7229081,4.6398014 1.5959082,4.4112016 1.5959082,4.1106352 q 0,-0.3047997 0.1523998,-0.5460995 Q 1.9049412,3.3232359 2.1674077,3.1920027 2.4298741,3.0565361 2.7304405,3.0565361 Z m 0.00847,1.4520321 q 0.1100666,0 0.1947332,-0.046567 0.0889,-0.0508 0.1354665,-0.1439332 0.046567,-0.093133 0.046567,-0.2116665 0,-0.1185332 -0.0508,-0.2116665 -0.046567,-0.093133 -0.1354666,-0.1439332 -0.084667,-0.0508 -0.1904998,-0.0508 -0.1100666,0 -0.1989665,0.055033 -0.084667,0.0508 -0.1354666,0.1439332 -0.046567,0.093133 -0.046567,0.2116665 0,0.1185333 0.046567,0.2116665 0.0508,0.0889 0.1354666,0.1396999 0.0889,0.046567 0.1989662,0.046567 z"
         id="path6" />
    </g>
  </g>
</svg>
