<?xml version="1.0" encoding="UTF-8" standalone="no"?>
<!-- Created with Inkscape (http://www.inkscape.org/) -->

<svg
   width="2.20416mm"
   height="2.84057mm"
   viewBox="0 0 2.20416 2.84057"
   version="1.1"
   id="svg1"
   xmlns="http://www.w3.org/2000/svg"
   xmlns:svg="http://www.w3.org/2000/svg">
  <defs
     id="defs1" />
  <g
     id="layer1"
     transform="translate(-109.75037,-122.18749)">
    <path
       d="m 111.48498,123.55344 q 0.23283,0.0854 0.34925,0.24836 0.1203,0.16298 0.1203,0.40746 0,0.38417 -0.28328,0.60149 -0.2794,0.21731 -0.78776,0.21731 h -1.13312 v -2.84057 h 1.02835 q 0.2988,0 0.52775,0.0931 0.23284,0.0893 0.36478,0.26776 0.13194,0.17851 0.13194,0.43074 0,0.19791 -0.0815,0.34149 -0.0815,0.14358 -0.23671,0.23283 z m -0.76059,-0.877 h -0.42298 v 0.67133 h 0.42298 q 0.22895,0 0.36089,-0.0931 0.13582,-0.0931 0.13582,-0.25612 0,-0.10089 -0.0582,-0.17462 -0.0582,-0.0737 -0.17074,-0.10866 -0.11254,-0.0388 -0.26776,-0.0388 z m -0.42298,1.86267 h 0.53552 q 0.25611,0 0.39193,-0.0931 0.1397,-0.0931 0.1397,-0.26387 0,-0.17075 -0.1397,-0.26776 -0.13582,-0.097 -0.39581,-0.097 h -0.53164 z"
       id="text1"
       style="font-weight:bold;font-size:3.88056px;line-height:0.9;font-family:'HarmonyOS Sans';-inkscape-font-specification:'HarmonyOS Sans Bold';text-align:center;letter-spacing:0.079375px;text-anchor:middle;stroke-width:0.264583"
       aria-label="B" />
    <path
       d="m 111.48498,123.55344 q 0.23283,0.0854 0.34925,0.24836 0.1203,0.16298 0.1203,0.40746 0,0.38417 -0.28328,0.60149 -0.2794,0.21731 -0.78776,0.21731 h -1.13312 v -2.84057 h 1.02835 q 0.2988,0 0.52775,0.0931 0.23284,0.0893 0.36478,0.26776 0.13194,0.17851 0.13194,0.43074 0,0.19791 -0.0815,0.34149 -0.0815,0.14358 -0.23671,0.23283 z m -0.76059,-0.877 h -0.42298 v 0.67133 h 0.42298 q 0.22895,0 0.36089,-0.0931 0.13582,-0.0931 0.13582,-0.25612 0,-0.10089 -0.0582,-0.17462 -0.0582,-0.0737 -0.17074,-0.10866 -0.11254,-0.0388 -0.26776,-0.0388 z m -0.42298,1.86267 h 0.53552 q 0.25611,0 0.39193,-0.0931 0.1397,-0.0931 0.1397,-0.26387 0,-0.17075 -0.1397,-0.26776 -0.13582,-0.097 -0.39581,-0.097 h -0.53164 z"
       id="path1"
       style="font-weight:bold;font-size:3.88056px;line-height:0.9;font-family:'HarmonyOS Sans';-inkscape-font-specification:'HarmonyOS Sans Bold';text-align:center;letter-spacing:0.079375px;text-anchor:middle;stroke-width:0.264583"
       aria-label="B" />
  </g>
</svg>
