<?xml version="1.0" encoding="UTF-8" standalone="no"?>
<!-- Created with Inkscape (http://www.inkscape.org/) -->

<svg
   width="2.2778888mm"
   height="2.84057mm"
   viewBox="0 0 2.2778888 2.84057"
   version="1.1"
   id="svg1"
   xmlns="http://www.w3.org/2000/svg"
   xmlns:svg="http://www.w3.org/2000/svg">
  <defs
     id="defs1" />
  <path
     d="m 1.8355048,1.3698377 q 0.2173114,0.089253 0.3298476,0.2522364 0.1125363,0.1591029 0.1125363,0.3919365 0,0.388056 -0.291042,0.6092479 -0.291042,0.2173114 -0.7993954,0.2173114 H 0 V 0 h 1.0904373 q 0.2988031,0 0.5355173,0.08925288 0.2367141,0.08925288 0.3725337,0.2716392 0.1397002,0.17850575 0.1397002,0.44238383 0,0.19402799 -0.081492,0.33760869 -0.077611,0.1397002 -0.2211917,0.2289531 z M 1.0361095,0.57044231 H 0.6480535 V 1.129243 h 0.388056 q 0.1901474,0 0.3026837,-0.081492 0.1125362,-0.0814918 0.1125362,-0.21731137 0,-0.0853723 -0.050447,-0.14358072 Q 1.3543154,0.62865071 1.261182,0.60148679 1.1680485,0.57044231 1.0361095,0.57044231 Z M 0.6480535,2.266247 h 0.5005922 q 0.2095503,0 0.3259671,-0.073731 0.1164168,-0.077611 0.1164168,-0.2173114 0,-0.1397001 -0.1202974,-0.2173113 -0.1164168,-0.081492 -0.325967,-0.081492 H 0.6480535 Z"
     id="text2"
     style="font-weight:900;font-size:3.88056px;line-height:0.9;font-family:'HarmonyOS Sans';-inkscape-font-specification:'HarmonyOS Sans Heavy';text-align:center;letter-spacing:0px;text-anchor:middle;stroke-width:0.264583"
     aria-label="B" />
</svg>
