<?xml version="1.0" encoding="UTF-8" standalone="no"?>
<!-- Created with Inkscape (http://www.inkscape.org/) -->

<svg
   width="9.0339403mm"
   height="3.7951877mm"
   viewBox="0 0 9.0339403 3.795188"
   version="1.1"
   id="svg1"
   xmlns="http://www.w3.org/2000/svg"
   xmlns:svg="http://www.w3.org/2000/svg">
  <defs
     id="defs1" />
  <g
     id="text1"
     style="font-weight:900;font-size:3.88056px;line-height:0.9;font-family:'HarmonyOS Sans';-inkscape-font-specification:'HarmonyOS Sans Heavy';text-align:center;letter-spacing:0.0608542px;text-anchor:middle;stroke-width:0.264583"
     aria-label="~&#10;`"
     transform="translate(8.3802617,1.2562617)">
    <g
       id="text4"
       style="stroke-width:0.0700042"
       aria-label="_&#10;-">
      <path
         d="m -7.0026629,1.0798353 q 0.194028,0 0.3337282,-0.10477507 0.1397001,-0.10477512 0.2250724,-0.29880311 l 0.5549201,0.32596698 q -0.062089,0.1862669 -0.2134308,0.3414893 -0.1474613,0.1552224 -0.3764143,0.2483559 -0.228953,0.097014 -0.5083534,0.097014 -0.3841754,0 -0.7023813,-0.1823864 -0.3182059,-0.1823863 -0.5044728,-0.51611443 -0.1862669,-0.33760871 -0.1862669,-0.77611198 0,-0.43850328 0.1862669,-0.77223143 0.1862669,-0.33760871 0.5044728,-0.51611446 0.3182059,-0.1823863 0.7023813,-0.1823863 0.2794004,0 0.5083534,0.097014 0.228953,0.093133 0.3764143,0.24835581 0.1513418,0.1552224 0.2134308,0.34148927 l -0.5549201,0.32596703 q -0.085372,-0.19402799 -0.2250724,-0.29880311 -0.1397002,-0.10477512 -0.3337282,-0.10477512 -0.1862669,0 -0.3453698,0.10477512 -0.1552224,0.10089456 -0.2444753,0.29880311 -0.089253,0.194028 -0.089253,0.45790608 0,0.26387807 0.089253,0.46178663 0.089253,0.19790855 0.2444753,0.30268367 0.1591029,0.10089451 0.3453698,0.10089451 z m 2.2856485,-1.50177664 q 0.4346227,0 0.6713369,0.24447527 0.2367141,0.24059472 0.2367141,0.68297855 V 1.638636 h -0.5316367 q -0.015522,-0.1513419 -0.027164,-0.2173114 -0.089253,0.1358196 -0.2250725,0.2017891 -0.131939,0.06597 -0.3337281,0.06597 -0.2134308,0 -0.3919366,-0.077611 Q -5.4931264,1.5377414 -5.5979015,1.3980413 -5.698796,1.2544605 -5.698796,1.0604325 q 0,-0.28328083 0.2173113,-0.46178658 0.2173114,-0.18238632 0.5432784,-0.20566968 0.325967,-0.0271639 0.6325313,0.12417792 l -0.1280585,0.14358072 v -0.1164168 q 0.00388,-0.24835584 -0.089253,-0.35313095 -0.093133,-0.10865568 -0.2561169,-0.10865568 -0.1358196,0 -0.2328336,0.06596952 -0.097014,0.0659695 -0.1552224,0.18238631 L -5.6134237,0.07088977 q 0.1164168,-0.22507248 0.3453698,-0.35701151 0.2328336,-0.1358196 0.5510395,-0.1358196 z M -4.8179089,1.2195355 q 0.093133,0 0.1823863,-0.038806 0.089253,-0.038806 0.1435807,-0.1086557 0.058208,-0.06985 0.058208,-0.16686405 v -0.0504473 q -0.1862669,-0.0465667 -0.3298476,-0.0388056 -0.1435807,0.007761 -0.2250725,0.0659695 -0.077611,0.0582084 -0.077611,0.14746135 0,0.085372 0.06985,0.1397001 0.06985,0.050447 0.1785061,0.050448 z m 2.6620658,-1.64147684 q 0.2483558,0 0.4540255,0.12417792 0.2095502,0.12417791 0.3298476,0.36477263 0.1241779,0.23671415 0.1241779,0.56656175 0,0.32596703 -0.1241779,0.56656174 -0.1202974,0.2405947 -0.3298476,0.3647726 -0.2056697,0.124178 -0.4540255,0.124178 -0.1862669,0 -0.3376087,-0.06985 -0.1474613,-0.06597 -0.256117,-0.2056697 V 2.538926 h -0.6325313 v -2.9065394 h 0.5626812 q 0,0.0271639 0,0.0582084 0.00388,0.0271639 0.00776,0.0543278 0.00388,0.0465667 0.00776,0.0892529 0.00388,0.0426862 0.011642,0.08149176 0.1047752,-0.17074463 0.2677587,-0.25223639 0.1668641,-0.0853723 0.3686532,-0.0853723 z M -2.3188266,1.1341632 q 0.1202973,0 0.2134307,-0.058208 0.097014,-0.062089 0.1513419,-0.17462521 0.054328,-0.11253624 0.054328,-0.26775863 0,-0.15910296 -0.054328,-0.27551976 -0.054328,-0.12029735 -0.1513419,-0.18238631 -0.093133,-0.0659695 -0.2134307,-0.0659695 -0.1164168,0 -0.2173114,0.0582084 -0.097014,0.0582084 -0.1552224,0.17850575 -0.058208,0.1164168 -0.058208,0.28716144 0,0.17074463 0.058208,0.28328087 0.058208,0.10865565 0.1552224,0.16298345 0.097014,0.054328 0.2173114,0.054327 z M 0.65368017,1.0332686 q 0,0.2056697 -0.11253623,0.3570115 -0.11253624,0.1474613 -0.3104448,0.221192 -0.19402799,0.077611 -0.44238383,0.077611 -0.32596703,0 -0.56656175,-0.1397002 -0.24059476,-0.1397 -0.32984756,-0.3841752 l 0.45790604,-0.26775867 q 0.0504473,0.13581957 0.17074464,0.21343077 0.12029735,0.073731 0.27163919,0.073731 0.097014,0 0.1552224,-0.031044 0.0582084,-0.034925 0.0582084,-0.097014 0,-0.054328 -0.04656672,-0.0892529 Q -0.08362621,0.9284943 -0.15347629,0.9052109 -0.21944579,0.878047 -0.35138485,0.8392414 -0.55317396,0.781033 -0.68899356,0.72282461 -0.8209326,0.66461621 -0.92182715,0.55207997 -1.0188411,0.43566317 -1.0188411,0.25327685 q 0,-0.20955023 0.11641679,-0.36089207 0.1164168,-0.15522239 0.3104448,-0.23283359 0.19790855,-0.0814918 0.42298103,-0.0814918 0.31820591,0 0.53551727,0.13970016 0.21731135,0.13581959 0.27551975,0.35313095 L 0.18413242,0.32700672 Q 0.12980458,0.21058993 0.04443227,0.14850097 -0.04094005,0.08253145 -0.17287909,0.08253145 q -0.0931334,0 -0.14746128,0.0388056 -0.0504473,0.034925 -0.0504473,0.0931334 0,0.0504473 0.0426862,0.0892529 0.0426862,0.034925 0.10865568,0.0582084 0.0698501,0.0232834 0.19014744,0.0582084 0.20566967,0.0543278 0.34148927,0.1164168 0.13970016,0.0582084 0.24059472,0.18238632 0.10089455,0.12029735 0.10089453,0.31432533 z"
         id="text8"
         style="font-size:3.88056px;letter-spacing:0px;stroke-width:0.0185219"
         aria-label="Caps" />
    </g>
  </g>
</svg>
