<?xml version="1.0" encoding="UTF-8" standalone="no"?>
<!-- Created with Inkscape (http://www.inkscape.org/) -->

<svg
   width="2.0489359mm"
   height="4.0205708mm"
   viewBox="0 0 2.048936 4.0205708"
   version="1.1"
   id="svg1"
   xmlns="http://www.w3.org/2000/svg"
   xmlns:svg="http://www.w3.org/2000/svg">
  <defs
     id="defs1" />
  <g
     id="text1"
     style="font-weight:900;font-size:3.88056px;line-height:0.9;font-family:'HarmonyOS Sans';-inkscape-font-specification:'HarmonyOS Sans Heavy';text-align:center;letter-spacing:0.079375px;text-anchor:middle;stroke-width:0.264583"
     aria-label="&lt;&#10;,"
     transform="translate(2.5056394,0.48664166)">
    <path
       d="m -2.5056394,0.29723145 2.0489356,-0.78387311 V 0.10708401 L -1.698483,0.58051232 -0.4567038,1.0539406 V 1.6476663 L -2.5056394,0.8637932 Z"
       id="path2" />
    <path
       d="m -1.4588404,1.985368 c 0.1138298,0 0.2095503,0.045273 0.2871615,0.1358196 0.080198,0.090546 0.1335348,0.2489603 0.1335348,0.422292 0,0.1578094 -0.07924,0.344983 -0.1516774,0.4820961 -0.06985,0.1371131 -0.1655705,0.2496494 -0.2871614,0.3376088 -0.1215909,0.090546 -0.2561169,0.1474613 -0.4035782,0.1707446 V 3.2040815 c 0.1215909,-0.025871 0.2186049,-0.072437 0.291042,-0.1397002 0.072437,-0.067263 0.1164167,-0.1539288 0.131939,-0.2599975 h -0.00776 -0.00776 c -0.1008946,0 -0.2338915,-0.037512 -0.3063286,-0.1125362 -0.06985,-0.072437 -0.1047751,-0.1603965 -0.1047751,-0.2638781 0,-0.1060686 0.032338,-0.2217963 0.097014,-0.2942335 0.067263,-0.072437 0.2274571,-0.148368 0.3283516,-0.148368 z"
       id="path5" />
  </g>
</svg>
