<?xml version="1.0" encoding="UTF-8" standalone="no"?>
<!-- Created with Inkscape (http://www.inkscape.org/) -->

<svg
   width="2.4913192mm"
   height="2.9453499mm"
   viewBox="0 0 2.4913191 2.94535"
   version="1.1"
   id="svg1"
   xmlns="http://www.w3.org/2000/svg"
   xmlns:svg="http://www.w3.org/2000/svg">
  <defs
     id="defs1" />
  <g
     id="layer1"
     transform="translate(-66.782404,-156.7674)">
    <text
       xml:space="preserve"
       style="font-style:normal;font-variant:normal;font-weight:bold;font-stretch:normal;font-size:3.52777px;line-height:0.9;font-family:'HarmonyOS Sans';-inkscape-font-specification:'HarmonyOS Sans Bold';text-align:center;text-decoration-color:#000000;letter-spacing:0.079375px;writing-mode:lr-tb;direction:ltr;text-anchor:middle;fill:#000000;stroke-width:0.264583"
       x="68.657768"
       y="148.46114"
       id="text1"><tspan
         id="tspan1"
         style="stroke-width:0.264583"
         x="68.657768"
         y="148.46114" /></text>
    <path
       d="m 68.160003,159.10352 q 0.194028,0 0.333728,-0.10478 0.1397,-0.10477 0.225072,-0.2988 l 0.55492,0.32597 q -0.06209,0.18626 -0.21343,0.34149 -0.147462,0.15522 -0.376415,0.24835 -0.228953,0.097 -0.508353,0.097 -0.384176,0 -0.702381,-0.18239 -0.318206,-0.18239 -0.504473,-0.51611 -0.186267,-0.33761 -0.186267,-0.77612 0,-0.4385 0.186267,-0.77223 0.186267,-0.33761 0.504473,-0.51611 0.318205,-0.18239 0.702381,-0.18239 0.2794,0 0.508353,0.097 0.228953,0.0931 0.376415,0.24835 0.151341,0.15522 0.21343,0.34149 l -0.55492,0.32597 q -0.08537,-0.19403 -0.225072,-0.29881 -0.1397,-0.10477 -0.333728,-0.10477 -0.186267,0 -0.34537,0.10477 -0.155223,0.1009 -0.244475,0.29881 -0.08925,0.19403 -0.08925,0.4579 0,0.26388 0.08925,0.46179 0.08925,0.19791 0.244475,0.30268 0.159103,0.1009 0.34537,0.1009 z"
       id="text2"
       style="font-weight:900;font-size:3.88056px;line-height:0.9;font-family:'HarmonyOS Sans';-inkscape-font-specification:'HarmonyOS Sans Heavy';text-align:center;letter-spacing:0.0608542px;text-anchor:middle;stroke-width:0.264583"
       aria-label="C" />
  </g>
</svg>
