<?xml version="1.0" encoding="UTF-8" standalone="no"?>
<svg
   width="9.4160213"
   height="11.132025"
   viewBox="0 0 9.4160213 11.132025"
   fill="none"
   version="1.1"
   id="svg3"
   xmlns="http://www.w3.org/2000/svg"
   xmlns:svg="http://www.w3.org/2000/svg">
  <defs
     id="defs3" />
  <path
     d="m 5.2066786,8.8293536 q 0.733335,0 1.2613362,-0.3960009 Q 6.9960161,8.0373518 7.3186835,7.3040168 L 9.4160216,8.5360196 Q 9.1813544,9.2400212 8.6093531,9.8266892 8.0520185,10.413357 7.1866832,10.765358 q -0.8653354,0.366667 -1.9213378,0.366667 -1.4520033,0 -2.6546728,-0.689334 Q 1.4080032,9.7533557 0.70400162,8.4920195 0,7.2160165 0,5.5586794 0,3.9013423 0.70400162,2.640006 1.4080032,1.3640031 2.6106726,0.6893349 3.8133421,0 5.2653454,0 6.3213478,0 7.1866832,0.3666675 8.0520185,0.7186683 8.6093531,1.3053363 9.1813544,1.8920043 9.4160216,2.5960059 L 7.3186835,3.8280088 Q 6.9960161,3.0946737 6.4680148,2.6986728 5.9400136,2.3026719 5.2066786,2.3026719 q -0.7040016,0 -1.3053363,0.3960009 -0.586668,0.3813342 -0.9240021,1.129336 -0.3373342,0.733335 -0.3373342,1.7306706 0,0.9973356 0.3373342,1.7453374 0.3373341,0.7480017 0.9240021,1.1440026 0.6013347,0.3813342 1.3053363,0.3813342 z"
     id="text1"
     style="font-weight:900;font-size:14.6667px;line-height:0.9;font-family:'HarmonyOS Sans';-inkscape-font-specification:'HarmonyOS Sans Heavy';text-align:center;letter-spacing:0.3px;text-anchor:middle;fill:#000000"
     aria-label="C" />
</svg>
