<?xml version="1.0" encoding="UTF-8" standalone="no"?>
<!-- Created with Inkscape (http://www.inkscape.org/) -->

<svg
   width="5.6963062mm"
   height="2.9996729mm"
   viewBox="0 0 5.6963063 2.9996729"
   version="1.1"
   id="svg1"
   xmlns="http://www.w3.org/2000/svg"
   xmlns:svg="http://www.w3.org/2000/svg">
  <defs
     id="defs1" />
  <path
     d="m 0,0.11253624 h 0.94685662 q 0.41521988,0 0.74894808,0.16686408 0.3376087,0.16686407 0.5316367,0.48895055 0.194028,0.31820593 0.194028,0.76058973 0,0.4423838 -0.194028,0.7644704 Q 2.0334134,2.6154974 1.6996852,2.786242 1.3659571,2.9531062 0.94685662,2.9531062 H 0 Z M 0.56268118,2.4719166 H 0.8808871 q 0.3026836,0 0.5122339,-0.1086556 0.2134308,-0.1086557 0.3220865,-0.3182059 0.1125362,-0.2134309 0.1125362,-0.5161145 0,-0.2988032 -0.1125362,-0.5083533 Q 1.6065518,0.81103703 1.393121,0.70238135 1.1835707,0.58984511 0.8808871,0.58984511 H 0.56268118 Z M 3.8085933,0.89252878 q 0.3104447,0 0.5316367,0.15522242 0.2250724,0.1552223 0.3220864,0.4307421 0.097014,0.2716392 0.034925,0.6131284 H 3.3623289 q 0.027164,0.1513419 0.093133,0.2522365 0.065969,0.1008946 0.1629835,0.1513418 0.1008946,0.050447 0.2250725,0.050447 0.1358196,0 0.2405947,-0.058208 Q 4.1888877,2.42535 4.2509767,2.3050526 L 4.6467938,2.5378863 Q 4.5653018,2.7590783 4.336349,2.8793756 4.107396,2.9996729 3.8202345,2.9996729 q -0.2716392,0 -0.5044728,-0.1202974 Q 3.0829285,2.7590782 2.9393478,2.5184834 2.7996477,2.2778887 2.7996477,1.9402799 q 0,-0.3337281 0.1397001,-0.5704423 Q 3.0829285,1.1331235 3.3118816,1.0128261 3.5447152,0.89252878 3.8085933,0.89252878 Z M 3.793071,1.331032 q -0.1047751,0 -0.1901474,0.046567 -0.085372,0.046567 -0.1474613,0.1319391 -0.058208,0.081492 -0.085372,0.2056696 h 0.799395 Q 4.1617242,1.5910295 4.1073964,1.5056573 4.0569491,1.4164044 3.9754573,1.3737182 3.8978461,1.331032 3.793071,1.331032 Z M 5.6963061,0 V 2.9531062 H 5.1569082 V 0 Z"
     id="text2"
     style="font-weight:bold;font-size:3.88056px;line-height:0.9;font-family:'HarmonyOS Sans';-inkscape-font-specification:'HarmonyOS Sans Bold';text-align:center;letter-spacing:0.079375px;text-anchor:middle;stroke-width:0.264583"
     aria-label="Del" />
</svg>
