<?xml version="1.0" encoding="UTF-8" standalone="no"?>
<!-- Created with Inkscape (http://www.inkscape.org/) -->

<svg
   width="6.903161mm"
   height="3.0035801mm"
   viewBox="0 0 6.9031609 3.00358"
   version="1.1"
   id="svg1"
   xmlns="http://www.w3.org/2000/svg"
   xmlns:svg="http://www.w3.org/2000/svg">
  <defs
     id="defs1" />
  <g
     id="layer1"
     transform="translate(-60.109421,-139.57921)">
    <text
       xml:space="preserve"
       style="font-style:normal;font-variant:normal;font-weight:bold;font-stretch:normal;font-size:3.52777px;line-height:0.9;font-family:'HarmonyOS Sans';-inkscape-font-specification:'HarmonyOS Sans Bold';text-align:center;text-decoration-color:#000000;letter-spacing:0.079375px;writing-mode:lr-tb;direction:ltr;text-anchor:middle;fill:#000000;stroke-width:0.264583"
       x="68.657768"
       y="148.46114"
       id="text1"><tspan
         id="tspan1"
         style="stroke-width:0.264583"
         x="68.657768"
         y="148.46114" /></text>
    <g
       id="text2"
       style="font-weight:bold;font-size:3.88056px;line-height:0.9;font-family:'Liberation Serif';-inkscape-font-specification:'Liberation Serif Bold';text-align:center;letter-spacing:0.079375px;text-anchor:middle;stroke-width:0.264583"
       aria-label="&#10;*&#10;8">
      <path
         d="m 61.882837,140.82099 v 0.56656 h -1.10984 v 0.57044 h 1.284465 v 0.57432 h -1.948041 v -2.84057 h 1.901474 v 0.57045 h -1.237898 v 0.5588 z m 1.872195,-0.34925 q 0.337609,0 0.531637,0.22119 0.194028,0.22119 0.194028,0.65193 v 1.18745 h -0.632532 v -0.97402 q 0,-0.25223 -0.07373,-0.39193 -0.07373,-0.1397 -0.252237,-0.1397 -0.116417,0 -0.197908,0.066 -0.08149,0.066 -0.128059,0.19014 -0.04269,0.12418 -0.04269,0.30269 v 0.94685 H 62.52101 v -2.00625 h 0.562681 q 0.01552,0.21344 0.03493,0.31045 0.09701,-0.18627 0.259998,-0.27552 0.162983,-0.0892 0.376414,-0.0892 z m 2.625019,0.27552 v -1.16805 h 0.632531 v 2.9531 h -0.562681 q -0.01552,-0.20955 -0.02716,-0.28328 -0.108656,0.16687 -0.271639,0.24836 -0.162984,0.0854 -0.360892,0.0854 -0.252237,0 -0.461787,-0.12418 -0.20567,-0.12417 -0.329847,-0.36477 -0.120298,-0.24059 -0.120298,-0.56656 0,-0.32985 0.120298,-0.56656 0.124177,-0.2406 0.333728,-0.36477 0.20955,-0.12418 0.457906,-0.12418 0.182386,0 0.329847,0.0699 0.151342,0.066 0.259998,0.20567 z m -0.426862,1.30386 q 0.116417,0 0.213431,-0.0582 0.09701,-0.0582 0.155223,-0.17463 0.05821,-0.1203 0.05821,-0.29104 0,-0.17075 -0.05821,-0.2794 -0.05821,-0.11254 -0.155223,-0.16687 -0.09313,-0.0543 -0.213431,-0.0543 -0.124178,0 -0.221192,0.0621 -0.09701,0.0582 -0.151341,0.17074 -0.05045,0.10866 -0.05045,0.26776 0,0.15522 0.05433,0.27552 0.05433,0.1203 0.147461,0.18627 0.09701,0.0621 0.221192,0.0621 z"
         id="text3"
         style="font-weight:900;font-family:'HarmonyOS Sans';-inkscape-font-specification:'HarmonyOS Sans Heavy';stroke-width:0.0700042"
         aria-label="End" />
    </g>
  </g>
</svg>
