<?xml version="1.0" encoding="UTF-8" standalone="no"?>
<!-- Created with Inkscape (http://www.inkscape.org/) -->

<svg
   width="10.579716mm"
   height="4.8715396mm"
   viewBox="0 0 10.579716 4.8715395"
   version="1.1"
   id="svg1"
   xmlns="http://www.w3.org/2000/svg"
   xmlns:svg="http://www.w3.org/2000/svg">
  <defs
     id="defs1" />
  <g
     id="layer1"
     transform="translate(-83.386846,-122.18749)">
    <path
       d="m 85.124856,123.31673 v 0.56656 h -1.087682 v 0.57044 h 1.258822 v 0.57433 h -1.90915 v -2.84057 h 1.863513 v 0.57044 h -1.213185 v 0.5588 z m 1.834817,-0.34925 q 0.330869,0 0.521023,0.22119 0.190155,0.22119 0.190155,0.65194 v 1.18745 h -0.619903 v -0.97402 q 0,-0.25224 -0.07226,-0.39194 -0.07226,-0.1397 -0.247199,-0.1397 -0.114093,0 -0.193958,0.066 -0.07986,0.066 -0.125501,0.19015 -0.04184,0.12417 -0.04184,0.30268 v 0.94686 h -0.619903 v -2.00625 h 0.551447 q 0.01521,0.21343 0.03423,0.31044 0.09507,-0.18626 0.254807,-0.27552 0.15973,-0.0893 0.368899,-0.0893 z m 2.485142,1.47849 0.216775,0.43851 q -0.212972,0.19402 -0.600887,0.19402 -0.349884,0 -0.559053,-0.18238 -0.205367,-0.18627 -0.205367,-0.65582 v -0.68686 H 87.93499 v -0.53163 h 0.361293 v -0.64418 h 0.619904 v 0.64418 h 0.600886 v 0.53163 h -0.600886 v 0.57433 q 0,0.19403 0.05705,0.30268 0.05705,0.10478 0.216776,0.10478 0.06846,0 0.129305,-0.0194 0.06085,-0.0194 0.125502,-0.0699 z m 1.355628,-1.47849 q 0.30805,0 0.532432,0.15522 0.224381,0.15522 0.319459,0.43851 0.09889,0.2794 0.03803,0.64417 h -1.258819 q 0.02662,0.11253 0.08366,0.19015 0.05705,0.0776 0.133108,0.12029 0.07986,0.0388 0.178746,0.0388 0.117895,0 0.212972,-0.0582 0.09889,-0.0621 0.14832,-0.17074 l 0.452568,0.27552 q -0.08366,0.22895 -0.315657,0.35313 -0.231987,0.12417 -0.521023,0.12417 -0.266215,0 -0.502006,-0.12029 -0.231989,-0.1203 -0.376506,-0.35701 -0.140714,-0.2406 -0.140714,-0.58597 0,-0.33761 0.140714,-0.57432 0.144517,-0.23672 0.376506,-0.35313 0.231988,-0.1203 0.498204,-0.1203 z m -0.01902,0.50447 q -0.08746,0 -0.155926,0.0388 -0.06846,0.0349 -0.117895,0.10477 -0.04944,0.066 -0.07606,0.15911 h 0.65413 q -0.01141,-0.1009 -0.05325,-0.16687 -0.04184,-0.0699 -0.106486,-0.10089 -0.06466,-0.0349 -0.144518,-0.0349 z m 2.477538,-0.50447 q 0.121699,0 0.228186,0.0388 0.110289,0.0388 0.163532,0.10089 l -0.239594,0.48119 q -0.11029,-0.0815 -0.243397,-0.0815 -0.133108,0 -0.231988,0.0815 -0.09888,0.0776 -0.152124,0.22119 -0.05325,0.1397 -0.05325,0.32985 v 0.88865 H 92.11043 v -2.00625 h 0.551447 q 0.01521,0.21343 0.03423,0.31044 0.08747,-0.1785 0.231988,-0.27164 0.144517,-0.0931 0.330868,-0.0931 z"
       id="text1"
       style="font-weight:900;font-size:3.88056px;line-height:0.9;font-family:'HarmonyOS Sans';-inkscape-font-specification:'HarmonyOS Sans Heavy';text-align:center;letter-spacing:0.079375px;text-anchor:middle;stroke-width:0.261929"
       aria-label="Enter" />
    <path
       id="path1"
       style="stroke-width:0.0983403"
       d="m 93.490622,124.28039 v 1.79007 h -9.193754 l 0.425814,-0.42633 0.08527,-0.0868 h -0.671277 l -0.03669,0.0377 -0.713135,0.71314 0.713135,0.71313 0.03204,0.0377 h 0.686263 l -0.0956,-0.0868 -0.425814,-0.42633 h 9.669694 v -0.47542 -1.79007 z" />
  </g>
</svg>
