<?xml version="1.0" encoding="UTF-8" standalone="no"?>
<!-- Created with Inkscape (http://www.inkscape.org/) -->

<svg
   width="5.9485464mm"
   height="2.8871365mm"
   viewBox="0 0 5.9485465 2.8871365"
   version="1.1"
   id="svg1"
   xmlns="http://www.w3.org/2000/svg"
   xmlns:svg="http://www.w3.org/2000/svg">
  <defs
     id="defs1" />
  <path
     d="m 1.7152075,1.1564068 v 0.48507 H 0.56268119 V 2.3477387 H 1.8937132 V 2.8405698 H 0 V 0 H 1.8510271 V 0.48895055 H 0.56268119 V 1.1564068 Z m 2.1399516,1.0865568 q 0,0.2017891 -0.1086557,0.3492504 -0.1047751,0.1435807 -0.2949225,0.2173114 -0.1862669,0.077611 -0.4268616,0.077611 -0.3182059,0 -0.5510395,-0.1358196 Q 2.2447267,2.6154974 2.163235,2.3749026 l 0.3919365,-0.228953 q 0.058208,0.1435807 0.1823863,0.2250725 0.124178,0.077611 0.291042,0.077611 0.124178,0 0.1979086,-0.046567 0.073731,-0.046567 0.073731,-0.1319391 0,-0.06985 -0.050447,-0.1164168 Q 3.1993445,2.107144 3.1217333,2.0799801 3.0480026,2.0489356 2.9044219,2.01013 2.7026328,1.9519216 2.5668132,1.8937132 2.4348742,1.8355048 2.3378602,1.7229686 2.2447267,1.6104323 2.2447267,1.4319266 q 0,-0.2017891 0.1086557,-0.3492504 0.1125363,-0.15134182 0.2988031,-0.22507246 0.1862669,-0.0776112 0.4074588,-0.0776112 0.3026837,0 0.5083534,0.13193904 Q 3.7775479,1.03999 3.8357563,1.2534208 L 3.4438198,1.4746127 Q 3.3894919,1.3543154 3.2885974,1.2883459 q -0.097014,-0.06597 -0.2367142,-0.06597 -0.1164168,0 -0.1862669,0.046567 -0.06985,0.042686 -0.06985,0.1241779 0,0.06597 0.046567,0.1086557 0.050447,0.042686 0.1241779,0.06985 0.077611,0.027164 0.2095502,0.06597 0.2095503,0.054328 0.3453698,0.1164168 0.1358196,0.058208 0.2328336,0.1785057 0.1008946,0.1202974 0.1008943,0.3104446 z M 5.164673,2.4175888 q 0.124178,0 0.2134308,-0.058208 0.093134,-0.058208 0.159103,-0.1707446 L 5.9485461,2.4292305 Q 5.8515321,2.654303 5.6419819,2.7707198 5.4324317,2.8871366 5.164673,2.8871366 q -0.2677586,0 -0.5005922,-0.124178 Q 4.4312472,2.6426613 4.2876665,2.4059471 4.1440858,2.1653524 4.1440858,1.8355048 q 0,-0.3337281 0.1435807,-0.5704423 Q 4.4312472,1.0244678 4.6640808,0.90417046 4.8969144,0.77999254 5.164673,0.77999254 q 0.2677587,0 0.4773089,0.1164168 Q 5.8515321,1.0128261 5.9485461,1.2378986 L 5.5372068,1.4784933 Q 5.4712373,1.3698376 5.3781038,1.3116292 5.288851,1.2534208 5.164673,1.2534208 q -0.1397001,0 -0.2444752,0.06985 -0.1008946,0.06985 -0.159103,0.2017891 -0.058208,0.1319391 -0.058208,0.3104448 0,0.1746252 0.058208,0.3065643 0.058208,0.131939 0.159103,0.2056696 0.1047751,0.06985 0.2444752,0.06985 z"
     id="text1"
     style="font-weight:bold;font-size:3.88056px;line-height:0.9;font-family:'HarmonyOS Sans';-inkscape-font-specification:'HarmonyOS Sans Bold';text-align:center;letter-spacing:0.079375px;text-anchor:middle;stroke-width:0.264583"
     aria-label="Esc" />
</svg>
