<?xml version="1.0" encoding="UTF-8" standalone="no"?>
<!-- Created with Inkscape (http://www.inkscape.org/) -->

<svg
   width="10.472931mm"
   height="2.89101mm"
   viewBox="0 0 10.472931 2.89101"
   version="1.1"
   id="svg1"
   xmlns="http://www.w3.org/2000/svg"
   xmlns:svg="http://www.w3.org/2000/svg">
  <defs
     id="defs1" />
  <g
     id="layer1"
     transform="translate(-83.386846,-122.18749)">
    <path
       d="m 85.160262,123.31673 v 0.56656 h -1.10984 v 0.57044 h 1.284466 v 0.57433 h -1.948042 v -2.84057 h 1.901475 v 0.57044 h -1.237899 v 0.5588 z m 1.872195,-0.34925 q 0.337609,0 0.531637,0.22119 0.194028,0.22119 0.194028,0.65194 v 1.18745 h -0.632531 v -0.97402 q 0,-0.25224 -0.07373,-0.39194 -0.07373,-0.1397 -0.252236,-0.1397 -0.116417,0 -0.197909,0.066 -0.08149,0.066 -0.128058,0.19015 -0.04269,0.12417 -0.04269,0.30268 v 0.94686 h -0.632531 v -2.00625 h 0.562681 q 0.01552,0.21343 0.03493,0.31044 0.09701,-0.18626 0.259998,-0.27552 0.162983,-0.0893 0.376414,-0.0893 z m 2.535768,1.47849 0.221191,0.43851 q -0.217311,0.19402 -0.613128,0.19402 -0.357012,0 -0.570442,-0.18238 -0.209551,-0.18627 -0.209551,-0.65582 v -0.68686 h -0.368653 v -0.53163 h 0.368653 v -0.64418 h 0.632532 v 0.64418 h 0.613128 v 0.53163 h -0.613128 v 0.57433 q 0,0.19403 0.05821,0.30268 0.05821,0.10478 0.221192,0.10478 0.06985,0 0.131939,-0.0194 0.06209,-0.0194 0.128059,-0.0699 z m 1.383244,-1.47849 q 0.314325,0 0.543278,0.15522 0.228953,0.15522 0.325967,0.43851 0.100895,0.2794 0.03881,0.64417 h -1.284465 q 0.02716,0.11253 0.08537,0.19015 0.05821,0.0776 0.135819,0.12029 0.08149,0.0388 0.182387,0.0388 0.120297,0 0.217311,-0.0582 0.100895,-0.0621 0.151342,-0.17074 l 0.461787,0.27552 q -0.08537,0.22895 -0.322087,0.35313 -0.236714,0.12417 -0.531637,0.12417 -0.271639,0 -0.512234,-0.12029 -0.236714,-0.1203 -0.384175,-0.35701 -0.143581,-0.2406 -0.143581,-0.58597 0,-0.33761 0.143581,-0.57432 0.147461,-0.23672 0.384175,-0.35313 0.236715,-0.1203 0.508354,-0.1203 z m -0.0194,0.50447 q -0.08925,0 -0.159103,0.0388 -0.06985,0.0349 -0.120297,0.10477 -0.05045,0.066 -0.07761,0.15911 h 0.667456 q -0.01164,-0.1009 -0.05433,-0.16687 -0.04269,-0.0699 -0.108656,-0.10089 -0.06597,-0.0349 -0.147461,-0.0349 z m 2.528009,-0.50447 q 0.124178,0 0.232834,0.0388 0.112536,0.0388 0.166864,0.10089 l -0.244475,0.48119 q -0.112537,-0.0815 -0.248356,-0.0815 -0.13582,0 -0.236714,0.0815 -0.100895,0.0776 -0.155223,0.22119 -0.05433,0.1397 -0.05433,0.32985 v 0.88865 h -0.632531 v -2.00625 h 0.562681 q 0.01552,0.21343 0.03493,0.31044 0.08925,-0.1785 0.236715,-0.27164 0.147461,-0.0931 0.337608,-0.0931 z"
       id="text1"
       style="font-weight:900;font-size:3.88056px;line-height:0.9;font-family:'HarmonyOS Sans';-inkscape-font-specification:'HarmonyOS Sans Heavy';text-align:center;letter-spacing:0.079375px;text-anchor:middle;stroke-width:0.264583"
       aria-label="Enter" />
  </g>
</svg>
