<?xml version="1.0" encoding="UTF-8" standalone="no"?>
<!-- Created with Inkscape (http://www.inkscape.org/) -->

<svg
   width="5.8945732mm"
   height="2.891017mm"
   viewBox="0 0 5.8945733 2.891017"
   version="1.1"
   id="svg1"
   xmlns="http://www.w3.org/2000/svg"
   xmlns:svg="http://www.w3.org/2000/svg">
  <defs
     id="defs1" />
  <path
     d="M 1.7734159,1.1292429 V 1.6958047 H 0.66357574 V 2.266247 H 1.9480411 V 2.8405698 H 0 V 0 H 1.9014743 V 0.5704423 H 0.66357574 v 0.5588006 z m 2.0877405,1.1059596 q 0,0.2056697 -0.1125362,0.3570115 -0.1125362,0.1474613 -0.3104448,0.2211919 -0.194028,0.077611 -0.4423838,0.077611 -0.3259671,0 -0.5665618,-0.1397001 -0.2405947,-0.1397 -0.3298476,-0.3841753 L 2.5572883,2.0993829 q 0.050447,0.1358196 0.1707446,0.2134308 0.1202974,0.073731 0.2716392,0.073731 0.097014,0 0.1552224,-0.031045 0.058208,-0.034925 0.058208,-0.097014 0,-0.054328 -0.046567,-0.089253 Q 3.1238501,2.1304274 3.054,2.107144 2.9880305,2.0799801 2.8560914,2.0411745 2.6543023,1.9829661 2.5184827,1.9247577 2.3865437,1.8665493 2.2856491,1.7540131 2.1886351,1.6375963 2.1886351,1.4552099 q 0,-0.2095502 0.1164168,-0.360892 0.1164168,-0.1552224 0.3104448,-0.2328336 0.1979086,-0.0814918 0.422981,-0.0814918 0.318206,0 0.5355173,0.13970016 Q 3.7913064,1.0555123 3.8495148,1.2728236 L 3.3916087,1.5289406 Q 3.3372809,1.4125238 3.2519085,1.3504348 q -0.085372,-0.06597 -0.2173113,-0.06597 -0.093133,0 -0.1474613,0.038806 -0.050447,0.034925 -0.050447,0.093133 0,0.050447 0.042686,0.089253 0.042686,0.034925 0.1086557,0.058208 0.06985,0.023283 0.1901474,0.058208 0.2056697,0.054328 0.3414893,0.1164168 0.1397001,0.058208 0.2405947,0.1823863 0.1008945,0.1202974 0.1008945,0.3143254 z m 1.2184993,0.1086557 q 0.1164168,0 0.194028,-0.050447 0.081492,-0.054328 0.1435807,-0.1552224 L 5.8945733,2.4137082 Q 5.8014398,2.6465418 5.5802479,2.7668392 5.359056,2.8910171 5.0796557,2.8910171 q -0.2677586,0 -0.5083533,-0.1202973 Q 4.3345882,2.654303 4.1832464,2.4175888 4.0357851,2.1769941 4.0357851,1.8355048 q 0,-0.3414893 0.1474613,-0.5782034 0.1513418,-0.2405947 0.388056,-0.3570115 0.2405947,-0.12029736 0.5083533,-0.12029736 0.2794003,0 0.5005922,0.12417792 Q 5.8014398,1.0244678 5.8945733,1.2534208 L 5.4172644,1.5328211 q -0.062089,-0.097014 -0.1435807,-0.1513418 -0.077611,-0.058208 -0.194028,-0.058208 -0.1164168,0 -0.2056697,0.06597 -0.089253,0.062089 -0.1397001,0.1785058 -0.046567,0.1125362 -0.046567,0.2677586 0,0.1513419 0.046567,0.2677587 0.050447,0.1164168 0.1397001,0.1785057 0.089253,0.062089 0.2056697,0.062088 z"
     id="text2"
     style="font-weight:900;font-size:3.88056px;line-height:0.9;font-family:'HarmonyOS Sans';-inkscape-font-specification:'HarmonyOS Sans Heavy';text-align:center;letter-spacing:0px;word-spacing:0px;text-anchor:middle;stroke-width:0.264583"
     aria-label="Esc" />
</svg>
