<?xml version="1.0" encoding="UTF-8" standalone="no"?>
<!-- Created with Inkscape (http://www.inkscape.org/) -->

<svg
   width="6.2632389mm"
   height="2.9453449mm"
   viewBox="0 0 6.2632386 2.945345"
   version="1.1"
   id="svg1"
   xmlns="http://www.w3.org/2000/svg"
   xmlns:svg="http://www.w3.org/2000/svg">
  <defs
     id="defs1" />
  <path
     d="M 0,2.8948977 V 0.0543279 H 1.9014743 V 0.6325313 H 0.6635757 V 1.2534209 H 1.7734159 V 1.8277438 H 0.6635757 V 2.8948977 Z M 3.0501165,0.7605898 2.3128101,1.1680486 V 0.547159 L 3.2014583,0.0504473 H 3.7214534 V 2.8948977 H 3.0501165 Z m 3.2131226,0.714023 c 0,0.4786024 -0.090546,0.843375 -0.2716392,1.0943179 C 5.8130941,2.8198736 5.5582707,2.945345 5.2271296,2.945345 4.8959885,2.945345 4.638578,2.8211671 4.4548982,2.5728113 4.2738054,2.3218684 4.183259,1.9558022 4.183259,1.4746128 4.183259,0.9934234 4.273805,0.6273572 4.4548982,0.3764143 4.638578,0.1254714 4.8959885,0 5.2271296,0 5.5582707,0 5.8130941,0.1254714 5.9915999,0.3764143 6.1726927,0.6273572 6.2632391,0.9934234 6.2632391,1.4746128 Z m -1.3775987,0 c 0,0.2923355 0.027164,0.5096469 0.081492,0.6519341 0.056915,0.1422872 0.1435805,0.2134308 0.2599975,0.2134308 0.1164168,0 0.2004956,-0.071144 0.2522364,-0.2134308 0.054328,-0.1448743 0.081492,-0.3621856 0.081492,-0.6519341 0,-0.2923355 -0.027164,-0.5096469 -0.081492,-0.6519341 C 5.4276253,0.6803915 5.3435468,0.6092479 5.2271299,0.6092479 c -0.1138298,0 -0.1992021,0.06985 -0.2561169,0.2095503 -0.056915,0.1397001 -0.085372,0.358305 -0.085373,0.6558146 z"
     id="text1"
     style="font-weight:900;font-size:3.88056px;line-height:0.9;font-family:'HarmonyOS Sans';-inkscape-font-specification:'HarmonyOS Sans Heavy';text-align:center;letter-spacing:0px;word-spacing:0px;text-anchor:middle;stroke-width:0.264583"
     aria-label="F10" />
</svg>
