<?xml version="1.0" encoding="UTF-8" standalone="no"?>
<!-- Created with Inkscape (http://www.inkscape.org/) -->

<svg
   width="4.2065234mm"
   height="2.8987784mm"
   viewBox="0 0 4.2065233 2.8987783"
   version="1.1"
   id="svg1"
   xmlns="http://www.w3.org/2000/svg"
   xmlns:svg="http://www.w3.org/2000/svg">
  <defs
     id="defs1" />
  <path
     d="M 0,2.8987783 V 0.0582084 H 1.9014744 V 0.63641183 H 0.6635757 V 1.2573014 H 1.7734159 V 1.8316243 H 0.6635757 v 1.067154 z M 3.1665333,0 Q 3.4536947,0 3.6904089,0.12805848 3.927123,0.25223639 4.0668232,0.48118943 4.2065234,0.7062619 4.2065234,1.005065 q 0,0.2250725 -0.081492,0.4307422 -0.081492,0.2056696 -0.3104446,0.55492 L 3.2363834,2.8948977 H 2.5262409 L 3.0656387,2.0838607 Q 3.1665333,1.94028 3.1742944,1.9286383 l 0.050447,-0.06985 q -0.093133,0.019403 -0.1823863,0.019403 -0.2677587,0 -0.4773089,-0.1086557 Q 2.3593768,1.6569991 2.24296,1.4513294 2.1265432,1.2417792 2.1265432,0.96625942 q 0,-0.27940032 0.1397002,-0.50059223 Q 2.4098241,0.24447527 2.6504188,0.12417792 2.8910135,0 3.1665333,0 Z m 0.00776,1.331032 q 0.1008946,0 0.1785058,-0.042686 0.081492,-0.046567 0.1241779,-0.131939 0.042686,-0.085372 0.042686,-0.19402798 0,-0.10865568 -0.046567,-0.194028 Q 3.43041,0.68297852 3.3489181,0.63641179 3.2713071,0.58984509 3.1742929,0.58984509 q -0.1008945,0 -0.1823863,0.0504473 -0.077611,0.0465667 -0.1241779,0.13193903 -0.042686,0.0853723 -0.042686,0.194028 0,0.10865568 0.042686,0.19402798 0.046567,0.081492 0.1241779,0.1280585 0.081492,0.042686 0.1823867,0.042686 z"
     id="text4"
     style="font-weight:900;font-size:3.88056px;line-height:0.9;font-family:'HarmonyOS Sans';-inkscape-font-specification:'HarmonyOS Sans Heavy';text-align:center;letter-spacing:0px;text-anchor:middle;stroke-width:0.264583"
     aria-label="F9" />
</svg>
