<?xml version="1.0" encoding="UTF-8" standalone="no"?>
<!-- Created with Inkscape (http://www.inkscape.org/) -->

<svg
   width="4.2298069mm"
   height="2.9492254mm"
   viewBox="0 0 4.2298068 2.9492253"
   version="1.1"
   id="svg1"
   xmlns="http://www.w3.org/2000/svg"
   xmlns:svg="http://www.w3.org/2000/svg">
  <defs
     id="defs1" />
  <path
     d="M 0,2.8987783 V 0.0582084 H 1.9014743 V 0.6364118 H 0.6635757 V 1.2573014 H 1.7734159 V 1.8316243 H 0.6635757 v 1.067154 z M 3.7757812,1.3543154 q 0.2134308,0.1047751 0.3337281,0.2871615 0.1202974,0.1823863 0.1202974,0.4385032 0,0.256117 -0.1280585,0.4540255 Q 3.9775703,2.7319142 3.7408561,2.8405699 3.5080225,2.9492255 3.1936972,2.9492255 2.8716107,2.9492255 2.631016,2.8366893 2.3943018,2.7280336 2.2662434,2.5301251 2.1381849,2.3322165 2.1381849,2.0799801 q 0,-0.2561169 0.1202974,-0.4385032 Q 2.3826602,1.4590905 2.596091,1.358196 2.4253463,1.268943 2.3283323,1.1214818 2.2351989,0.9740205 2.2351989,0.7799926 q 0,-0.2134308 0.1125363,-0.388056 Q 2.4602714,0.2134308 2.6737022,0.1086557 2.8910136,0 3.1936972,0 q 0.3026837,0 0.5083534,0.1047751 0.2095502,0.1047751 0.3104447,0.2794003 0.1047752,0.1746252 0.1047752,0.3958172 0,0.1940279 -0.089253,0.3414892 -0.089253,0.1435807 -0.2522363,0.2328336 z M 3.1936972,0.547159 q -0.081492,0 -0.1435807,0.038806 -0.062089,0.034925 -0.097014,0.097014 -0.031045,0.062089 -0.031045,0.1358196 0,0.1164167 0.073731,0.1940279 0.073731,0.073731 0.1979086,0.073731 0.1202974,0 0.1979086,-0.073731 0.077611,-0.077611 0.077611,-0.1940279 0,-0.073731 -0.034925,-0.1319391 Q 3.3993669,0.6247702 3.3333973,0.5859646 3.2713084,0.547159 3.1936972,0.547159 Z m 0,1.816102 q 0.097014,0 0.1707446,-0.042686 0.077611,-0.046567 0.1202974,-0.1241779 0.046567,-0.081492 0.046567,-0.1901474 0,-0.1086557 -0.042686,-0.1862669 -0.042686,-0.081492 -0.1202974,-0.1280585 -0.073731,-0.046567 -0.1746252,-0.046567 -0.1008945,0 -0.1823863,0.046567 -0.081492,0.042686 -0.1280585,0.124178 -0.042686,0.081492 -0.042686,0.1901474 0,0.1086557 0.046567,0.1901474 0.046567,0.077611 0.1241779,0.1241779 0.081492,0.042686 0.1823855,0.042686 z"
     id="text1"
     style="font-weight:900;font-size:3.88056px;line-height:0.9;font-family:'HarmonyOS Sans';-inkscape-font-specification:'HarmonyOS Sans Heavy';text-align:center;letter-spacing:0px;word-spacing:0px;text-anchor:middle;stroke-width:0.264583"
     aria-label="F8" />
</svg>
