<?xml version="1.0" encoding="UTF-8" standalone="no"?>
<!-- Created with Inkscape (http://www.inkscape.org/) -->

<svg
   width="4.2453289mm"
   height="2.8948975mm"
   viewBox="0 0 4.2453288 2.8948976"
   version="1.1"
   id="svg1"
   xmlns="http://www.w3.org/2000/svg"
   xmlns:svg="http://www.w3.org/2000/svg">
  <defs
     id="defs1" />
  <path
     d="M 0,2.8444504 V 0.00388056 H 1.9014744 V 0.58208399 H 0.66357575 V 1.2029736 H 1.7734159 V 1.7772965 H 0.66357575 V 2.8444504 Z M 3.3256363,1.0167067 q 0.2716392,0 0.4773088,0.1125362 0.2095503,0.1086557 0.3259671,0.3182059 0.1164168,0.2056697 0.1164168,0.4811895 0,0.2794003 -0.1435808,0.5005922 -0.1435807,0.2211919 -0.3841754,0.3414893 -0.2367141,0.1241779 -0.5161145,0.1241779 -0.2832808,0 -0.519995,-0.1280585 Q 2.4447492,2.6426613 2.3011684,2.4175888 2.1614683,2.1886358 2.1614683,1.8898327 q 0,-0.2250725 0.081492,-0.4307422 0.085372,-0.2056696 0.3104448,-0.55492004 L 3.1316083,0 H 3.8417507 L 3.3062335,0.81103703 Q 3.2053389,0.95461774 3.1975778,0.96625942 l -0.054328,0.0698501 q 0.093133,-0.019403 0.1823865,-0.019403 z M 3.1975778,2.3050526 q 0.1008945,0 0.1785057,-0.046567 0.081492,-0.050447 0.124178,-0.1358196 0.042686,-0.085372 0.042686,-0.194028 0,-0.1086557 -0.042686,-0.1901475 -0.042686,-0.085372 -0.124178,-0.1280584 -0.077611,-0.046567 -0.1785057,-0.046567 -0.1008946,0 -0.1823863,0.046567 -0.077611,0.042686 -0.124178,0.1280584 -0.042686,0.085372 -0.042686,0.194028 0,0.1086557 0.042686,0.194028 0.046567,0.085372 0.124178,0.1319391 0.081492,0.046567 0.1823863,0.046567 z"
     id="text1"
     style="font-weight:900;font-size:3.88056px;line-height:0.9;font-family:'HarmonyOS Sans';-inkscape-font-specification:'HarmonyOS Sans Heavy';text-align:center;letter-spacing:0px;word-spacing:0px;text-anchor:middle;stroke-width:0.264583"
     aria-label="F6" />
</svg>
