<?xml version="1.0" encoding="UTF-8" standalone="no"?>
<!-- Created with Inkscape (http://www.inkscape.org/) -->

<svg
   width="4.1832404mm"
   height="2.894897mm"
   viewBox="0 0 4.1832403 2.8948971"
   version="1.1"
   id="svg1"
   xmlns="http://www.w3.org/2000/svg"
   xmlns:svg="http://www.w3.org/2000/svg">
  <defs
     id="defs1" />
  <path
     d="M 0,2.8444498 V 0.00387995 H 1.9014744 V 0.58208338 H 0.66357574 V 1.202973 H 1.7734159 V 1.7772958 H 0.66357574 v 1.067154 z M 3.2868307,0.98178105 q 0.2444753,0 0.4462644,0.11641685 0.2056697,0.1125362 0.325967,0.325967 Q 4.18324,1.6337151 4.18324,1.916996 q 0,0.3026836 -0.1358196,0.5277561 Q 3.9116008,2.665944 3.6787672,2.7784803 3.4459337,2.8948971 3.1665333,2.8948971 q -0.3376087,0 -0.5782034,-0.1552224 Q 2.3477352,2.5883328 2.2429601,2.2817686 L 2.7707162,1.9713238 q 0.046567,0.1707446 0.1435807,0.256117 0.1008946,0.081492 0.2405948,0.081492 0.1047751,0 0.1785057,-0.050447 0.077611,-0.050447 0.1125363,-0.1358196 0.034925,-0.085372 0.034925,-0.1862668 0,-0.1086557 -0.038806,-0.194028 -0.038806,-0.085372 -0.1202974,-0.1358196 -0.077611,-0.050447 -0.1901474,-0.050447 -0.228953,0 -0.3492504,0.2250725 L 2.2972875,1.5483434 2.4874349,0 H 4.04742 V 0.55880063 H 3.0384749 L 2.9763859,1.0322283 q 0.073731,-0.023283 0.1513418,-0.034925 0.077611,-0.0155222 0.159103,-0.0155222 z"
     id="text1"
     style="font-weight:900;font-size:3.88056px;line-height:0.9;font-family:'HarmonyOS Sans';-inkscape-font-specification:'HarmonyOS Sans Heavy';text-align:center;letter-spacing:0px;word-spacing:0px;text-anchor:middle;stroke-width:0.264583"
     aria-label="F5" />
</svg>
