<?xml version="1.0" encoding="UTF-8" standalone="no"?>
<!-- Created with Inkscape (http://www.inkscape.org/) -->

<svg
   width="2.5456474mm"
   height="2.9453449mm"
   viewBox="0 0 2.5456473 2.945345"
   version="1.1"
   id="svg1"
   xmlns="http://www.w3.org/2000/svg"
   xmlns:svg="http://www.w3.org/2000/svg">
  <defs
     id="defs1" />
  <path
     d="M 1.8937132,1.843266 H 1.3892404 V 1.2767042 h 1.1486458 v 1.1796902 q -0.1358196,0.2250725 -0.4385033,0.3570115 -0.2988031,0.131939 -0.6596952,0.131939 -0.4268616,0 -0.75282859,-0.1862668 Q 0.36089207,2.5728112 0.17850576,2.239083 0,1.9014744 0,1.4707322 0,1.0283484 0.19014744,0.69462022 0.38029487,0.36089207 0.70626191,0.18238631 1.0322289,0 1.4319266,0 1.7152075,0 1.9441605,0.0892529 2.1769941,0.1785058 2.3322165,0.32984761 2.4874389,0.48118945 2.5456473,0.66745632 L 1.9946078,0.98566222 Q 1.913116,0.79939534 1.7656548,0.70238134 1.6181935,0.60148679 1.4202849,0.60148679 q -0.2056696,0 -0.3725337,0.10477511 -0.1668641,0.10477512 -0.26387809,0.3026837 -0.097014,0.1979085 -0.097014,0.4617866 0,0.2716392 0.097014,0.4695478 0.097014,0.1979085 0.27551979,0.3026836 0.1823863,0.1047751 0.4191004,0.1047751 0.1319391,0 0.2367142,-0.034925 0.1047751,-0.034925 0.1785057,-0.1086557 z"
     id="text1"
     style="font-weight:900;font-size:3.88056px;line-height:0.9;font-family:'HarmonyOS Sans';-inkscape-font-specification:'HarmonyOS Sans Heavy';text-align:center;letter-spacing:0px;word-spacing:0px;text-anchor:middle;stroke-width:0.264583"
     aria-label="G" />
</svg>
