<?xml version="1.0" encoding="UTF-8" standalone="no"?>
<!-- Created with Inkscape (http://www.inkscape.org/) -->

<svg
   width="2.0450552mm"
   height="2.5316565mm"
   viewBox="0 0 2.0450552 2.5316566"
   version="1.1"
   id="svg1"
   xmlns="http://www.w3.org/2000/svg"
   xmlns:svg="http://www.w3.org/2000/svg">
  <defs
     id="defs1" />
  <g
     id="text2"
     style="font-weight:900;font-size:3.88056px;line-height:0.9;font-family:'HarmonyOS Sans';-inkscape-font-specification:'HarmonyOS Sans Heavy';text-align:center;letter-spacing:0.079375px;text-anchor:middle;stroke-width:0.264583"
     aria-label="`&#10;~"
     transform="translate(-1.6736379,1.2604955)">
    <path
       d="M 2.6496804,-0.60080015 2.1490882,-1.2604955 h 0.7332625 l 0.360892,0.65969535 z"
       id="path3" />
    <path
       d="M 2.2091552,1.209072 H 1.6736379 q 0,-0.37641477 0.1629835,-0.62865107 0.1629835,-0.25223642 0.4889506,-0.25223642 0.1901474,0 0.2949225,0.073731 0.1086557,0.06985 0.2134308,0.19790857 0.058208,0.0737309 0.097014,0.10477505 0.038806,0.031044 0.085372,0.031044 0.073731,0 0.1125363,-0.085372 0.038806,-0.0853721 0.054328,-0.25999747 H 3.718693 Q 3.714813,0.76668793 3.5518289,1.0189244 3.3888454,1.2711612 3.0589978,1.2711612 q -0.1901474,0 -0.2988031,-0.073731 Q 2.6554196,1.1236994 2.554525,0.99564073 2.5001972,0.92579063 2.457511,0.89474613 q -0.038806,-0.034925 -0.085372,-0.034925 -0.073731,0 -0.1125362,0.089253 -0.038806,0.085372 -0.050448,0.25999787 z"
       id="path4" />
  </g>
</svg>
