<?xml version="1.0" encoding="UTF-8" standalone="no"?>
<!-- Created with Inkscape (http://www.inkscape.org/) -->

<svg
   width="2.0450549mm"
   height="2.7392762mm"
   viewBox="0 0 2.045055 2.7392763"
   version="1.1"
   id="svg1"
   xmlns="http://www.w3.org/2000/svg"
   xmlns:svg="http://www.w3.org/2000/svg">
  <defs
     id="defs1" />
  <g
     id="text1"
     style="font-weight:900;font-size:3.88056px;line-height:0.9;font-family:'HarmonyOS Sans';-inkscape-font-specification:'HarmonyOS Sans Heavy';text-align:center;letter-spacing:0.0608542px;text-anchor:middle;stroke-width:0.264583"
     aria-label="~&#10;`"
     transform="translate(-1.7549286e-7,0.20761952)">
    <path
       d="M 0.53551738,0.82562091 H 1.7549286e-7 C 1.7549286e-7,0.57467803 0.05432818,0.21277448 0.16298368,0.04461688 c 0.1086557,-0.1681576 0.2716392,-0.2522364 0.4889505,-0.2522364 0.126765,0 0.2250725,0.0245769 0.2949226,0.0737306 0.072437,0.04656674 0.14358072,0.11253626 0.21343082,0.19790856 0.038805,0.04915374 0.071143,0.08407878 0.097014,0.10477512 0.025871,0.0206963 0.054328,0.0310445 0.085372,0.0310445 0.049154,0 0.086666,-0.0284574 0.1125362,-0.0853723 0.025871,-0.05691486 0.04398,-0.1435807 0.054328,-0.25999752 H 2.045055 c -0.00259,0.25094288 -0.058208,0.61284644 -0.166864,0.78100403 -0.1086557,0.1681576 -0.2729327,0.2522364 -0.4928311,0.2522364 -0.126765,0 -0.2263661,-0.0245769 -0.2988032,-0.0737306 -0.06985,-0.0491537 -0.13840662,-0.11641677 -0.20566962,-0.20178912 -0.0362187,-0.0465667 -0.0685567,-0.0801982 -0.097014,-0.10089456 -0.0258707,-0.0232833 -0.054328,-0.034925 -0.085372,-0.034925 -0.049154,0 -0.086666,0.029751 -0.1125363,0.0892529 -0.025871,0.0569149 -0.042686,0.14358067 -0.0504474,0.25999742 z"
       id="path3" />
    <path
       d="M 0.8599817,2.4185201 0.25707922,1.6839417 1.2082086,1.7319387 1.7605489,2.5316569 Z"
       id="path4" />
  </g>
</svg>
