<?xml version="1.0" encoding="UTF-8" standalone="no"?>
<!-- Created with Inkscape (http://www.inkscape.org/) -->

<svg
   width="10.636981mm"
   height="2.891017mm"
   viewBox="0 0 10.636981 2.8910172"
   version="1.1"
   id="svg1"
   xmlns="http://www.w3.org/2000/svg"
   xmlns:svg="http://www.w3.org/2000/svg">
  <defs
     id="defs1" />
  <g
     id="text1"
     style="font-weight:900;font-size:3.88056px;line-height:0.9;font-family:'HarmonyOS Sans';-inkscape-font-specification:'HarmonyOS Sans Heavy';text-align:center;letter-spacing:0.0608542px;text-anchor:middle;stroke-width:0.264583"
     aria-label="~&#10;`"
     transform="translate(6.1132132,0.39442184)">
    <g
       id="text4"
       style="stroke-width:0.0700042"
       aria-label="_&#10;-">
      <path
         d="m -5.4496374,-0.39442184 v 1.0749151 h 1.1719291 v -1.0749151 h 0.6635757 V 2.446148 H -4.2777083 V 1.2664578 H -5.4496374 V 2.446148 H -6.1132132 V -0.39442184 Z M -3.2144367,1.441083 q 0,-0.3220865 0.1435807,-0.55880063 0.1474613,-0.24059471 0.388056,-0.36865319 0.2444752,-0.12805848 0.5277561,-0.12805848 0.2794003,0 0.519995,0.12805848 0.2444753,0.12805848 0.388056,0.36865319 0.1435808,0.23671413 0.1435808,0.55880063 0,0.3182059 -0.1435808,0.5588006 -0.1435807,0.2405947 -0.388056,0.3686532 -0.2405947,0.1280585 -0.519995,0.1280585 -0.2832809,0 -0.5277561,-0.1280585 Q -2.9233947,2.2404783 -3.070856,1.9998836 -3.2144367,1.7592889 -3.2144367,1.441083 Z m 0.651934,0 q 0,0.1552224 0.050447,0.2716392 0.054328,0.1164168 0.1435807,0.1785058 0.093133,0.062089 0.2095503,0.062089 0.1125362,0 0.2017891,-0.062089 0.089253,-0.062089 0.1435807,-0.1785058 0.054328,-0.1164168 0.054328,-0.2716392 0,-0.1552224 -0.054328,-0.2716392 -0.054328,-0.1202973 -0.1435807,-0.18238631 -0.089253,-0.062089 -0.2017891,-0.062089 -0.1164168,0 -0.2095503,0.062089 -0.089253,0.062089 -0.1435807,0.18238631 -0.050447,0.1164168 -0.050447,0.2716392 z M 1.5819339,0.3855707 q 0.2949225,0 0.4773089,0.22507248 0.1823863,0.22507247 0.1823863,0.64805352 V 2.446148 H 1.6285006 V 1.4721275 q 0,-0.2483559 -0.062089,-0.388056 -0.058208,-0.14358073 -0.2095502,-0.14358073 -0.097014,0 -0.1668641,0.0698501 -0.06597,0.065969 -0.1008945,0.1901474 -0.034925,0.1241779 -0.034925,0.2988031 V 2.446148 H 0.4371687 V 1.4721275 q 0,-0.2483559 -0.062089,-0.388056 -0.0582084,-0.14358073 -0.20566968,-0.14358073 -0.097014,0 -0.16686408,0.0698501 -0.06985008,0.065969 -0.10477511,0.1901474 -0.034925,0.1241779 -0.034925,0.2988031 V 2.446148 H -0.75416319 V 0.43989854 h 0.54327839 q 0.0194028,0.19790856 0.034925,0.28716144 0.10089455,-0.1746252 0.24447527,-0.25611696 0.14358072,-0.0853723 0.32208648,-0.0853723 0.19790855,0 0.34925039,0.10477512 0.1552224,0.10477512 0.23671415,0.30656424 Q 1.0774611,0.58735982 1.2288029,0.48646526 1.3840253,0.3855707 1.5819339,0.3855707 Z m 2.0101294,0 q 0.3143253,0 0.5432784,0.1552224 0.228953,0.1552224 0.325967,0.43850327 0.1008945,0.27940033 0.038806,0.64417293 H 3.215649 q 0.027164,0.1125363 0.085372,0.1901475 0.058208,0.077611 0.1358196,0.1202973 0.081492,0.038806 0.1823863,0.038806 0.1202973,0 0.2173113,-0.058208 0.1008946,-0.062089 0.1513419,-0.1707446 L 4.449667,2.0192864 Q 4.364295,2.2482395 4.1275805,2.3724174 3.8908664,2.4965953 3.5959438,2.4965953 q -0.2716392,0 -0.5122339,-0.1202974 Q 2.8469958,2.2560006 2.6995345,2.0192864 2.5559538,1.7786917 2.5559538,1.4333219 q 0,-0.3376087 0.1435807,-0.57432289 Q 2.8469958,0.62228486 3.0837099,0.50586806 3.3204241,0.3855707 3.5920633,0.3855707 Z m -0.019403,0.50447279 q -0.089253,0 -0.159103,0.0388056 -0.06985,0.034925 -0.1202973,0.10477511 -0.050447,0.06597 -0.077611,0.159103 H 3.8831053 Q 3.8714636,1.0918326 3.8287774,1.0258631 3.7860913,0.95601301 3.7201217,0.92496853 q -0.06597,-0.034925 -0.1474614,-0.034925 z"
         id="text8"
         style="font-size:3.88056px;letter-spacing:0px;stroke-width:0.0185219"
         aria-label="Home" />
    </g>
  </g>
</svg>
