<?xml version="1.0" encoding="UTF-8" standalone="no"?>
<!-- Created with Inkscape (http://www.inkscape.org/) -->

<svg
   width="5.1145768mm"
   height="2.8910167mm"
   viewBox="0 0 5.1145768 2.8910168"
   version="1.1"
   id="svg1"
   xmlns="http://www.w3.org/2000/svg"
   xmlns:svg="http://www.w3.org/2000/svg">
  <defs
     id="defs1" />
  <path
     d="M 0.66357575,0 V 2.8405699 H 0 V 0 Z M 2.4059493,0.7799926 q 0.3376087,0 0.5316367,0.2211919 0.194028,0.2211919 0.194028,0.651934 V 2.8405699 H 2.4990827 V 1.8665493 q 0,-0.2522364 -0.073731,-0.3919365 -0.073731,-0.1397002 -0.2522364,-0.1397002 -0.1164168,0 -0.1979086,0.06597 -0.081492,0.06597 -0.1280585,0.1901475 -0.042686,0.1241779 -0.042686,0.3026836 v 0.9468567 h -0.632531 v -2.00625 H 1.7346124 Q 1.7501344,1.0477512 1.7695374,1.1447652 1.8665514,0.9584983 2.0295349,0.8692454 2.1925185,0.7799924 2.4059493,0.7799926 Z M 5.114577,2.2352025 q 0,0.2056697 -0.1125362,0.3570115 -0.1125362,0.1474613 -0.3104448,0.2211919 -0.194028,0.077611 -0.4423838,0.077611 -0.3259671,0 -0.5665618,-0.1397001 -0.2405947,-0.1397 -0.3298476,-0.3841752 L 3.8107089,2.0993829 q 0.050447,0.1358196 0.1707446,0.2134308 0.1202974,0.073731 0.2716392,0.073731 0.097014,0 0.1552224,-0.031044 0.058208,-0.034925 0.058208,-0.097014 0,-0.054328 -0.046567,-0.089253 Q 4.3772701,2.1304277 4.3074199,2.1071447 4.2414499,2.0799807 4.1095113,2.0411747 3.9077222,1.9829667 3.7719026,1.9247579 3.6399636,1.8665499 3.539069,1.7540133 3.442055,1.6375965 3.442055,1.4552102 q 0,-0.2095503 0.1164168,-0.3608921 0.1164168,-0.1552224 0.3104448,-0.2328336 0.1979086,-0.081492 0.422981,-0.081492 0.3182059,0 0.5355173,0.1397001 0.2173114,0.1358196 0.2755198,0.353131 L 4.6450286,1.5289405 Q 4.5907006,1.4125237 4.5053284,1.3504348 q -0.085372,-0.06597 -0.2173113,-0.06597 -0.093134,0 -0.1474613,0.038806 -0.050447,0.034925 -0.050447,0.093133 0,0.050447 0.042686,0.089253 0.042686,0.034925 0.1086557,0.058208 0.06985,0.023283 0.1901474,0.058208 0.2056697,0.054328 0.3414893,0.1164168 0.1397001,0.058208 0.2405947,0.1823863 0.1008945,0.1202973 0.1008945,0.3143253 z"
     id="text2"
     style="font-weight:900;font-size:3.88056px;line-height:0.9;font-family:'HarmonyOS Sans';-inkscape-font-specification:'HarmonyOS Sans Heavy';text-align:center;letter-spacing:0px;word-spacing:0px;text-anchor:middle;stroke-width:0.264583"
     aria-label="Ins" />
</svg>
