<?xml version="1.0" encoding="UTF-8" standalone="no"?>
<!-- Created with Inkscape (http://www.inkscape.org/) -->

<svg
   width="9.1729374mm"
   height="3.0501201mm"
   viewBox="0 0 9.1729375 3.0501201"
   version="1.1"
   id="svg1"
   xmlns="http://www.w3.org/2000/svg"
   xmlns:svg="http://www.w3.org/2000/svg">
  <defs
     id="defs1" />
  <path
     d="m 2.1847553,2.1808747 q 0,0.2949225 -0.1474613,0.4889505 -0.1474613,0.194028 -0.388056,0.2871615 -0.2405947,0.093133 -0.5122339,0.093133 -0.39581716,0 -0.71402307,-0.1823863 Q 0.10865568,2.6814669 0,2.3438582 L 0.45790607,2.0838607 q 0.0931334,0.2211919 0.27163919,0.3414893 0.17850576,0.1164168 0.42686164,0.1164168 0.2017891,0 0.3182059,-0.081492 0.1202973,-0.081492 0.1202973,-0.236714 0,-0.1241779 -0.077611,-0.2017891 Q 1.4396877,1.94028 1.323271,1.8937133 1.2068542,1.843266 1.0011845,1.781177 0.7256647,1.6996853 0.54715895,1.6220741 0.37253375,1.5444629 0.24447527,1.3853599 0.12029735,1.2223764 0.12029735,0.96237886 q 0,-0.27551975 0.14358072,-0.46566719 0.14746128,-0.19402799 0.38417543,-0.28716143 0.24059472,-0.097014 0.5161145,-0.097014 0.2483558,0 0.4540255,0.0776112 0.2056697,0.0737306 0.3453698,0.21731136 0.1397002,0.14358071 0.1901475,0.33760871 L 1.6958047,1.005065 Q 1.6259546,0.82267871 1.4862545,0.72178415 1.3465543,0.61700903 1.1370041,0.61700903 q -0.19014748,0 -0.31044484,0.0892529 -0.1164168,0.0853723 -0.1164168,0.22895304 0,0.10865563 0.0737306,0.18238633 0.0737306,0.06985 0.18626688,0.1164168 0.11253626,0.042686 0.30656426,0.1008945 0.2832809,0.081492 0.4656672,0.1668641 0.1823863,0.081492 0.3104448,0.2483558 0.1319391,0.1629836 0.1319391,0.4307422 z M 3.7503884,0.94297607 q 0.3298475,0 0.5238755,0.22119193 0.1979086,0.2173113 0.1979086,0.6364118 V 3.0035534 H 3.9327747 V 1.975205 q 0,-0.2638781 -0.089253,-0.4074588 -0.085372,-0.1435807 -0.2755198,-0.1435807 -0.1280584,0 -0.2250724,0.06597 -0.097014,0.06597 -0.1513419,0.194028 -0.054328,0.1280585 -0.054328,0.3104448 V 3.0035534 H 2.5978621 V 0.05044728 H 3.1372599 V 1.261182 Q 3.2342739,1.0981985 3.3894963,1.0205873 3.5485992,0.94297607 3.7503884,0.94297607 Z m 1.534585,-0.20566968 q -0.131939,0 -0.2250725,-0.097014 -0.093133,-0.10089456 -0.093133,-0.23283359 0,-0.13193904 0.093133,-0.22895304 0.093133,-0.10089456 0.2250725,-0.10089456 0.131939,0 0.228953,0.097014 0.097014,0.097014 0.097014,0.2328336 0,0.13193903 -0.097014,0.23283359 -0.097014,0.097014 -0.228953,0.097014 z M 5.5604932,0.99342334 V 3.0035534 H 5.0210953 V 0.99342334 Z M 7.0989574,0.46954775 q -0.1435807,0 -0.2173113,0.10477512 -0.073731,0.10477512 -0.073731,0.34148928 V 1.0593929 L 6.6992597,0.99342334 H 7.331791 V 1.4435683 H 6.8079154 V 3.0035534 H 6.2685176 V 1.4435683 H 5.9231478 V 0.99342334 h 0.3453698 v -0.097014 q 0,-0.45014495 0.2173113,-0.67133687 Q 6.7031403,0 7.0523907,0 7.2192548,0 7.3511938,0.05044728 7.4870134,0.10089456 7.5646246,0.18238632 L 7.3589549,0.57044231 Q 7.2425381,0.46954775 7.0989574,0.46954775 Z m 1.8877125,2.02953285 0.1862669,0.388056 q -0.1979086,0.1629835 -0.5510395,0.1629835 -0.325967,0 -0.5277562,-0.1746252 Q 7.8962326,2.7008697 7.8962326,2.2584859 V 1.4474489 H 7.5392211 V 0.99342334 H 7.8962326 V 0.37641432 H 8.4356304 V 0.99342334 H 9.0409978 V 1.4474489 H 8.4356304 V 2.169233 q 0,0.2095502 0.065969,0.3104448 0.06985,0.1008946 0.2289531,0.1008946 0.06985,0 0.1280584,-0.019403 0.062089,-0.019403 0.128059,-0.062089 z"
     id="text1"
     style="font-weight:bold;font-size:3.88056px;line-height:0.9;font-family:'HarmonyOS Sans';-inkscape-font-specification:'HarmonyOS Sans Bold';text-align:center;letter-spacing:0.079375px;text-anchor:middle;stroke-width:0.264583"
     aria-label="Shift" />
</svg>
