<?xml version="1.0" encoding="UTF-8" standalone="no"?>
<!-- Created with Inkscape (http://www.inkscape.org/) -->

<svg
   width="7.1571593mm"
   height="3.0035534mm"
   viewBox="0 0 7.1571594 3.0035534"
   version="1.1"
   id="svg1"
   xmlns="http://www.w3.org/2000/svg"
   xmlns:svg="http://www.w3.org/2000/svg">
  <defs
     id="defs1" />
  <path
     d="m 2.4776473,6.1944556 q 0.194028,0 0.3337281,-0.1047752 Q 2.9510756,5.9849053 3.0364479,5.7908773 L 3.591368,6.1168444 Q 3.529279,6.3031112 3.3779372,6.4583336 3.2304759,6.613556 3.0015229,6.7066895 q -0.2289531,0.097014 -0.5083534,0.097014 -0.3841754,0 -0.7023813,-0.1823863 Q 1.4725823,6.4389308 1.2863154,6.1052027 1.1000485,5.767594 1.1000485,5.3290907 q 0,-0.4385033 0.1862669,-0.7722314 0.1862669,-0.3376087 0.5044728,-0.5161145 0.3182059,-0.1823863 0.7023813,-0.1823863 0.2794003,0 0.5083534,0.097014 0.228953,0.093133 0.3764143,0.2483558 Q 3.529279,4.3589507 3.591368,4.5452176 L 3.0364479,4.8711846 Q 2.9510756,4.6771566 2.8113754,4.5723815 2.6716753,4.4676064 2.4776473,4.4676064 q -0.1862669,0 -0.3453699,0.1047751 -0.1552224,0.1008946 -0.2444752,0.2988031 -0.089253,0.194028 -0.089253,0.4579061 0,0.2638781 0.089253,0.4617866 0.089253,0.1979086 0.2444752,0.3026837 0.159103,0.1008946 0.3453699,0.1008946 z M 5.273413,6.1711726 5.4946049,6.6096759 q -0.2173114,0.194028 -0.6131285,0.194028 -0.3570115,0 -0.5704423,-0.1823863 Q 4.1014839,6.4350503 4.1014839,5.9655025 V 5.2786434 H 3.7328307 V 4.7470067 H 4.1014839 V 4.1028338 H 4.7340151 V 4.7470067 H 5.3471436 V 5.2786434 H 4.7340151 v 0.5743229 q 0,0.194028 0.058208,0.3026837 0.058208,0.1047751 0.221192,0.1047751 0.06985,0 0.131939,-0.019403 0.062089,-0.019403 0.1280589,-0.06985 z M 6.9476981,4.6926789 q 0.1241779,0 0.2328336,0.038806 0.1125362,0.038806 0.1668641,0.1008945 L 7.1029205,5.3135689 q -0.1125362,-0.081492 -0.2483558,-0.081492 -0.1358196,0 -0.2367142,0.081492 -0.1008946,0.077611 -0.1552224,0.2211919 -0.054328,0.1397001 -0.054328,0.3298476 V 6.7532566 H 5.775769 V 4.7470067 h 0.5626812 q 0.015522,0.2134308 0.034925,0.3104448 0.089253,-0.1785057 0.2367142,-0.2716392 0.1474613,-0.093133 0.3376087,-0.093133 z M 8.2572082,3.8001501 V 6.7532562 H 7.6246769 V 3.8001501 Z"
     id="text2"
     style="font-weight:900;font-size:3.88056px;line-height:0.9;font-family:'HarmonyOS Sans';-inkscape-font-specification:'HarmonyOS Sans Heavy';text-align:center;letter-spacing:0.079375px;text-anchor:middle;stroke-width:0.264583"
     aria-label="Ctrl" />
</svg>
