<?xml version="1.0" encoding="UTF-8" standalone="no"?>
<!-- Created with Inkscape (http://www.inkscape.org/) -->

<svg
   width="1.5056576mm"
   height="3.593399mm"
   viewBox="0 0 1.5056576 3.5933987"
   version="1.1"
   id="svg1"
   xmlns="http://www.w3.org/2000/svg"
   xmlns:svg="http://www.w3.org/2000/svg">
  <defs
     id="defs1" />
  <path
     d="M 1.0826762,0.98178211 V 1.1292434 q 0,0.2794003 -0.10089457,0.4462644 -0.097014,0.1629835 -0.31432532,0.2211919 0.21731132,0.058208 0.31432532,0.2250725 Q 1.0826762,2.1847557 1.0826762,2.464156 v 0.1474613 q 0,0.228953 0.073731,0.3182059 0.073731,0.089253 0.2483559,0.089253 H 1.5056576 V 3.593399 h -0.228953 q -0.28328087,0 -0.46566717,-0.06597 Q 0.63253127,3.4614599 0.53939783,3.2868347 0.44626439,3.1122095 0.44626439,2.7940036 V 2.56117 q 0,-0.1629835 -0.0426862,-0.2522364 Q 0.36089207,2.2158002 0.26387808,2.1769946 0.17074464,2.1343084 0,2.1187862 v -0.644173 q 0.1746252,-0.015522 0.26775864,-0.058208 0.097014,-0.042686 0.13581959,-0.131939 0.0426862,-0.093133 0.0426862,-0.2522364 v -0.232834 q 0,-0.3182059 0.0931334,-0.4928311 Q 0.63253123,0.1319395 0.81103703,0.06597 0.99342333,0 1.2767042,0 h 0.228953 V 0.5743228 H 1.4047627 q -0.1746252,0 -0.2483559,0.089253 -0.073731,0.089253 -0.073731,0.31820631 z"
     id="text1"
     style="font-weight:900;font-size:3.88056px;line-height:0.9;font-family:'HarmonyOS Sans';-inkscape-font-specification:'HarmonyOS Sans Heavy';text-align:center;letter-spacing:0px;word-spacing:0px;text-anchor:middle;stroke-width:0.264583"
     aria-label="{" />
</svg>
