<?xml version="1.0" encoding="UTF-8" standalone="no"?>
<!-- Created with Inkscape (http://www.inkscape.org/) -->

<svg
   width="5.9019794mm"
   height="3.0035534mm"
   viewBox="0 0 5.9019799 3.0035534"
   version="1.1"
   id="svg1"
   xmlns="http://www.w3.org/2000/svg"
   xmlns:svg="http://www.w3.org/2000/svg">
  <defs
     id="defs1" />
  <path
     d="M 1.1214818,0.11253623 H 1.7074464 L 2.8599726,2.9531061 H 2.1614718 L 1.9441605,2.3787832 H 0.86924543 L 0.65969519,2.9531061 H 0 Z M 1.0749151,1.8238631 H 1.7346103 L 1.3970016,0.93909551 Z M 3.8241175,0 V 2.9531061 H 3.1915863 V 0 Z m 1.8566698,2.3710221 0.221192,0.4385033 q -0.2173114,0.194028 -0.6131285,0.194028 -0.3570115,0 -0.5704423,-0.1823864 Q 4.5088583,2.6349002 4.5088583,2.1653524 V 1.4784933 H 4.1402051 V 0.94685661 H 4.5088583 V 0.30268367 H 5.1413895 V 0.94685661 H 5.754518 V 1.4784933 H 5.1413895 v 0.5743229 q 0,0.194028 0.058208,0.3026837 0.058208,0.1047751 0.2211919,0.1047751 0.06985,0 0.1319391,-0.019403 0.062089,-0.019403 0.1280588,-0.06985 z"
     id="text6"
     style="font-weight:900;font-size:3.88056px;line-height:0.9;font-family:'HarmonyOS Sans';-inkscape-font-specification:'HarmonyOS Sans Heavy';text-align:center;letter-spacing:0.079375px;text-anchor:middle;stroke-width:0.264583"
     aria-label="Alt" />
</svg>
