<?xml version="1.0" encoding="UTF-8" standalone="no"?>
<!-- Created with Inkscape (http://www.inkscape.org/) -->

<svg
   width="9.7640629mm"
   height="2.8670292mm"
   viewBox="0 0 9.7640625 2.8670292"
   version="1.1"
   id="svg1"
   xmlns="http://www.w3.org/2000/svg"
   xmlns:svg="http://www.w3.org/2000/svg">
  <defs
     id="defs1" />
  <path
     style="baseline-shift:baseline;display:inline;overflow:visible;vector-effect:none;fill:#000000;stroke-width:0.297935;stroke-linecap:round;stroke-linejoin:round;enable-background:accumulate;stop-color:#000000"
     d="M 2.1773832,0.24710744 0.09183579,2.3326549 a 0.31283213,0.31283213 0 0 0 0,0.4428298 0.31283213,0.31283213 0 0 0 0.44224769,0 L 2.3985074,0.91106104 4.2629308,2.7754847 a 0.31283213,0.31283213 0 0 0 0.4422477,0 0.31283213,0.31283213 0 0 0 0,-0.4428298 L 2.6196311,0.24710744 a 0.31286342,0.31286342 0 0 0 -0.4422479,0 z"
     id="Vector-6" />
  <path
     d="m 6.1636117,2.2854728 q 0.1852085,0 0.3185586,-0.1000126 0.1333502,-0.1000125 0.2148419,-0.285221 l 0.5296963,0.3111502 q -0.059267,0.1778002 -0.2037293,0.325967 -0.1407585,0.1481668 -0.3593045,0.240771 -0.2185461,0.0889 -0.4852463,0.0889 -0.3667128,0 -0.6704548,-0.174096 Q 5.2042317,2.5188355 5.0264315,2.2002769 4.8486314,1.8780141 4.8486314,1.4594429 q 0,-0.4185712 0.1778001,-0.73712975 0.1778002,-0.32226279 0.4815421,-0.49265461 0.303742,-0.17409599 0.6704548,-0.17409599 0.2667002,0 0.4852463,0.09260425 0.218546,0.0889001 0.3593045,0.23706688 0.1444626,0.1481668 0.2037293,0.32596696 L 6.6970122,1.0223509 Q 6.6155205,0.83714242 6.4821703,0.73712983 6.3488202,0.63711724 6.1636117,0.63711724 q -0.1778001,0 -0.3296711,0.10001259 -0.1481668,0.0963084 -0.2333627,0.28522107 -0.085196,0.1852085 -0.085196,0.437092 0,0.2518836 0.085196,0.4407963 0.085196,0.1889126 0.2333627,0.2889252 0.151871,0.096308 0.3296711,0.096308 z M 8.9676674,2.681819 q -0.2074336,0.1852085 -0.5852589,0.1852085 -0.3407836,0 -0.544513,-0.174096 Q 7.6378703,2.5151314 7.6378703,2.0669268 V 1.4112887 H 7.2859742 V 0.90381748 H 7.6378703 V 0.28892526 H 8.24165 V 0.90381748 H 8.8269089 V 1.4112887 H 8.24165 v 0.5482172 q 0,0.1852085 0.055563,0.2889252 0.055563,0.1000126 0.2111377,0.1000126 0.066675,0 0.1259418,-0.018521 0.059267,-0.018521 0.1222376,-0.066675 z M 9.1602837,2.8188733 V 0 h 0.6037797 v 2.8188733 z"
     id="text1"
     style="font-weight:900;font-size:3.70417px;line-height:0.9;font-family:'HarmonyOS Sans';-inkscape-font-specification:'HarmonyOS Sans Heavy';text-align:center;letter-spacing:0px;word-spacing:0px;text-anchor:middle;stroke-width:0.264583"
     aria-label="Ctl" />
</svg>
