<?xml version="1.0" encoding="UTF-8" standalone="no"?>
<!-- Created with Inkscape (http://www.inkscape.org/) -->

<svg
   width="11.01985mm"
   height="3.6228895mm"
   viewBox="0 0 11.019849 3.6228894"
   version="1.1"
   id="svg1"
   xmlns="http://www.w3.org/2000/svg"
   xmlns:svg="http://www.w3.org/2000/svg">
  <defs
     id="defs1" />
  <path
     style="baseline-shift:baseline;display:inline;overflow:visible;vector-effect:none;fill:#000000;stroke-width:0.216763;stroke-linecap:round;stroke-linejoin:round;enable-background:accumulate;stop-color:#000000"
     d="M 0.2,2.100789e-4 C 0.089543,2.100789e-4 0,0.10539226 0,0.23514099 0,0.36488973 0.089543,0.47007188 0.2,0.47007188 h 0.9482707 c 0.066068,0 0.079084,0.00417 0.067969,0 -0.00886,-0.009156 7.892e-4,0.001854 0.034766,0.0683686 L 2.2646768,2.5229641 c 0.034033,0.066661 0.058549,0.1220593 0.1140627,0.1794102 0.041283,0.04261 0.089589,0.074806 0.1421875,0.094523 0.070986,0.026651 0.1238837,0.022484 0.1898436,0.022484 H 3.8 C 3.910457,2.8193813 4,2.7141992 4,2.5844504 4,2.4547016 3.910457,2.3495195 3.8,2.3495195 H 2.7812499 c -0.06596,0 -0.079634,-0.00438 -0.067969,0 0.00871,0.009 -0.00122,-0.00193 -0.035156,-0.068369 L 1.6648438,0.29662679 C 1.6308344,0.23004411 1.606446,0.17471237 1.5507812,0.11721668 1.5092239,0.0742945 1.4606488,0.04236589 1.4082031,0.02269371 1.3377242,-0.00374769 1.284818,2.100789e-4 1.21875,2.100789e-4 Z m 2.4,0 c -0.110457,2e-8 -0.2,0.1051821811 -0.2,0.2349309111 0,0.12974874 0.089543,0.23493087 0.2,0.23493089 H 3.8 C 3.910457,0.47007186 4,0.36488973 4,0.23514099 4,0.10539226 3.910457,2.100989e-4 3.8,2.100789e-4 Z"
     id="Vector" />
  <path
     d="m 4.2004738,1.4040916 q 0,-0.42968376 0.174096,-0.74824238 Q 4.55237,0.3372906 4.8561119,0.17060295 5.1598538,2.1113032e-4 5.5265667,2.1113032e-4 q 0.3667128,0 0.6667506,0.17039181968 0.3037419,0.16668765 0.4815421,0.48524627 0.1778001,0.31855862 0.1778001,0.74824238 0,0.4333879 -0.1778001,0.7519465 -0.1778002,0.3185586 -0.4815421,0.4889504 -0.3000378,0.1666877 -0.6667506,0.1666877 -0.3667129,0 -0.6704548,-0.1666877 Q 4.55237,2.4783009 4.3745698,2.1597423 4.2004738,1.8374795 4.2004738,1.4040916 Z m 0.6704548,0 q 0,0.2481794 0.081492,0.437092 0.081492,0.1889127 0.2333627,0.2926295 0.151871,0.1000126 0.3407837,0.1000126 0.1926168,0 0.3407836,-0.1000126 0.151871,-0.1037168 0.2333627,-0.2926295 0.085196,-0.1889126 0.085196,-0.437092 0,-0.2444752 -0.085196,-0.42968376 Q 6.0192213,0.78549517 5.8673503,0.68548258 5.7191835,0.58176582 5.5265667,0.58176582 q -0.1889127,0 -0.3407837,0.10001259 Q 5.0339121,0.781791 4.9524203,0.97070367 4.8709286,1.1559122 4.8709286,1.4040916 Z M 8.3824811,0.79660768 q 0.2370669,0 0.4333879,0.11853344 0.2000252,0.11853348 0.3148544,0.34819198 0.1185335,0.2259544 0.1185335,0.5408088 0,0.3111503 -0.1185335,0.5408089 Q 9.0158942,2.5746093 8.815869,2.6931427 8.619548,2.8116762 8.3824811,2.8116762 q -0.1778002,0 -0.3222628,-0.062971 Q 7.9194598,2.6820302 7.8157431,2.5486801 V 3.6228894 H 7.2119634 V 0.84846606 H 7.749068 q 0,0.0259292 0,0.0555625 0.0037,0.0259292 0.00741,0.0518584 0.0037,0.04445 0.00741,0.0851959 0.0037,0.040746 0.011113,0.077788 Q 7.8750098,0.95588699 8.0305849,0.87809942 8.1898643,0.79660768 8.3824811,0.79660768 Z M 8.226906,2.2819799 q 0.1148292,0 0.2037293,-0.055563 0.092604,-0.059267 0.1444626,-0.1666876 0.051858,-0.107421 0.051858,-0.2555878 0,-0.1518709 -0.051858,-0.262996 -0.051858,-0.1148293 -0.1444626,-0.174096 -0.0889,-0.062971 -0.2037293,-0.062971 -0.1111251,0 -0.2074336,0.055562 -0.092604,0.055563 -0.1481668,0.1703919 -0.055562,0.1111251 -0.055562,0.2741085 0,0.1629835 0.055562,0.2704044 0.055563,0.1037168 0.1481668,0.1555752 0.092604,0.051858 0.2074336,0.051858 z m 2.792944,0.3444878 q -0.207433,0.1852085 -0.585259,0.1852085 -0.340783,0 -0.5445128,-0.174096 Q 9.690053,2.45978 9.690053,2.0115755 V 1.3559374 H 9.3381569 V 0.84846606 H 9.690053 V 0.23357384 h 0.60378 v 0.61489222 h 0.585259 V 1.3559374 h -0.585259 v 0.5482171 q 0,0.1852085 0.05556,0.2889253 0.05556,0.1000126 0.211138,0.1000126 0.06668,0 0.125942,-0.018521 0.05927,-0.018521 0.122237,-0.066675 z"
     id="text1"
     style="font-weight:900;font-size:3.70417px;line-height:0.9;font-family:'HarmonyOS Sans';-inkscape-font-specification:'HarmonyOS Sans Heavy';text-align:center;letter-spacing:0px;word-spacing:0px;text-anchor:middle;stroke-width:0.264583"
     aria-label="Opt" />
</svg>
