<?xml version="1.0" encoding="UTF-8" standalone="no"?>
<!-- Created with Inkscape (http://www.inkscape.org/) -->

<svg
   width="7.1571593mm"
   height="3.0035539mm"
   viewBox="0 0 7.1571594 3.0035539"
   version="1.1"
   id="svg1"
   xmlns="http://www.w3.org/2000/svg"
   xmlns:svg="http://www.w3.org/2000/svg">
  <defs
     id="defs1" />
  <path
     d="m 1.3775988,2.3943055 q 0.194028,0 0.3337281,-0.1047752 Q 1.8510271,2.1847552 1.9363994,1.9907272 L 2.4913195,2.3166943 Q 2.4292305,2.5029611 2.2778887,2.6581835 2.1304274,2.8134059 1.9014744,2.9065394 1.6725213,3.0035534 1.393121,3.0035534 q -0.3841754,0 -0.7023813,-0.1823863 Q 0.3725338,2.6387807 0.1862669,2.3050526 0,1.9674439 0,1.5289406 0,1.0904373 0.1862669,0.7567092 0.3725338,0.4191005 0.6907397,0.2405947 1.0089456,0.0582084 1.393121,0.0582084 q 0.2794003,0 0.5083534,0.097014 0.228953,0.093133 0.3764143,0.2483558 0.1513418,0.1552224 0.2134308,0.3414893 L 1.9363994,1.0710345 Q 1.8510271,0.8770065 1.7113269,0.7722314 1.5716268,0.6674563 1.3775988,0.6674563 q -0.1862669,0 -0.3453699,0.1047751 -0.1552224,0.1008946 -0.2444752,0.2988031 -0.089253,0.194028 -0.089253,0.4579061 0,0.2638781 0.089253,0.4617866 0.089253,0.1979086 0.2444752,0.3026837 0.159103,0.1008946 0.3453699,0.1008946 z m 2.7957657,-0.023283 0.2211919,0.4385033 q -0.2173114,0.194028 -0.6131285,0.194028 -0.3570115,0 -0.5704423,-0.1823863 Q 3.0014354,2.6349002 3.0014354,2.1653524 V 1.4784933 H 2.6327822 V 0.9468566 H 3.0014354 V 0.3026837 H 3.6339666 V 0.9468566 H 4.2470951 V 1.4784933 H 3.6339666 v 0.5743229 q 0,0.194028 0.058208,0.3026837 0.058208,0.1047751 0.221192,0.1047751 0.06985,0 0.131939,-0.019403 0.062089,-0.019403 0.1280589,-0.06985 z M 5.8476496,0.8925288 q 0.1241779,0 0.2328336,0.038806 0.1125362,0.038806 0.1668641,0.1008945 L 6.002872,1.5134188 q -0.1125362,-0.081492 -0.2483558,-0.081492 -0.1358196,0 -0.2367142,0.081492 -0.1008946,0.077611 -0.1552224,0.2211919 -0.054328,0.1397001 -0.054328,0.3298476 V 2.9531065 H 4.6757205 V 0.9468566 H 5.2384017 Q 5.2539237,1.1602874 5.2733267,1.2573014 5.3625797,1.0787957 5.5100409,0.9856622 5.6575022,0.8925292 5.8476496,0.8925288 Z M 7.1571597,0 V 2.9531061 H 6.5246284 V 0 Z"
     id="text2"
     style="font-weight:900;font-size:3.88056px;line-height:0.9;font-family:'HarmonyOS Sans';-inkscape-font-specification:'HarmonyOS Sans Heavy';text-align:center;letter-spacing:0.079375px;text-anchor:middle;stroke-width:0.264583"
     aria-label="Ctrl" />
</svg>
