<?xml version="1.0" encoding="UTF-8" standalone="no"?>
<!-- Created with Inkscape (http://www.inkscape.org/) -->

<svg
   width="8.4819851mm"
   height="4.0004749mm"
   viewBox="0 0 8.4819848 4.0004749"
   version="1.1"
   id="svg1"
   xmlns="http://www.w3.org/2000/svg"
   xmlns:svg="http://www.w3.org/2000/svg">
  <defs
     id="defs1" />
  <g
     id="XMLID_5_"
     transform="matrix(0.07312787,0,0,0.07312787,-1.1277615,-1.1423907)">
    <path
       style="baseline-shift:baseline;display:inline;overflow:visible;vector-effect:none;fill:#000000;stroke-width:2.73526;stroke-linecap:round;stroke-linejoin:round;enable-background:accumulate;stop-color:#000000"
       d="m 42.774375,15.621824 c -15.074021,0 -27.352601,12.27858 -27.352601,27.352601 0,15.074117 12.278595,27.352601 27.352601,27.352601 15.074103,0 27.3526,-12.278498 27.3526,-27.352601 0,-15.074006 -12.278483,-27.352601 -27.3526,-27.352601 z m 0,5.47052 c 0.679088,0 1.423498,0.278 2.371985,1.180649 0.948484,0.90265 1.978353,2.415894 2.863475,4.407402 1.503679,3.383262 2.430035,8.247358 2.724574,13.55877 H 34.814341 c 0.294533,-5.311418 1.220906,-10.175512 2.724576,-13.55877 0.885112,-1.991506 1.914989,-3.504755 2.863476,-4.407402 0.948484,-0.902646 1.692852,-1.180649 2.371982,-1.180649 z m -9.626833,2.452118 c -0.173376,0.349403 -0.446282,0.547366 -0.609023,0.913534 -1.892726,4.258635 -2.906461,9.790157 -3.194699,15.781169 h -7.901268 c 0.956875,-7.372001 5.31499,-13.523074 11.70499,-16.694703 z m 19.253666,0 c 6.390008,3.171626 10.748125,9.322695 11.704989,16.694703 H 56.204929 C 55.916684,34.248148 54.902967,28.716627 53.010233,24.457996 52.84749,24.091829 52.574585,23.893864 52.401208,23.544462 Z M 21.442552,45.709685 h 7.901268 c 0.288238,5.991046 1.301971,11.522543 3.194699,15.781168 0.162742,0.366167 0.435647,0.564134 0.609023,0.913536 -6.390001,-3.171605 -10.748116,-9.32265 -11.70499,-16.694704 z m 13.371789,0 h 15.920068 c -0.294539,5.311446 -1.220895,10.175523 -2.724574,13.558769 -0.885122,1.991502 -1.914994,3.50476 -2.863475,4.407401 -0.948485,0.902641 -1.692888,1.180651 -2.371985,1.180651 -0.679138,0 -1.423498,-0.278012 -2.371982,-1.180651 -0.948487,-0.902635 -1.978364,-2.415902 -2.863476,-4.407401 -1.503669,-3.383243 -2.430043,-8.247318 -2.724576,-13.558769 z m 21.390588,0 h 7.901268 c -0.956861,7.372062 -5.314981,13.523101 -11.704989,16.694704 0.173388,-0.349402 0.446282,-0.547369 0.609025,-0.913536 1.892737,-4.258622 2.906454,-9.790117 3.194696,-15.781168 z"
       id="Vector" />
  </g>
  <path
     d="M 6.3446829,0.64451199 V 1.1964333 H 5.1630527 V 1.7891005 H 6.2224453 V 2.3373177 H 5.1630527 V 3.3559644 H 4.5296396 V 0.64451199 Z M 7.789305,1.3890502 q 0.3222628,0 0.5074713,0.2111376 0.1852085,0.2111377 0.1852085,0.6223006 v 1.133476 H 7.8782051 V 2.4262178 q 0,-0.2407711 -0.070379,-0.3741212 -0.070379,-0.1333501 -0.2407711,-0.1333501 -0.1111251,0 -0.1889126,0.062971 -0.077788,0.062971 -0.1222376,0.1815043 -0.040746,0.1185334 -0.040746,0.2889252 V 3.3559644 H 6.611379 V 1.4409085 h 0.5371046 q 0.014817,0.2037294 0.033338,0.2963336 0.092604,-0.1778001 0.2481793,-0.262996 0.1555752,-0.085196 0.3593041,-0.085196 z"
     id="text1"
     style="font-weight:900;font-size:3.70417px;line-height:0.9;font-family:'HarmonyOS Sans';-inkscape-font-specification:'HarmonyOS Sans Heavy';text-align:center;letter-spacing:0px;word-spacing:0px;text-anchor:middle;stroke-width:0.264583"
     aria-label="Fn" />
</svg>
