<?xml version="1.0" encoding="UTF-8" standalone="no"?>
<!-- Created with Inkscape (http://www.inkscape.org/) -->

<svg
   width="4mm"
   height="3.9999998mm"
   viewBox="0 0 4 3.9999998"
   version="1.1"
   id="svg1"
   xmlns="http://www.w3.org/2000/svg"
   xmlns:svg="http://www.w3.org/2000/svg">
  <defs
     id="defs1" />
  <path
     style="baseline-shift:baseline;display:inline;overflow:visible;vector-effect:none;fill:#000000;stroke-width:0.2;stroke-linecap:round;stroke-linejoin:round;enable-background:accumulate;stop-color:#000000"
     d="M 0.8,0 C 0.3605417,0 0,0.3605416 0,0.80000024 0,1.2394583 0.3605417,1.6 0.8,1.6 H 1.2000004 V 2.4 H 0.8 C 0.3605455,2.4 0,2.7605347 0,3.1999999 c 0,0.4394653 0.3605455,0.8 0.8,0.8 0.4394544,0 0.7999998,-0.3605347 0.7999998,-0.8 V 2.8 h 0.8000004 v 0.3999999 c 0,0.4394615 0.3605384,0.8 0.7999999,0.8 C 3.6394616,3.9999999 4,3.6394614 4,3.1999999 4,2.7605384 3.6394616,2.4 3.2000001,2.4 H 2.8000002 V 1.6 H 3.2000001 C 3.6394653,1.6 4,1.2394546 4,0.80000024 4,0.3605454 3.6394653,0 3.2000001,0 2.7605345,0 2.4000002,0.3605454 2.4000002,0.80000024 V 1.2000001 H 1.5999998 V 0.80000024 C 1.5999998,0.3605416 1.2394587,0 0.8,0 Z m 0,0.3999998 c 0.2232816,0 0.4000004,0.1767188 0.4000004,0.40000044 V 1.2000001 H 0.8 c -0.2232812,0 -0.4000001,-0.1767189 -0.4000001,-0.39999986 C 0.3999999,0.5767186 0.5767188,0.3999998 0.8,0.3999998 Z m 2.4000001,0 c 0.2232947,0 0.4,0.1767146 0.4,0.40000044 0,0.22328526 -0.1767053,0.39999986 -0.4,0.39999986 H 2.8000002 V 0.80000024 c 0,-0.22328584 0.1767053,-0.40000044 0.3999999,-0.40000044 z M 1.5999998,1.6 H 2.4000002 V 2.4 H 1.5999998 Z M 0.8,2.8 h 0.4000004 v 0.3999999 c 0,0.2232946 -0.1767151,0.4 -0.4000004,0.4 -0.2232853,0 -0.4000001,-0.1767054 -0.4000001,-0.4 C 0.3999999,2.9767052 0.5767147,2.8 0.8,2.8 Z m 2.0000002,0 h 0.3999999 c 0.2232984,0 0.4,0.1767011 0.4,0.3999999 0,0.2232984 -0.1767016,0.4 -0.4,0.4 -0.2232988,0 -0.3999999,-0.1767016 -0.3999999,-0.4 z"
     id="Vector" />
</svg>
