<?xml version="1.0" encoding="UTF-8" standalone="no"?>
<!-- Created with Inkscape (http://www.inkscape.org/) -->

<svg
   width="2.7784812mm"
   height="2.9453399mm"
   viewBox="0 0 2.7784811 2.9453399"
   version="1.1"
   id="svg1"
   xmlns="http://www.w3.org/2000/svg"
   xmlns:svg="http://www.w3.org/2000/svg">
  <defs
     id="defs1" />
  <g
     id="layer1"
     transform="translate(-65.839405,-158.74838)">
    <text
       xml:space="preserve"
       style="font-style:normal;font-variant:normal;font-weight:bold;font-stretch:normal;font-size:3.52777px;line-height:0.9;font-family:'HarmonyOS Sans';-inkscape-font-specification:'HarmonyOS Sans Bold';text-align:center;text-decoration-color:#000000;letter-spacing:0.079375px;writing-mode:lr-tb;direction:ltr;text-anchor:middle;fill:#000000;stroke-width:0.264583"
       x="68.657768"
       y="148.46114"
       id="text1"><tspan
         id="tspan1"
         style="stroke-width:0.264583"
         x="68.657768"
         y="148.46114" /></text>
    <path
       d="m 65.839405,160.21911 q 0,-0.45014 0.182387,-0.78387 0.186266,-0.33373 0.504472,-0.50836 0.318206,-0.1785 0.702382,-0.1785 0.384175,0 0.6985,0.1785 0.318206,0.17463 0.504473,0.50836 0.186267,0.33373 0.186267,0.78387 0,0.45403 -0.186267,0.78775 -0.186267,0.33373 -0.504473,0.50836 -0.314325,0.1785 -0.6985,0.1785 -0.384176,0 -0.702382,-0.17462 -0.318206,-0.17463 -0.504472,-0.50835 -0.182387,-0.33761 -0.182387,-0.79164 z m 0.702382,0 q 0,0.26 0.08537,0.45791 0.08537,0.19791 0.244475,0.30656 0.159103,0.10478 0.357012,0.10478 0.201789,0 0.357011,-0.10478 0.159103,-0.10865 0.244475,-0.30656 0.08925,-0.19791 0.08925,-0.45791 0,-0.25612 -0.08925,-0.45014 -0.08537,-0.19791 -0.244475,-0.30269 -0.155222,-0.10865 -0.357011,-0.10865 -0.197909,0 -0.357012,0.10477 -0.159103,0.10478 -0.244475,0.30269 -0.08537,0.19402 -0.08537,0.45402 z"
       id="text2"
       style="font-weight:900;font-size:3.88056px;line-height:0.9;font-family:'HarmonyOS Sans';-inkscape-font-specification:'HarmonyOS Sans Heavy';text-align:center;letter-spacing:0.0608542px;text-anchor:middle;stroke-width:0.264583"
       aria-label="O" />
  </g>
</svg>
