<?xml version="1.0" encoding="UTF-8" standalone="no"?>
<!-- Created with Inkscape (http://www.inkscape.org/) -->

<svg
   width="2.7784801mm"
   height="2.9453399mm"
   viewBox="0 0 2.77848 2.9453398"
   version="1.1"
   id="svg1"
   xmlns="http://www.w3.org/2000/svg"
   xmlns:svg="http://www.w3.org/2000/svg">
  <defs
     id="defs1" />
  <g
     id="layer1"
     transform="translate(-62.779843,-140.11067)">
    <text
       xml:space="preserve"
       style="font-style:normal;font-variant:normal;font-weight:bold;font-stretch:normal;font-size:3.52777px;line-height:0.9;font-family:'HarmonyOS Sans';-inkscape-font-specification:'HarmonyOS Sans Bold';text-align:center;text-decoration-color:#000000;letter-spacing:0.079375px;writing-mode:lr-tb;direction:ltr;text-anchor:middle;fill:#000000;stroke-width:0.264583"
       x="68.657768"
       y="148.46114"
       id="text1"><tspan
         id="tspan1"
         style="stroke-width:0.264583"
         x="68.657768"
         y="148.46114" /></text>
    <g
       id="text2"
       style="font-weight:bold;font-size:3.88056px;line-height:0.9;font-family:'Liberation Serif';-inkscape-font-specification:'Liberation Serif Bold';text-align:center;letter-spacing:0.079375px;text-anchor:middle;stroke-width:0.264583"
       aria-label="&#10;*&#10;8">
      <path
         d="m 62.779843,141.5814 q 0,-0.45014 0.182386,-0.78387 0.186267,-0.33373 0.504473,-0.50836 0.318206,-0.1785 0.702381,-0.1785 0.384175,0 0.698501,0.1785 0.318206,0.17463 0.504473,0.50836 0.186266,0.33373 0.186266,0.78387 0,0.45403 -0.186266,0.78775 -0.186267,0.33373 -0.504473,0.50836 -0.314326,0.1785 -0.698501,0.1785 -0.384175,0 -0.702381,-0.17462 -0.318206,-0.17463 -0.504473,-0.50836 -0.182386,-0.3376 -0.182386,-0.79163 z m 0.702381,0 q 0,0.26 0.08537,0.45791 0.08537,0.1979 0.244475,0.30656 0.159103,0.10478 0.357012,0.10478 0.201789,0 0.357012,-0.10478 0.159102,-0.10866 0.244475,-0.30656 0.08925,-0.19791 0.08925,-0.45791 0,-0.25612 -0.08925,-0.45014 -0.08537,-0.19791 -0.244475,-0.30269 -0.155223,-0.10865 -0.357012,-0.10865 -0.197909,0 -0.357012,0.10477 -0.159102,0.10478 -0.244475,0.30268 -0.08537,0.19403 -0.08537,0.45403 z"
         id="text3"
         style="font-weight:900;font-family:'HarmonyOS Sans';-inkscape-font-specification:'HarmonyOS Sans Heavy';stroke-width:0.0700042"
         aria-label="O" />
    </g>
  </g>
</svg>
