<?xml version="1.0" encoding="UTF-8" standalone="no"?>
<!-- Created with Inkscape (http://www.inkscape.org/) -->

<svg
   width="10.110595mm"
   height="3.7874265mm"
   viewBox="0 0 10.110595 3.7874267"
   version="1.1"
   id="svg1"
   xmlns="http://www.w3.org/2000/svg"
   xmlns:svg="http://www.w3.org/2000/svg">
  <defs
     id="defs1" />
  <g
     id="text1"
     style="font-weight:900;font-size:3.88056px;line-height:0.9;font-family:'HarmonyOS Sans';-inkscape-font-specification:'HarmonyOS Sans Heavy';text-align:center;letter-spacing:0.0608542px;text-anchor:middle;stroke-width:0.264583"
     aria-label="~&#10;`"
     transform="translate(4.3141784,0.62043812)">
    <g
       id="text4"
       style="stroke-width:0.0700042"
       aria-label="_&#10;-">
      <path
         d="m -4.3141784,-0.62043812 h 1.0283483 c 0.2380077,0 0.4449709,0.0400991 0.6208896,0.12029735 0.1759187,0.0776112 0.3104448,0.18885392 0.4035783,0.33372816 0.095721,0.14487423 0.1435807,0.31432535 0.1435807,0.50835335 0,0.19661503 -0.04786,0.36735967 -0.1435807,0.51223391 -0.093133,0.14228717 -0.2276596,0.25352985 -0.4035783,0.33372815 -0.1733317,0.077611 -0.3802949,0.1164168 -0.6208896,0.1164168 h -0.3647726 v 0.9158121 h -0.6635757 z m 0.6635757,1.36595709 h 0.291042 c 0.1629835,0 0.2936291,-0.0310445 0.3919366,-0.0931334 0.1008945,-0.0620889 0.1513418,-0.16557053 0.1513418,-0.31044479 0,-0.1422872 -0.050447,-0.24447528 -0.1513418,-0.30656424 -0.1008946,-0.064676 -0.2315401,-0.097014 -0.3919366,-0.097014 h -0.291042 z M -0.4488124,0.21388226 H 0.11386879 V 1.979537 c 0,0.4139264 -0.10736216,0.7153166 -0.32208647,0.9041705 -0.21213727,0.1888539 -0.47989591,0.2832809 -0.80327592,0.2832809 -0.2328336,0 -0.4346227,-0.049154 -0.6053674,-0.1474613 C -1.7850186,2.9238066 -1.9066094,2.7918676 -1.9816336,2.62371 l 0.4773089,-0.2794003 c 0.049154,0.090546 0.11383,0.1591029 0.194028,0.2056696 0.082785,0.049154 0.1823863,0.073731 0.2988031,0.073731 0.13452609,0 0.23671417,-0.027164 0.30656425,-0.081492 0.0724371,-0.054328 0.12159088,-0.1319392 0.14746128,-0.2328336 0.0258704,-0.1008945 0.0388056,-0.2354206 0.0388056,-0.4035782 l 0.0620889,0.00776 c -0.067263,0.1215909 -0.15263535,0.2108437 -0.25611695,0.2677586 -0.1034816,0.059502 -0.22248544,0.089253 -0.35701148,0.089253 -0.1655706,0 -0.320793,-0.042686 -0.4656672,-0.1280585 -0.1448742,-0.082785 -0.2625846,-0.2030826 -0.353131,-0.360892 -0.087959,-0.1603965 -0.131939,-0.3492504 -0.131939,-0.5665618 0,-0.21731134 0.04398,-0.40616525 0.131939,-0.56656173 0.087959,-0.16039647 0.2043762,-0.28198735 0.3492504,-0.36477263 0.1474613,-0.0827853 0.3039772,-0.12417792 0.4695478,-0.12417792 0.12676492,0 0.24059468,0.0271639 0.34148924,0.0814918 0.10089456,0.0517408 0.18497336,0.13323256 0.25223639,0.24447527 0.0155223,-0.0879593 0.0245769,-0.17850546 0.027164,-0.27163833 z M -0.94552407,1.7389423 c 0.0776112,0 0.1487548,-0.019403 0.2134308,-0.058208 0.064676,-0.038805 0.1164168,-0.097014 0.1552224,-0.1746252 0.0388056,-0.080198 0.0582084,-0.1772122 0.0582084,-0.291042 0,-0.1138297 -0.0194028,-0.2069632 -0.0582084,-0.2794003 -0.0388056,-0.0750242 -0.0905464,-0.13064551 -0.1552224,-0.16686407 -0.0620889,-0.0362185 -0.13323253,-0.0543278 -0.2134308,-0.0543278 -0.0827852,0 -0.15651593,0.0206963 -0.22119193,0.062089 -0.064676,0.0388056 -0.1151233,0.0957205 -0.1513419,0.17074463 -0.033631,0.0724371 -0.050447,0.16169004 -0.050447,0.26775864 0,0.1034816 0.018109,0.1953215 0.054328,0.2755198 0.036219,0.080198 0.085373,0.1422871 0.1474613,0.1862668 0.064676,0.041393 0.1384065,0.062089 0.22119153,0.062088 z M 2.5364174,0.89686081 V -0.62043812 H 3.1999931 V 1.071486 c 0,0.2431817 -0.050447,0.455319 -0.1513418,0.6364118 C 2.9503438,1.8889906 2.806763,2.0273972 2.6179091,2.1231177 2.4316422,2.2214252 2.2091568,2.270579 1.9504528,2.270579 1.6917488,2.270579 1.4679698,2.221425 1.2791159,2.1231177 1.0928491,2.0273972 0.94926835,1.8889906 0.84837379,1.7078978 0.75006627,1.526805 0.70091251,1.3146677 0.70091251,1.071486 V -0.62043812 H 1.3644883 v 1.51729893 c 0,0.26646509 0.050447,0.46178669 0.1513418,0.58596459 0.1034816,0.1215909 0.2483558,0.1823863 0.4346227,0.1823863 0.1836799,0 0.3272606,-0.060795 0.4307422,-0.1823863 C 2.4846766,1.3586475 2.5364174,1.1633259 2.5364174,0.89686081 Z M 4.8883658,0.15955442 c 0.1655705,0 0.3169124,0.0413926 0.4540255,0.12417792 0.1397002,0.0827853 0.2496494,0.20437616 0.3298476,0.36477263 0.082785,0.15780944 0.1241779,0.34666335 0.1241779,0.56656173 0,0.2173114 -0.041393,0.4061653 -0.1241779,0.5665618 C 5.5920407,1.942025 5.4820915,2.0636158 5.3423913,2.1464011 5.2052782,2.2291864 5.0539363,2.270579 4.8883658,2.270579 4.7641879,2.270579 4.6516516,2.2472957 4.5507571,2.200729 4.4524496,2.156749 4.3670772,2.0881925 4.2946401,1.9950594 V 3.1204216 H 3.6621089 V 0.21388226 h 0.5626812 v 0.0582084 l 0.00776,0.0543278 c 0.00259,0.0310445 0.00517,0.0607954 0.00776,0.0892529 0.00259,0.0284575 0.00647,0.0556214 0.011642,0.0814918 C 4.3218034,0.38333339 4.4110569,0.29925458 4.5197126,0.24492674 4.6309553,0.18801186 4.7538397,0.15955442 4.8883658,0.15955442 Z M 4.7253823,1.7156589 c 0.080198,0 0.1513419,-0.019403 0.2134308,-0.058208 0.064676,-0.041393 0.1151233,-0.099601 0.1513418,-0.1746252 0.036219,-0.075024 0.054328,-0.1642771 0.054328,-0.2677587 0,-0.1060686 -0.018109,-0.1979085 -0.054328,-0.27551974 C 5.0539362,0.85934903 5.003489,0.79855359 4.9388131,0.75716095 4.8767244,0.71318128 4.8055808,0.69119145 4.7253823,0.69119145 c -0.077611,0 -0.1500483,0.0194028 -0.2173114,0.0582084 -0.064676,0.0388056 -0.1164168,0.0983075 -0.1552224,0.17850575 -0.038805,0.0776112 -0.058208,0.1733317 -0.058208,0.2871614 0,0.1138298 0.019403,0.2082568 0.058208,0.2832809 0.038805,0.072437 0.090546,0.126765 0.1552224,0.1629835 0.064676,0.036219 0.1371131,0.054328 0.2173114,0.054328 z"
         id="text6"
         style="font-size:3.88056px;stroke-width:0.0185219"
         aria-label="PgUp" />
    </g>
  </g>
</svg>
