<?xml version="1.0" encoding="UTF-8" standalone="no"?>
<!-- Created with Inkscape (http://www.inkscape.org/) -->

<svg
   width="9.771246mm"
   height="3.7874267mm"
   viewBox="0 0 9.7712462 3.7874268"
   version="1.1"
   id="svg1"
   xmlns="http://www.w3.org/2000/svg"
   xmlns:svg="http://www.w3.org/2000/svg">
  <defs
     id="defs1" />
  <path
     d="m 0,0 h 1.0283484 q 0.3570115,0 0.6208896,0.1202974 0.263878,0.1164168 0.4035782,0.3337281 0.1435807,0.2173114 0.1435807,0.5083534 0,0.2949225 -0.1435807,0.5122339 Q 1.913116,1.6880436 1.649238,1.8083409 1.3892405,1.9247577 1.0283484,1.9247577 H 0.6635758 V 2.8405699 H 0 Z m 0.6635758,1.3659571 h 0.2910419 q 0.2444753,0 0.3919366,-0.093133 0.1513418,-0.093134 0.1513418,-0.3104448 0,-0.2134308 -0.1513418,-0.3065643 Q 1.1952125,0.5588006 0.9546177,0.5588006 H 0.6635758 Z M 3.8805566,0.8343204 h 0.5626812 v 1.7656548 q 0,0.6208895 -0.3220865,0.9041704 -0.3182059,0.2832809 -0.8032759,0.2832809 -0.3492504,0 -0.6053673,-0.1474613 Q 2.4602717,3.4963845 2.3477354,3.2441481 L 2.8250443,2.9647478 q 0.073731,0.1358196 0.194028,0.2056697 0.1241779,0.073731 0.2988031,0.073731 0.2017891,0 0.3065642,-0.081492 0.1086557,-0.081492 0.1474613,-0.2328335 0.038806,-0.1513419 0.038806,-0.4035783 l 0.062089,0.00776 q -0.1008946,0.1823864 -0.256117,0.2677587 -0.1552224,0.089253 -0.3570115,0.089253 -0.2483558,0 -0.4656672,-0.1280585 Q 2.5766885,2.6387808 2.4408689,2.4020666 2.3089298,2.1614719 2.3089298,1.8355049 q 0,-0.3259671 0.1319391,-0.5665618 0.131939,-0.2405947 0.3492504,-0.3647726 0.2211919,-0.1241779 0.4695477,-0.1241779 0.1901474,0 0.3414893,0.081492 0.1513418,0.077611 0.2522364,0.2444753 0.023283,-0.1319393 0.027164,-0.2716395 z m -0.4967117,1.52506 q 0.1164168,0 0.2134308,-0.058208 0.097014,-0.058208 0.1552224,-0.1746252 0.058208,-0.1202973 0.058208,-0.2910419 0,-0.1707447 -0.058208,-0.2794004 -0.058208,-0.1125362 -0.1552224,-0.166864 -0.093133,-0.054328 -0.2134308,-0.054328 -0.1241779,0 -0.2211919,0.062089 -0.097014,0.058208 -0.1513418,0.1707446 -0.050447,0.1086557 -0.050447,0.2677587 0,0.1552224 0.054328,0.2755197 0.054328,0.1202974 0.1474613,0.1862669 0.097014,0.062089 0.2211914,0.062089 z M 4.924427,0 h 1.0244679 q 0.4152199,0 0.7528286,0.1668641 0.3376087,0.1668641 0.5316367,0.4889505 0.1979085,0.318206 0.1979085,0.7605898 0,0.4423838 -0.1940279,0.7644703 Q 7.0432128,2.5029612 6.705604,2.6737058 6.3679953,2.8405699 5.9488949,2.8405699 H 4.924427 Z m 0.6635758,2.2817692 h 0.2871614 q 0.2794003,0 0.4695478,-0.1008945 Q 6.53874,2.0799801 6.635754,1.8859521 6.732768,1.6919241 6.732768,1.4164044 6.732768,1.1447652 6.635754,0.9546178 6.53874,0.7605898 6.344712,0.6596952 6.1545645,0.5588006 5.8751642,0.5588006 H 5.5880028 Z M 9.0455817,0.7799926 q 0.3376088,0 0.5316367,0.2211919 0.194028,0.2211919 0.194028,0.651934 V 2.8405699 H 9.1387152 V 1.8665493 q 0,-0.2522364 -0.073731,-0.3919365 -0.07373,-0.1397002 -0.2522361,-0.1397002 -0.1164168,0 -0.1979085,0.065969 -0.081492,0.06597 -0.1280585,0.190148 Q 8.444095,1.7152075 8.444095,1.8937133 V 2.8405699 H 7.8115637 V 0.8343204 H 8.3742449 Q 8.3897671,1.0477512 8.4091699,1.1447652 8.5061839,0.9584983 8.6691674,0.8692454 8.8321509,0.7799926 9.0455817,0.7799926 Z"
     id="text4"
     style="font-weight:900;font-size:3.88056px;line-height:0.9;font-family:'HarmonyOS Sans';-inkscape-font-specification:'HarmonyOS Sans Heavy';text-align:center;letter-spacing:0px;word-spacing:0px;text-anchor:middle;stroke-width:0.264583"
     aria-label="PgDn" />
</svg>
