<?xml version="1.0" encoding="UTF-8" standalone="no"?>
<!-- Created with Inkscape (http://www.inkscape.org/) -->

<svg
   width="10.660275mm"
   height="2.8911302mm"
   viewBox="0 0 10.660275 2.8911303"
   version="1.1"
   id="svg1"
   xmlns="http://www.w3.org/2000/svg"
   xmlns:svg="http://www.w3.org/2000/svg">
  <defs
     id="defs1" />
  <g
     id="layer1"
     transform="translate(-43.609877,-136.0947)">
    <text
       xml:space="preserve"
       style="font-weight:900;font-size:3.88056px;line-height:0.9;font-family:'HarmonyOS Sans';-inkscape-font-specification:'HarmonyOS Sans Heavy';text-align:center;text-decoration-color:#000000;letter-spacing:0px;word-spacing:0px;writing-mode:lr-tb;direction:ltr;text-anchor:middle;fill:#000000;stroke-width:0.264583"
       x="44.30838"
       y="132.97408"
       id="text3"><tspan
         id="tspan3"
         style="stroke-width:0.264583"
         x="44.30838"
         y="132.97408" /></text>
    <path
       d="m 43.609877,136.0947 h 1.028349 q 0.357011,0 0.620889,0.1203 0.263878,0.11641 0.403578,0.33372 0.143581,0.21732 0.143581,0.50836 0,0.29492 -0.143581,0.51223 -0.1397,0.21343 -0.403578,0.33373 -0.259997,0.11642 -0.620889,0.11642 h -0.364773 v 0.91581 h -0.663576 z m 0.663576,1.36596 h 0.291042 q 0.244475,0 0.391937,-0.0931 0.151341,-0.0931 0.151341,-0.31044 0,-0.21343 -0.151341,-0.30657 -0.151342,-0.097 -0.391937,-0.097 h -0.291042 z m 2.580574,-0.58597 q 0.434622,0 0.671336,0.24448 0.236715,0.24059 0.236715,0.68298 v 1.13312 h -0.531637 q -0.01552,-0.15134 -0.02716,-0.21731 -0.08925,0.13582 -0.225072,0.20179 -0.13194,0.066 -0.333729,0.066 -0.21343,0 -0.391936,-0.0776 -0.174625,-0.0737 -0.279401,-0.21343 -0.100894,-0.14358 -0.100894,-0.3376 0,-0.28329 0.217311,-0.46179 0.217312,-0.18239 0.543279,-0.20567 0.325967,-0.0272 0.632531,0.12418 l -0.128059,0.14358 V 137.841 q 0.0039,-0.24836 -0.08925,-0.35313 -0.09313,-0.10866 -0.256117,-0.10866 -0.13582,0 -0.232834,0.066 -0.09701,0.066 -0.155222,0.18239 l -0.446265,-0.26 q 0.116417,-0.22507 0.34537,-0.35701 0.232834,-0.13582 0.55104,-0.13582 z m -0.100895,1.64148 q 0.09313,0 0.182386,-0.0388 0.08925,-0.0388 0.143581,-0.10865 0.05821,-0.0699 0.05821,-0.16687 v -0.0504 q -0.186266,-0.0466 -0.329847,-0.0388 -0.143581,0.008 -0.225073,0.066 -0.07761,0.0582 -0.07761,0.14746 0,0.0854 0.06985,0.1397 0.06985,0.0504 0.178506,0.0504 z m 2.728035,-0.64417 v -0.94298 h 0.632532 v 2.00625 h -0.558801 q -0.0039,-0.0155 -0.0039,-0.0349 0,-0.0155 -0.0039,-0.031 -0.01164,-0.16298 -0.02716,-0.24448 -0.100895,0.18239 -0.259998,0.27164 -0.159103,0.0893 -0.368653,0.0893 -0.34537,0 -0.539398,-0.2212 -0.194028,-0.22119 -0.194028,-0.65193 v -1.18357 h 0.632532 v 0.97014 q 0,0.24059 0.06985,0.38805 0.06985,0.14359 0.248356,0.14359 0.120297,0 0.201789,-0.066 0.08537,-0.066 0.128058,-0.19015 0.04269,-0.12418 0.04269,-0.30268 z m 2.646542,0.4579 q 0,0.20567 -0.112537,0.35701 -0.112536,0.14746 -0.310444,0.22119 -0.194028,0.0776 -0.442384,0.0776 -0.325967,0 -0.566562,-0.1397 -0.240595,-0.1397 -0.329848,-0.38418 l 0.457906,-0.26776 q 0.05045,0.13582 0.170745,0.21343 0.120297,0.0737 0.271639,0.0737 0.09701,0 0.155223,-0.031 0.05821,-0.0349 0.05821,-0.097 0,-0.0543 -0.04657,-0.0893 -0.04269,-0.0388 -0.112536,-0.0621 -0.06597,-0.0272 -0.197908,-0.066 -0.20179,-0.0582 -0.337609,-0.11641 -0.131939,-0.0582 -0.232834,-0.17075 -0.09701,-0.11642 -0.09701,-0.2988 0,-0.20955 0.116417,-0.36089 0.116417,-0.15523 0.310445,-0.23284 0.197908,-0.0815 0.422981,-0.0815 0.318206,0 0.535517,0.1397 0.217312,0.13582 0.27552,0.35313 l -0.457906,0.25612 q -0.05433,-0.11642 -0.1397,-0.17851 -0.08537,-0.066 -0.217312,-0.066 -0.09313,0 -0.147461,0.0388 -0.05045,0.0349 -0.05045,0.0931 0,0.0505 0.04269,0.0893 0.04269,0.0349 0.108656,0.0582 0.06985,0.0233 0.190147,0.0582 0.20567,0.0543 0.341489,0.11642 0.139701,0.0582 0.240595,0.18239 0.100895,0.12029 0.100895,0.31432 z m 1.210738,-1.45521 q 0.314326,0 0.543279,0.15522 0.228953,0.15523 0.325967,0.43851 0.100894,0.2794 0.03881,0.64417 h -1.284465 q 0.02716,0.11254 0.08537,0.19015 0.05821,0.0776 0.13582,0.12029 0.08149,0.0388 0.182386,0.0388 0.120298,0 0.217312,-0.0582 0.100894,-0.0621 0.151341,-0.17074 l 0.461787,0.27552 q -0.08537,0.22895 -0.322086,0.35313 -0.236715,0.12418 -0.531637,0.12418 -0.271639,0 -0.512234,-0.1203 -0.236714,-0.1203 -0.384176,-0.35701 -0.14358,-0.2406 -0.14358,-0.58597 0,-0.33761 0.14358,-0.57432 0.147462,-0.23671 0.384176,-0.35313 0.236714,-0.1203 0.508353,-0.1203 z m -0.0194,0.50447 q -0.08925,0 -0.159103,0.0388 -0.06985,0.0349 -0.120297,0.10477 -0.05045,0.066 -0.07761,0.15911 h 0.667456 q -0.01164,-0.1009 -0.05433,-0.16687 -0.04269,-0.0699 -0.108655,-0.10089 -0.06597,-0.0349 -0.147462,-0.0349 z"
       id="text1"
       style="font-weight:900;font-size:3.88056px;line-height:0.9;font-family:'HarmonyOS Sans';-inkscape-font-specification:'HarmonyOS Sans Heavy';text-align:center;letter-spacing:0px;word-spacing:0px;text-anchor:middle;stroke-width:0.264583"
       aria-label="Pause" />
  </g>
</svg>
