<?xml version="1.0" encoding="UTF-8" standalone="no"?>
<!-- Created with Inkscape (http://www.inkscape.org/) -->

<svg
   width="9.0128708mm"
   height="2.9453199mm"
   viewBox="0 0 9.012871 2.9453199"
   version="1.1"
   id="svg1"
   xmlns="http://www.w3.org/2000/svg"
   xmlns:svg="http://www.w3.org/2000/svg">
  <defs
     id="defs1" />
  <g
     id="layer1"
     transform="translate(-104.0515,-119.15253)">
    <path
       d="m 104.0515,119.20678 h 1.02835 c 0.23801,0 0.44497,0.0401 0.62089,0.1203 0.17592,0.0776 0.31045,0.18886 0.40358,0.33373 0.0957,0.14487 0.14358,0.31432 0.14358,0.50835 0,0.19661 -0.0479,0.36736 -0.14358,0.51223 -0.0931,0.14229 -0.22766,0.25354 -0.40358,0.33373 -0.17333,0.0776 -0.3803,0.11642 -0.62089,0.11642 h -0.36477 v 0.91581 h -0.66358 z m 0.66358,1.36596 h 0.29104 c 0.16299,0 0.29363,-0.031 0.39194,-0.0931 0.10089,-0.0621 0.15134,-0.16555 0.15134,-0.31045 0,-0.14229 -0.0505,-0.24447 -0.15134,-0.30656 -0.10089,-0.0647 -0.23154,-0.097 -0.39194,-0.097 h -0.29104 z m 4.39359,0.64029 c 0,0.20697 -0.0556,0.37771 -0.16686,0.51224 -0.10866,0.13193 -0.24577,0.22636 -0.41134,0.28328 -0.16557,0.0595 -0.33503,0.0893 -0.50836,0.0893 -0.26129,0 -0.50059,-0.0608 -0.7179,-0.18239 -0.21473,-0.119 -0.3596,-0.29233 -0.43462,-0.51999 l 0.53551,-0.30657 c 0.0569,0.12935 0.13972,0.23154 0.24836,0.30657 0.11124,0.0724 0.24189,0.10865 0.39194,0.10865 0.11124,0 0.20049,-0.0207 0.26776,-0.0621 0.0699,-0.044 0.10477,-0.10738 0.10477,-0.19014 0,-0.0673 -0.0233,-0.12289 -0.0699,-0.16687 -0.0466,-0.044 -0.10481,-0.0802 -0.17463,-0.10865 -0.0699,-0.0285 -0.16686,-0.0608 -0.29104,-0.097 -0.18368,-0.0543 -0.33631,-0.10737 -0.4579,-0.1591 -0.11901,-0.0543 -0.2212,-0.13712 -0.30657,-0.24836 -0.0854,-0.11124 -0.12806,-0.25611 -0.12806,-0.43462 0,-0.19661 0.0504,-0.36089 0.15135,-0.49283 0.10348,-0.13194 0.23671,-0.23025 0.39969,-0.29492 0.16557,-0.0647 0.34279,-0.097 0.53164,-0.097 0.1604,0 0.31045,0.0259 0.45015,0.0776 0.14229,0.0491 0.26258,0.12286 0.36089,0.22119 0.0983,0.0983 0.16557,0.21731 0.20179,0.35701 l -0.54328,0.30656 c -0.0414,-0.119 -0.10608,-0.20955 -0.19403,-0.27164 -0.0854,-0.0647 -0.19015,-0.097 -0.31433,-0.097 -0.10607,0 -0.19273,0.0246 -0.25999,0.0737 -0.0647,0.0491 -0.097,0.11252 -0.097,0.19015 0,0.0621 0.022,0.11381 0.066,0.15522 0.044,0.0414 0.10092,0.075 0.17075,0.10089 0.0699,0.0259 0.16557,0.0569 0.28716,0.0931 0.18627,0.0543 0.3402,0.10995 0.46179,0.16686 0.12159,0.0569 0.22636,0.14101 0.31432,0.25224 0.088,0.11124 0.13194,0.25611 0.13194,0.43462 z m 1.29487,0.33761 c 0.0776,0 0.14229,-0.0168 0.19403,-0.0504 0.0543,-0.0362 0.10219,-0.0879 0.14358,-0.15522 l 0.47731,0.27552 c -0.0621,0.15522 -0.16684,0.27293 -0.31433,0.35313 -0.14746,0.0828 -0.31432,0.12418 -0.50059,0.12418 -0.17851,0 -0.34796,-0.0401 -0.50835,-0.1203 -0.15781,-0.0776 -0.28717,-0.19532 -0.38806,-0.35313 -0.0983,-0.16039 -0.14746,-0.35442 -0.14746,-0.58208 0,-0.22766 0.0492,-0.4204 0.14746,-0.57821 0.10089,-0.16039 0.23025,-0.2794 0.38806,-0.35701 0.16039,-0.0802 0.32984,-0.1203 0.50835,-0.1203 0.18627,0 0.35313,0.0414 0.50059,0.12418 0.14747,0.0802 0.25224,0.19662 0.31433,0.34925 l -0.47731,0.2794 c -0.0414,-0.0647 -0.0893,-0.11511 -0.14358,-0.15134 -0.0517,-0.0388 -0.11641,-0.0582 -0.19403,-0.0582 -0.0776,0 -0.14617,0.022 -0.20567,0.066 -0.0595,0.0414 -0.10603,0.1009 -0.1397,0.17851 -0.0311,0.075 -0.0466,0.16427 -0.0466,0.26776 0,0.10089 0.0155,0.19015 0.0466,0.26776 0.0336,0.0776 0.0802,0.13711 0.1397,0.1785 0.0595,0.0414 0.12809,0.0621 0.20567,0.0621 z m 2.26113,-1.56387 c 0.0828,0 0.1604,0.0129 0.23283,0.0388 0.075,0.0259 0.13065,0.0595 0.16687,0.10089 l -0.24448,0.48119 c -0.075,-0.0543 -0.1578,-0.0815 -0.24835,-0.0815 -0.0905,0 -0.16945,0.0272 -0.23672,0.0815 -0.0673,0.0517 -0.119,0.12547 -0.15522,0.2212 -0.0362,0.0931 -0.0543,0.20308 -0.0543,0.32984 v 0.88865 h -0.63253 v -2.00625 h 0.56268 c 0.0103,0.14229 0.022,0.24577 0.0349,0.31045 0.0595,-0.11901 0.13837,-0.20955 0.23671,-0.27164 0.0983,-0.0621 0.21084,-0.0931 0.33761,-0.0931 z"
       id="text2"
       style="font-weight:900;font-size:3.88056px;line-height:0.9;font-family:'HarmonyOS Sans';-inkscape-font-specification:'HarmonyOS Sans Heavy';text-align:center;letter-spacing:0.0608542px;text-anchor:middle;stroke-width:0.264583"
       aria-label="P Scr" />
  </g>
</svg>
