<?xml version="1.0" encoding="UTF-8" standalone="no"?>
<!-- Created with Inkscape (http://www.inkscape.org/) -->

<svg
   width="10.660276mm"
   height="2.8910201mm"
   viewBox="0 0 10.660276 2.8910201"
   version="1.1"
   id="svg1"
   xmlns="http://www.w3.org/2000/svg"
   xmlns:svg="http://www.w3.org/2000/svg">
  <defs
     id="defs1" />
  <path
     d="m 0,0 h 1.0283484 q 0.3570115,0 0.6208895,0.120298 0.2638781,0.116417 0.4035783,0.333728 0.1435807,0.217311 0.1435807,0.508353 0,0.294923 -0.1435807,0.512234 Q 1.913116,1.688044 1.6492379,1.808341 1.3892404,1.924758 1.0283484,1.924758 H 0.6635757 V 2.84057 H 0 Z m 0.6635757,1.365958 h 0.291042 q 0.2444753,0 0.3919366,-0.09313 0.1513418,-0.09313 0.1513418,-0.310445 0,-0.21343 -0.1513418,-0.306564 Q 1.1952124,0.558809 0.9546177,0.558809 H 0.6635757 Z M 3.2441493,0.779993 q 0.4346227,0 0.6713368,0.244475 0.2367142,0.240595 0.2367142,0.682979 V 2.84057 H 3.6205636 Q 3.6050414,2.689228 3.5933997,2.623259 3.5041468,2.759079 3.3683272,2.825048 3.2363881,2.891018 3.034599,2.891018 q -0.2134308,0 -0.3919365,-0.07761 Q 2.4680373,2.739678 2.3632622,2.599978 2.2623676,2.456397 2.2623676,2.262369 q 0,-0.283281 0.2173114,-0.461787 Q 2.6969903,1.618196 3.0229573,1.594913 3.3489244,1.567753 3.6554886,1.719091 L 3.5274302,1.862671 V 1.746254 q 0.00388,-0.248355 -0.089253,-0.353131 -0.093133,-0.108655 -0.256117,-0.108655 -0.1358196,0 -0.2328336,0.06597 -0.097014,0.06597 -0.1552224,0.182387 L 2.3477399,1.272824 Q 2.4641567,1.047752 2.6931098,0.915813 2.9259433,0.779993 3.2441493,0.779993 Z M 3.1432547,2.42147 q 0.093133,0 0.1823863,-0.03881 0.089253,-0.0388 0.1435807,-0.108655 0.058208,-0.06985 0.058208,-0.166864 v -0.05045 q -0.1862668,-0.04657 -0.3298476,-0.0388 -0.1435807,0.0078 -0.2250724,0.06597 -0.077611,0.05821 -0.077611,0.147461 0,0.08537 0.06985,0.139701 0.06985,0.05045 0.1785058,0.05045 z M 5.87129,1.777297 V 0.834321 H 6.5038213 V 2.84057 H 5.9450207 q -0.00388,-0.01552 -0.00388,-0.03493 0,-0.01552 -0.00388,-0.03104 Q 5.9256187,2.611616 5.9100967,2.530125 5.8092022,2.712511 5.6500992,2.801764 5.4909963,2.891014 5.281446,2.891014 4.9360762,2.891014 4.7420482,2.669822 4.5480202,2.44863 4.5480202,2.017888 V 0.834317 h 0.6325313 v 0.97014 q 0,0.240595 0.06985,0.388056 0.06985,0.143581 0.2483558,0.143581 0.1202973,0 0.2017891,-0.06597 Q 5.7859185,2.204154 5.828605,2.079977 5.871291,1.955799 5.871291,1.777293 Z m 2.6465413,0.457906 q 0,0.20567 -0.1125362,0.357011 -0.1125363,0.147462 -0.3104448,0.221192 -0.194028,0.07761 -0.4423839,0.07761 -0.325967,0 -0.5665617,-0.139701 Q 6.84531,2.611615 6.7560571,2.36714 L 7.2139632,2.099381 q 0.050447,0.13582 0.1707446,0.213431 0.1202974,0.07373 0.2716392,0.07373 0.097014,0 0.1552224,-0.03104 0.058208,-0.03493 0.058208,-0.09701 0,-0.05433 -0.046567,-0.08925 Q 7.7805244,2.130442 7.7106741,2.107152 7.6447041,2.079992 7.5127656,2.041182 7.3109765,1.982972 7.1751569,1.924765 7.0432178,1.866555 6.9423233,1.754021 6.8453093,1.637604 6.8453093,1.455217 q 0,-0.20955 0.1164168,-0.360892 0.1164168,-0.155222 0.3104448,-0.232833 0.1979085,-0.08149 0.422981,-0.08149 0.3182059,0 0.5355173,0.1397 0.2173113,0.13582 0.2755197,0.353131 L 8.0482835,1.528941 Q 7.9939557,1.412524 7.9085834,1.350435 7.8232114,1.284465 7.691272,1.284465 q -0.093133,0 -0.1474612,0.0388 -0.050447,0.03493 -0.050447,0.09313 0,0.05045 0.042686,0.08925 0.042686,0.03492 0.1086557,0.05821 0.06985,0.02328 0.1901475,0.05821 0.2056696,0.05433 0.3414892,0.116416 0.1397002,0.05821 0.2405947,0.182387 0.1008946,0.120297 0.1008946,0.314325 z m 1.2107386,-1.45521 q 0.3143251,0 0.5432781,0.155222 0.228953,0.155223 0.325967,0.438504 0.100895,0.2794 0.03881,0.644173 H 9.3521556 q 0.027164,0.112536 0.085372,0.190147 0.058208,0.07761 0.1358196,0.120297 0.081492,0.03881 0.1823863,0.03881 0.1202974,0 0.2173114,-0.05821 0.1008941,-0.06209 0.1513421,-0.170745 l 0.461786,0.27552 Q 10.500801,2.642664 10.264087,2.766842 10.027373,2.89102 9.7324502,2.89102 9.460811,2.89102 9.2202163,2.770722 8.9835024,2.650423 8.8360411,2.413709 8.6924604,2.173114 8.6924604,1.827744 q 0,-0.337609 0.1435807,-0.574323 Q 8.9835024,1.016707 9.2202166,0.90029 9.4569307,0.779993 9.7285699,0.779993 Z m -0.019403,0.504473 q -0.089253,0 -0.1591029,0.0388 -0.06985,0.03493 -0.1202974,0.104776 -0.050447,0.06597 -0.077611,0.159102 H 10.019612 Q 10.00797,1.48625 9.9652839,1.42028 9.9225979,1.35043 9.8566282,1.319386 9.7906582,1.284456 9.7091669,1.284456 Z"
     id="text2"
     style="font-weight:900;font-size:3.88056px;line-height:0.9;font-family:'HarmonyOS Sans';-inkscape-font-specification:'HarmonyOS Sans Heavy';text-align:center;letter-spacing:0px;word-spacing:0px;text-anchor:middle;stroke-width:0.264583"
     aria-label="Pause" />
</svg>
