<?xml version="1.0" encoding="UTF-8" standalone="no"?>
<!-- Created with Inkscape (http://www.inkscape.org/) -->

<svg
   width="2.9919116mm"
   height="3.5390706mm"
   viewBox="0 0 2.9919117 3.5390706"
   version="1.1"
   id="svg1"
   xmlns="http://www.w3.org/2000/svg"
   xmlns:svg="http://www.w3.org/2000/svg">
  <defs
     id="defs1" />
  <path
     d="M 2.0799801,2.7396753 2.9919117,3.5390707 H 2.2119191 L 1.4978961,2.9298228 q -0.034925,0.00388 -0.06985,0.00388 -0.034925,0.00388 -0.073731,0.00388 -0.3764143,0 -0.6868591,-0.1785058 Q 0.35701151,2.5844529 0.17850575,2.2507248 0,1.9169966 0,1.4668517 0,1.0205873 0.17850575,0.68685911 0.35701151,0.35313095 0.6674563,0.17850576 0.9779011,0 1.3543154,0 1.7346102,0 2.0411745,0.17850576 2.3516193,0.35701151 2.530125,0.69073967 2.7125113,1.0205873 2.7125113,1.4668517 q 0,0.4346227 -0.1707446,0.7644703 Q 2.3710221,2.557289 2.0799801,2.7396753 Z M 0.59372566,1.4668517 q 0,0.2832808 0.0931334,0.5005922 0.097014,0.2173114 0.26775864,0.3376087 0.1746252,0.1164168 0.3996977,0.1164168 0.2250724,0 0.3996976,-0.1164168 0.1746252,-0.1202973 0.2677587,-0.3376087 0.093133,-0.2173114 0.093133,-0.5005922 0,-0.2832809 -0.093133,-0.49671172 Q 1.9286382,0.75282863 1.754013,0.63641183 1.5793878,0.51611447 1.3543154,0.51611447 q -0.2250725,0 -0.39969766,0.1164168 Q 0.7838731,0.74894807 0.6868591,0.96625942 0.59372566,1.1835708 0.59372566,1.4668517 Z"
     id="text1"
     style="font-weight:bold;font-size:3.88056px;line-height:0.9;font-family:'HarmonyOS Sans';-inkscape-font-specification:'HarmonyOS Sans Bold';text-align:center;letter-spacing:0.079375px;text-anchor:middle;stroke-width:0.264583"
     aria-label="Q" />
</svg>
