<?xml version="1.0" encoding="UTF-8" standalone="no"?>
<!-- Created with Inkscape (http://www.inkscape.org/) -->

<svg
   width="4.2781463mm"
   height="3.5934mm"
   viewBox="0 0 4.2781462 3.5933999"
   version="1.1"
   id="svg1"
   sodipodi:docname="KC_LBRC.svg"
   inkscape:export-filename="KC_LBRC.svg"
   inkscape:export-xdpi="96"
   inkscape:export-ydpi="96"
   xmlns:inkscape="http://www.inkscape.org/namespaces/inkscape"
   xmlns:sodipodi="http://sodipodi.sourceforge.net/DTD/sodipodi-0.dtd"
   xmlns="http://www.w3.org/2000/svg"
   xmlns:svg="http://www.w3.org/2000/svg">
  <sodipodi:namedview
     id="namedview1"
     pagecolor="#ffffff"
     bordercolor="#000000"
     borderopacity="0.25"
     inkscape:showpageshadow="2"
     inkscape:pageopacity="0.0"
     inkscape:pagecheckerboard="0"
     inkscape:deskcolor="#d1d1d1"
     inkscape:document-units="mm">
    <inkscape:page
       x="0"
       y="0"
       width="4.2781458"
       height="3.5934"
       id="page2"
       margin="0"
       bleed="0" />
  </sodipodi:namedview>
  <defs
     id="defs1" />
  <g
     id="layer1"
     transform="translate(-63.533659,-143.96919)">
    <text
       xml:space="preserve"
       style="font-style:normal;font-variant:normal;font-weight:bold;font-stretch:normal;font-size:3.52777px;line-height:0.9;font-family:'HarmonyOS Sans';-inkscape-font-specification:'HarmonyOS Sans Bold';text-align:center;text-decoration-color:#000000;letter-spacing:0.079375px;writing-mode:lr-tb;direction:ltr;text-anchor:middle;fill:#000000;stroke-width:0.264583"
       x="68.657768"
       y="148.46114"
       id="text1"><tspan
         id="tspan1"
         style="stroke-width:0.264583"
         x="68.657768"
         y="148.46114" /></text>
    <g
       id="text2"
       style="font-weight:bold;font-size:3.88056px;line-height:0.9;font-family:'Liberation Serif';-inkscape-font-specification:'Liberation Serif Bold';text-align:center;letter-spacing:0.079375px;text-anchor:middle;stroke-width:0.264583"
       aria-label="&#10;*&#10;8">
      <path
         d="m 64.635738,147.56259 v -3.5934 h -1.102079 v 0.48895 h 0.562681 v 2.6155 h -0.562681 v 0.48895 z"
         id="text5"
         style="font-family:'HarmonyOS Sans';-inkscape-font-specification:'HarmonyOS Sans Bold';stroke-width:0.0700042"
         aria-label="[  {" />
      <path
         d="m 66.842486,145.53979 v 0.18335 c 0,0.14164 0.02425,0.25224 0.07276,0.33179 0.0485,0.0795 0.217298,0.13291 0.320135,0.16007 -0.102835,0.0272 -0.271628,0.0805 -0.320135,0.16007 -0.0485,0.0796 -0.07276,0.19015 -0.07276,0.3318 v 0.18335 c 0,0.11447 -0.01843,0.19402 -0.0553,0.23866 -0.03686,0.0446 -0.09896,0.067 -0.186267,0.067 h -0.07858 v 0.36671 h 0.139701 c 0.133879,0 0.243504,-0.0165 0.328877,-0.0495 0.08537,-0.031 0.150372,-0.0883 0.194998,-0.17171 0.04462,-0.0834 0.06694,-0.19985 0.06694,-0.34925 v -0.22992 c 0,-0.0873 0.01067,-0.15425 0.03202,-0.20082 0.0194,-0.0466 0.05335,-0.0795 0.101865,-0.099 0.04657,-0.0214 0.341631,-0.034 0.425065,-0.0379 v -0.4191 c -0.08537,-0.004 -0.381409,-0.0166 -0.427975,-0.0379 -0.0485,-0.0214 -0.08246,-0.0553 -0.101865,-0.10186 -0.0194,-0.0466 -0.02911,-0.11252 -0.02911,-0.1979 v -0.22993 c 0,-0.1494 -0.02231,-0.26581 -0.06694,-0.34925 -0.04462,-0.0834 -0.109625,-0.14067 -0.194999,-0.17171 -0.08537,-0.033 -0.194998,-0.0495 -0.328877,-0.0495 h -0.1397 v 0.36672 h 0.07858 c 0.08731,0 0.149401,0.0223 0.186267,0.067 0.03686,0.0446 0.0553,0.1242 0.0553,0.23866 z"
         style="font-family:'HarmonyOS Sans';-inkscape-font-specification:'HarmonyOS Sans Bold';stroke-width:0.0525032"
         id="path1"
         sodipodi:nodetypes="cscccsscsccscsssccccccssccsccscsc" />
    </g>
  </g>
</svg>
