<?xml version="1.0" encoding="UTF-8" standalone="no"?>
<!-- Created with Inkscape (http://www.inkscape.org/) -->

<svg
   width="2.4564319mm"
   height="2.8406901mm"
   viewBox="0 0 2.4564319 2.8406902"
   version="1.1"
   id="svg1"
   xmlns="http://www.w3.org/2000/svg"
   xmlns:svg="http://www.w3.org/2000/svg">
  <defs
     id="defs1" />
  <g
     id="layer1"
     transform="translate(-43.219846,-130.26532)">
    <path
       d="m 44.911807,132.00394 0.764471,1.10207 -0.787754,-0.004 -0.628651,-0.95849 q -0.0039,0 -0.01164,0 -0.0039,0 -0.0078,0 h -0.357011 v 0.96237 h -0.663576 v -2.84057 h 1.032229 q 0.353131,0 0.613129,0.11642 0.263878,0.11642 0.403578,0.32985 0.1397,0.21343 0.1397,0.49283 0,0.26776 -0.128058,0.47343 -0.128059,0.20567 -0.368654,0.32597 z m -0.737306,-1.17969 h -0.291042 v 0.76447 h 0.291042 q 0.221192,0 0.376414,-0.0854 0.159103,-0.0893 0.159103,-0.2988 0,-0.21731 -0.155222,-0.2988 -0.151342,-0.0815 -0.380295,-0.0815 z"
       id="text3"
       style="font-weight:900;font-size:3.88056px;line-height:0.9;font-family:'HarmonyOS Sans';-inkscape-font-specification:'HarmonyOS Sans Heavy';text-align:center;letter-spacing:0px;word-spacing:0px;text-anchor:middle;stroke-width:0.264583"
       aria-label="R" />
  </g>
</svg>
