<?xml version="1.0" encoding="UTF-8" standalone="no"?>
<!-- Created with Inkscape (http://www.inkscape.org/) -->

<svg
   width="1.5056574mm"
   height="3.593399mm"
   viewBox="0 0 1.5056575 3.5933987"
   version="1.1"
   id="svg1"
   xmlns="http://www.w3.org/2000/svg"
   xmlns:svg="http://www.w3.org/2000/svg">
  <defs
     id="defs1" />
  <path
     d="M 0.4229814,0.98178211 V 1.1292434 q 0,0.2794003 0.10089457,0.4462644 0.097014,0.1629835 0.31432532,0.2211919 Q 0.62088997,1.8549077 0.52387597,2.0217722 0.4229814,2.1847557 0.4229814,2.464156 v 0.1474613 q 0,0.228953 -0.073731,0.3182059 -0.073731,0.089253 -0.2483559,0.089253 H 0 V 3.593399 h 0.228953 q 0.28328087,0 0.46566717,-0.06597 Q 0.87312633,3.4614599 0.96625977,3.2868347 1.0593932,3.1122095 1.0593932,2.7940036 V 2.56117 q 0,-0.1629835 0.042686,-0.2522364 0.042686,-0.093133 0.1397001,-0.131939 0.093133,-0.042686 0.2638781,-0.058208 V 1.4746132 Q 1.3310324,1.4590912 1.237899,1.4164052 1.140885,1.3737192 1.1020794,1.2844662 1.0593932,1.1913332 1.0593932,1.0322298 v -0.232834 q 0,-0.3182059 -0.0931334,-0.4928311 Q 0.87312637,0.1319395 0.69462057,0.06597 0.51223427,0 0.2289534,0 H 4e-7 v 0.5743228 h 0.1008945 q 0.1746252,0 0.2483559,0.089253 0.073731,0.089253 0.0737306,0.31820631 z"
     id="text1"
     style="font-weight:900;font-size:3.88056px;line-height:0.9;font-family:'HarmonyOS Sans';-inkscape-font-specification:'HarmonyOS Sans Heavy';text-align:center;letter-spacing:0px;word-spacing:0px;text-anchor:middle;stroke-width:0.264583"
     aria-label="{" />
</svg>
