<?xml version="1.0" encoding="UTF-8" standalone="no"?>
<!-- Created with Inkscape (http://www.inkscape.org/) -->

<svg
   width="1.9501389mm"
   height="6.3546548mm"
   viewBox="0 0 1.9501391 6.3546549"
   version="1.1"
   id="svg1"
   xmlns="http://www.w3.org/2000/svg"
   xmlns:svg="http://www.w3.org/2000/svg">
  <defs
     id="defs1" />
  <g
     id="text3"
     style="font-weight:bold;font-size:3.88056px;line-height:0.9;font-family:'HarmonyOS Sans';-inkscape-font-specification:'HarmonyOS Sans Bold';text-align:center;letter-spacing:0.079375px;text-anchor:middle;stroke-width:0.264583"
     aria-label="?&#10;/"
     transform="translate(0.63657332,1.6730344)">
    <path
       d="m -0.19418949,-0.72229719 -0.44238383,-0.25999752 c 0.0853723,-0.22507249 0.21860487,-0.39581709 0.39969767,-0.51223389 0.18109279,-0.1190039 0.39193655,-0.1785058 0.63253127,-0.1785058 0.17333167,0 0.32855407,0.029751 0.46566719,0.089253 0.13711313,0.056915 0.24447529,0.1396999 0.32208649,0.2483558 0.080198,0.1086557 0.1202973,0.2367142 0.1202973,0.38417547 0,0.10865568 -0.020696,0.20437616 -0.062089,0.28716143 -0.041393,0.0801982 -0.090546,0.1487548 -0.1474613,0.20566968 -0.056915,0.0569148 -0.13323244,0.12417782 -0.22895293,0.20178902 -0.0931334,0.0750242 -0.16686408,0.14099367 -0.22119192,0.19790855 -0.0543278,0.05432784 -0.0957205,0.12029736 -0.12417792,0.19790856 -0.0284574,0.0776112 -0.0336315,0.16945112 -0.0155222,0.27551975 H 0.06580802 C 0.01665426,0.26465855 0.00501258,0.13530655 0.03088298,0.02665087 c 0.0258704,-0.10865568 0.06855656,-0.19790856 0.12805848,-0.26775863 0.0620889,-0.0698501 0.14616773,-0.1487548 0.2522364,-0.23671416 0.0983075,-0.0801982 0.17074463,-0.1487548 0.21731135,-0.20566968 0.0491537,-0.0595019 0.0737306,-0.12547145 0.0737306,-0.19790855 0,-0.0853723 -0.032338,-0.15263535 -0.097014,-0.20178915 -0.064676,-0.049154 -0.1487548,-0.073731 -0.25223639,-0.073731 -0.12417792,0 -0.2328336,0.036219 -0.32596704,0.1086557 -0.09054639,0.0724371 -0.16427702,0.1810929 -0.22119187,0.32596741 z"
       id="path3" />
    <path
       d="M 0.25029203,4.6816203 H -0.40722534 L 0.65604808,1.8410504 H 1.3135655 Z"
       id="path4" />
    <ellipse
       style="fill:#000000;stroke-width:0.0700042"
       id="path5"
       cx="0.28350776"
       cy="1.0405409"
       rx="0.45049921"
       ry="0.4686659" />
  </g>
</svg>
