<?xml version="1.0" encoding="UTF-8" standalone="no"?>
<!-- Created with Inkscape (http://www.inkscape.org/) -->

<svg
   width="2.2390871mm"
   height="2.9453301mm"
   viewBox="0 0 2.239087 2.9453302"
   version="1.1"
   id="svg1"
   xmlns="http://www.w3.org/2000/svg"
   xmlns:svg="http://www.w3.org/2000/svg">
  <defs
     id="defs1" />
  <g
     id="layer1"
     transform="translate(-47.529088,-131.20625)">
    <text
       xml:space="preserve"
       style="font-weight:900;font-size:3.88056px;line-height:0.9;font-family:'HarmonyOS Sans';-inkscape-font-specification:'HarmonyOS Sans Heavy';text-align:center;text-decoration-color:#000000;letter-spacing:0px;word-spacing:0px;writing-mode:lr-tb;direction:ltr;text-anchor:middle;fill:#000000;stroke-width:0.264583"
       x="44.30838"
       y="132.97408"
       id="text3"><tspan
         id="tspan3"
         style="stroke-width:0.264583"
         x="44.30838"
         y="132.97408" /></text>
    <path
       d="m 49.768171,133.26677 q 0,0.31044 -0.166864,0.51223 -0.162984,0.19791 -0.41134,0.28328 -0.248356,0.0893 -0.508353,0.0893 -0.391937,0 -0.717904,-0.18238 -0.322086,-0.17851 -0.434622,-0.52 l 0.535517,-0.30656 q 0.08537,0.19403 0.248356,0.30656 0.166864,0.10866 0.391936,0.10866 0.166864,0 0.267759,-0.0621 0.104775,-0.066 0.104775,-0.19015 0,-0.10089 -0.06985,-0.16686 -0.06985,-0.066 -0.174625,-0.10866 -0.104775,-0.0427 -0.291042,-0.097 -0.27552,-0.0815 -0.457906,-0.15911 -0.178506,-0.0815 -0.306565,-0.24835 -0.128058,-0.16687 -0.128058,-0.43462 0,-0.29493 0.151342,-0.49284 0.155222,-0.1979 0.399697,-0.29492 0.248356,-0.097 0.531637,-0.097 0.240595,0 0.450145,0.0776 0.213431,0.0737 0.360892,0.22119 0.147461,0.14746 0.201789,0.35701 l -0.543278,0.30657 q -0.06209,-0.17851 -0.194028,-0.27164 -0.128059,-0.097 -0.314325,-0.097 -0.159103,0 -0.259998,0.0737 -0.09701,0.0737 -0.09701,0.19015 0,0.0931 0.06597,0.15522 0.06597,0.0621 0.170744,0.1009 0.104775,0.0388 0.287162,0.0931 0.2794,0.0815 0.461786,0.16687 0.182387,0.0854 0.314326,0.25223 0.131939,0.16687 0.131939,0.43463 z"
       id="text1"
       style="font-weight:900;font-size:3.88056px;line-height:0.9;font-family:'HarmonyOS Sans';-inkscape-font-specification:'HarmonyOS Sans Heavy';text-align:center;letter-spacing:0px;word-spacing:0px;text-anchor:middle;stroke-width:0.264583"
       aria-label="S" />
  </g>
</svg>
