<?xml version="1.0" encoding="UTF-8" standalone="no"?>
<!-- Created with Inkscape (http://www.inkscape.org/) -->

<svg
   width="9.5788422mm"
   height="3.0035901mm"
   viewBox="0 0 9.578842 3.0035901"
   version="1.1"
   id="svg1"
   xmlns="http://www.w3.org/2000/svg"
   xmlns:svg="http://www.w3.org/2000/svg">
  <defs
     id="defs1" />
  <g
     id="layer1"
     transform="translate(-64.936984,-146.38569)">
    <path
       d="m 74.515826,147.05113 h -2.230279 l 0.36035,-0.47375 -0.141923,-0.18605 -0.573482,0.75189 v -0.75189 l -0.232119,-6e-5 2e-6,1.58373 h 0.23212 l 2e-6,-0.75196 0.271511,0.35601 0.301967,0.39588 0.141922,-0.18603 -0.360349,-0.47375 h 2.230277 z"
       style="fill:#000000;stroke-width:0.0476901"
       id="path1" />
    <path
       d="m 71.698373,148.46537 h 2.230279 l -0.36035,-0.47375 0.141923,-0.18605 0.573482,0.7519 v -0.7519 l 0.232119,-5e-5 -2e-6,1.58373 h -0.23212 l -2e-6,-0.75196 -0.271511,0.35601 -0.301967,0.39588 -0.141922,-0.18603 0.360349,-0.47375 h -2.230277 z"
       style="fill:#000000;stroke-width:0.0476901"
       id="path1-9" />
    <text
       xml:space="preserve"
       style="font-style:normal;font-variant:normal;font-weight:bold;font-stretch:normal;font-size:3.52777px;line-height:0.9;font-family:'HarmonyOS Sans';-inkscape-font-specification:'HarmonyOS Sans Bold';text-align:center;text-decoration-color:#000000;letter-spacing:0.079375px;writing-mode:lr-tb;direction:ltr;text-anchor:middle;fill:#000000;stroke-width:0.264583"
       x="68.657768"
       y="148.46114"
       id="text1"><tspan
         id="tspan1"
         style="stroke-width:0.264583"
         x="68.657768"
         y="148.46114" /></text>
    <path
       style="font-weight:900;font-size:3.88056px;line-height:0.9;font-family:'HarmonyOS Sans';-inkscape-font-specification:'HarmonyOS Sans Heavy';text-align:center;letter-spacing:0.079375px;text-anchor:middle;stroke-width:0.264583"
       d="m 64.936984,147.0842 v -0.58597 h 2.367141 v 0.58597 h -0.853723 v 2.2546 h -0.659695 v -2.2546 z m 3.086812,0.19403 q 0.434623,0 0.671337,0.24447 0.236714,0.2406 0.236714,0.68298 v 1.13312 H 68.40021 q -0.01552,-0.15134 -0.02716,-0.21731 -0.08925,0.13582 -0.225072,0.20179 -0.131939,0.066 -0.333728,0.066 -0.213431,0 -0.391937,-0.0776 -0.174625,-0.0737 -0.2794,-0.21343 -0.100895,-0.14358 -0.100895,-0.33761 0,-0.28328 0.217312,-0.46179 0.217311,-0.18238 0.543278,-0.20567 0.325967,-0.0272 0.632531,0.12418 l -0.128058,0.14358 v -0.11642 q 0.0039,-0.24835 -0.08925,-0.35313 -0.09313,-0.10865 -0.256117,-0.10865 -0.13582,0 -0.232834,0.066 -0.09701,0.066 -0.155222,0.18238 l -0.446264,-0.25999 q 0.116416,-0.22508 0.345369,-0.35702 0.232834,-0.13581 0.55104,-0.13581 z m -0.100895,1.64147 q 0.09313,0 0.182387,-0.0388 0.08925,-0.0388 0.14358,-0.10866 0.05821,-0.0699 0.05821,-0.16686 v -0.0504 q -0.186267,-0.0466 -0.329848,-0.0388 -0.14358,0.008 -0.225072,0.066 -0.07761,0.0582 -0.07761,0.14746 0,0.0854 0.06985,0.1397 0.06985,0.0505 0.178505,0.0505 z m 2.741442,-1.64147 q 0.248355,0 0.454025,0.12417 0.20955,0.12418 0.329848,0.36478 0.124178,0.23671 0.124178,0.56656 0,0.32596 -0.124178,0.56656 -0.120298,0.24059 -0.329848,0.36477 -0.20567,0.12418 -0.454025,0.12418 -0.20179,0 -0.364773,-0.0815 -0.162984,-0.0815 -0.271639,-0.25224 -0.02328,0.17851 -0.02716,0.28328 H 69.43809 v -2.9531 h 0.632531 v 1.16804 q 0.108656,-0.1397 0.256117,-0.20566 0.151342,-0.0699 0.337609,-0.0699 z m -0.162984,1.57938 q 0.120297,0 0.213431,-0.066 0.09701,-0.066 0.151342,-0.18238 0.05433,-0.1203 0.05433,-0.27552 0,-0.15522 -0.05433,-0.26776 -0.05045,-0.11254 -0.147462,-0.17075 -0.09313,-0.0621 -0.217311,-0.0621 -0.120297,0 -0.217311,0.0543 -0.09701,0.0543 -0.155223,0.16687 -0.05821,0.10865 -0.05821,0.2794 0,0.17074 0.05821,0.29104 0.05821,0.11642 0.155223,0.17462 0.100894,0.0582 0.217311,0.0582 z"
       id="text2"
       aria-label="Tab" />
  </g>
</svg>
