<?xml version="1.0" encoding="UTF-8" standalone="no"?>
<!-- Created with Inkscape (http://www.inkscape.org/) -->

<svg
   width="3.722563mm"
   height="3.1627166mm"
   viewBox="0 0 3.722563 3.1627167"
   version="1.1"
   id="svg1"
   xmlns="http://www.w3.org/2000/svg"
   xmlns:svg="http://www.w3.org/2000/svg">
  <defs
     id="defs1" />
  <g
     id="g2"
     transform="matrix(0.89999999,0,0,0.89999999,0,-0.21863802)">
    <path
       d="M 0.057581,1.3106105 C 0.025785,1.3106105 0,1.3363845 0,1.3681915 v 1.2636206 c 0,0.031796 0.025785,0.05758 0.057581,0.05758 h 0.8377538 c 0.015282,0 0.02992,0.00607 0.040721,0.016871 l 1.0338278,1.0338162 c 0.036276,0.036274 0.098302,0.010586 0.098302,-0.040709 V 0.30063331 c 0,-0.051304 -0.062026,-0.076997 -0.098302,-0.040721 L 0.9360559,1.2937398 c -0.010802,0.010802 -0.025438,0.016871 -0.040721,0.016871 z m 3.0446854,0.6893912 c 0,-0.3734227 -0.1975595,-0.6984316 -0.4931098,-0.8807551 -0.036437,-0.022479 -0.081385,0.00504 -0.081385,0.047838 v 1.6640953 c 0,0.042667 0.044693,0.070191 0.081108,0.047965 C 2.9045803,2.6986175 3.1022664,2.3735396 3.1022664,2.0000017 Z"
       fill="#000000"
       id="path1-1"
       style="stroke-width:0.115162" />
    <path
       id="path1"
       style="fill:#000000;stroke-width:0.115162"
       d="m 2.5280111,0.25993245 v 0.1550293 c 0,0.025474 0.016617,0.0478985 0.040824,0.0558105 0.6429693,0.210377 1.1079428,0.81572605 1.1079428,1.52910555 0,0.7133794 -0.4649735,1.31874 -1.1079428,1.5291058 -0.024207,0.00792 -0.040824,0.030326 -0.040824,0.05581 V 3.7398234 H 3.183785 C 3.7566125,3.3722791 4.1361816,2.730588 4.1361816,1.9998779 c 0,-0.7308637 -0.3793385,-1.37249308 -0.9523966,-1.73994545 z" />
  </g>
</svg>
