<?xml version="1.0" encoding="UTF-8" standalone="no"?>
<!-- Created with Inkscape (http://www.inkscape.org/) -->

<svg
   width="5.3673229mm"
   height="4.1618414mm"
   viewBox="0 0 5.3673229 4.1618415"
   version="1.1"
   id="svg1"
   xmlns="http://www.w3.org/2000/svg"
   xmlns:svg="http://www.w3.org/2000/svg">
  <defs
     id="defs1" />
  <g
     id="layer1"
     transform="translate(-46.807065,-133.03864)">
    <path
       d="m 46.919081,133.85655 c -0.07706,0.003 -0.137219,0.0767 -0.101412,0.14829 l 1.289095,2.57758 c 0.04538,0.0908 0.194034,0.0805 0.222969,-0.0154 l 0.30541,-1.01247 c 0.01097,-0.0363 0.04315,-0.065 0.08408,-0.0746 l 1.140136,-0.27121 c 0.107997,-0.0257 0.119512,-0.1577 0.01733,-0.19801 l -2.90257,-1.14476 c -0.01861,-0.008 -0.03726,-0.01 -0.05503,-0.01 z"
       style="baseline-shift:baseline;display:inline;overflow:visible;vector-effect:none;fill:#000000;stroke-width:0.113003;enable-background:accumulate;stop-color:#000000"
       id="path12" />
    <text
       xml:space="preserve"
       style="font-weight:900;font-size:3.88056px;line-height:0.9;font-family:'HarmonyOS Sans';-inkscape-font-specification:'HarmonyOS Sans Heavy';text-align:center;text-decoration-color:#000000;letter-spacing:0px;word-spacing:0px;writing-mode:lr-tb;direction:ltr;text-anchor:middle;fill:#000000;stroke-width:0.264583"
       x="44.30838"
       y="132.97408"
       id="text3"><tspan
         id="tspan3"
         style="stroke-width:0.264583"
         x="44.30838"
         y="132.97408" /></text>
    <path
       d="m 51.011586,134.37086 -0.596773,0.59678 c -0.03426,0.0343 -0.08582,0.0445 -0.130581,0.026 -0.04478,-0.0185 -0.07397,-0.0622 -0.07397,-0.11072 v -1.72446 c 0,-0.0662 0.05364,-0.11982 0.119823,-0.11982 h 1.724463 c 0.04847,0 0.09216,0.0292 0.11069,0.074 0.01855,0.0448 0.0084,0.0962 -0.02596,0.13057 l -0.612754,0.61276 c 0.284025,0.36208 0.456239,0.81644 0.456239,1.31441 0,0.94459 -0.61556,1.74208 -1.465492,2.02404 -0.0302,0.0104 -0.06316,0.007 -0.09161,-0.007 -0.02843,-0.0149 -0.04999,-0.0394 -0.05994,-0.0695 l -0.149448,-0.45411 c -0.0207,-0.0628 0.01343,-0.13057 0.07635,-0.15127 0.563618,-0.18551 0.971487,-0.71745 0.971487,-1.34241 0,-0.29806 -0.09438,-0.57164 -0.252525,-0.79947 z"
       style="clip-rule:evenodd;fill:#000000;fill-rule:evenodd;stroke-width:0.119817"
       id="path1" />
  </g>
</svg>
