<?xml version="1.0" encoding="UTF-8" standalone="no"?>
<!-- Created with Inkscape (http://www.inkscape.org/) -->

<svg
   width="11.594411mm"
   height="2.8910401mm"
   viewBox="0 0 11.594411 2.8910401"
   version="1.1"
   id="svg1"
   xmlns="http://www.w3.org/2000/svg"
   xmlns:svg="http://www.w3.org/2000/svg">
  <defs
     id="defs1" />
  <g
     id="layer1"
     transform="translate(-61.336192,-154.58286)">
    <path
       d="m 61.336192,157.42343 v -2.84057 h 0.663576 v 2.25072 h 1.24566 v 0.58985 z m 2.139953,-1.00507 q 0,-0.32208 0.14358,-0.5588 0.147462,-0.24059 0.388056,-0.36865 0.244476,-0.12806 0.527756,-0.12806 0.279401,0 0.519995,0.12806 0.244476,0.12806 0.388056,0.36865 0.143581,0.23672 0.143581,0.5588 0,0.31821 -0.143581,0.5588 -0.14358,0.2406 -0.388056,0.36866 -0.240594,0.12805 -0.519995,0.12805 -0.28328,0 -0.527756,-0.12805 -0.240594,-0.12806 -0.388056,-0.36866 -0.14358,-0.24059 -0.14358,-0.5588 z m 0.651934,0 q 0,0.15523 0.05045,0.27164 0.05433,0.11642 0.143581,0.17851 0.09313,0.0621 0.20955,0.0621 0.112536,0 0.201789,-0.0621 0.08925,-0.0621 0.143581,-0.17851 0.05433,-0.11641 0.05433,-0.27164 0,-0.15522 -0.05433,-0.27164 -0.05433,-0.12029 -0.143581,-0.18238 -0.08925,-0.0621 -0.201789,-0.0621 -0.116417,0 -0.20955,0.0621 -0.08925,0.0621 -0.143581,0.18238 -0.05045,0.11642 -0.05045,0.27164 z m 2.908299,-1.00118 h 0.539398 l 0.372534,1.13312 0.353131,-1.13312 h 0.617009 l -0.741187,2.00237 h -0.457906 l -0.422981,-1.11372 -0.407459,1.11372 H 66.42713 l -0.76835,-2.00237 h 0.651934 l 0.376414,1.15641 z m 2.985917,-0.0543 q 0.314326,0 0.543279,0.15522 0.228953,0.15523 0.325967,0.43851 0.100894,0.2794 0.0388,0.64417 h -1.284465 q 0.02716,0.11254 0.08537,0.19015 0.05821,0.0776 0.13582,0.12029 0.08149,0.0388 0.182386,0.0388 0.120298,0 0.217312,-0.0582 0.100894,-0.0621 0.151341,-0.17074 l 0.461787,0.27552 q -0.08537,0.22895 -0.322086,0.35313 -0.236715,0.12417 -0.531637,0.12417 -0.271639,0 -0.512234,-0.12029 -0.236714,-0.1203 -0.384175,-0.35701 -0.143581,-0.2406 -0.143581,-0.58597 0,-0.33761 0.143581,-0.57432 0.147461,-0.23672 0.384175,-0.35313 0.236714,-0.1203 0.508353,-0.1203 z m -0.0194,0.50447 q -0.08925,0 -0.159102,0.0388 -0.06985,0.0349 -0.120298,0.10477 -0.05045,0.066 -0.07761,0.15911 h 0.667456 q -0.01164,-0.1009 -0.05433,-0.16687 -0.04269,-0.0699 -0.108655,-0.10089 -0.06597,-0.0349 -0.147462,-0.0349 z m 2.52801,-0.50447 q 0.124178,0 0.232834,0.0388 0.112536,0.0388 0.166864,0.10089 l -0.244475,0.48119 q -0.112537,-0.0815 -0.248356,-0.0815 -0.13582,0 -0.236714,0.0815 -0.100895,0.0776 -0.155223,0.22119 -0.05433,0.1397 -0.05433,0.32985 v 0.88865 h -0.632531 v -2.00625 h 0.562681 q 0.01552,0.21343 0.03493,0.31044 0.08925,-0.1785 0.236714,-0.27164 0.147462,-0.0931 0.337609,-0.0931 z"
       id="text3"
       style="font-weight:900;font-size:3.88056px;line-height:0.9;font-family:'HarmonyOS Sans';-inkscape-font-specification:'HarmonyOS Sans Heavy';text-align:center;letter-spacing:0.079375px;text-anchor:middle;stroke-width:0.264583"
       aria-label="Lower" />
    <text
       xml:space="preserve"
       style="font-style:normal;font-variant:normal;font-weight:bold;font-stretch:normal;font-size:3.52777px;line-height:0.9;font-family:'HarmonyOS Sans';-inkscape-font-specification:'HarmonyOS Sans Bold';text-align:center;text-decoration-color:#000000;letter-spacing:0.079375px;writing-mode:lr-tb;direction:ltr;text-anchor:middle;fill:#000000;stroke-width:0.264583"
       x="68.657768"
       y="148.46114"
       id="text1"><tspan
         id="tspan1"
         style="stroke-width:0.264583"
         x="68.657768"
         y="148.46114" /></text>
  </g>
</svg>
