<?xml version="1.0" encoding="UTF-8" standalone="no"?>
<!-- Created with Inkscape (http://www.inkscape.org/) -->

<svg
   width="10.110745mm"
   height="3.7408597mm"
   viewBox="0 0 10.110746 3.7408598"
   version="1.1"
   id="svg1"
   xmlns="http://www.w3.org/2000/svg"
   xmlns:svg="http://www.w3.org/2000/svg">
  <defs
     id="defs1" />
  <path
     d="M 1.6619144,1.517299 V 0 h 0.600819 v 1.6919242 q 0,0.3647726 -0.1370289,0.6364118 -0.1335153,0.2716392 -0.3900053,0.4152199 -0.2529764,0.1474613 -0.6043325,0.1474613 -0.3513562,0 -0.6078461,-0.1474613 Q 0.2705442,2.5999752 0.1335153,2.328336 0,2.0566968 0,1.6919242 V 0 h 0.6008189 v 1.517299 q 0,0.3996976 0.1370289,0.5859645 0.1405425,0.1823863 0.3935189,0.1823863 0.2494628,0 0.3900053,-0.1823863 Q 1.6619144,1.9169966 1.6619144,1.517299 Z M 3.6854038,0.7799926 q 0.2248679,0 0.4110867,0.1241779 0.1897323,0.1241779 0.2986527,0.3647726 0.112434,0.2367142 0.112434,0.5665618 0,0.325967 -0.112434,0.5665617 -0.1089204,0.2405947 -0.2986527,0.3647727 -0.1862188,0.1241779 -0.4110867,0.1241779 -0.1686509,0 -0.3056798,-0.06985 Q 3.2462087,2.7551972 3.147829,2.6154974 V 3.7408598 H 2.5751185 V 0.8343204 h 0.5094663 q 0,0.027164 0,0.058208 0.00351,0.027164 0.00703,0.054328 0.00351,0.046567 0.00703,0.089253 0.00351,0.042686 0.010541,0.081492 Q 3.2040438,0.9468567 3.3516138,0.865365 3.5026969,0.779993 3.685402,0.779993 Z M 3.5378342,2.3360971 q 0.1089204,0 0.1932459,-0.058208 0.087839,-0.062089 0.1370289,-0.1746252 0.04919,-0.1125362 0.04919,-0.2677586 0,-0.159103 -0.04919,-0.2755198 -0.04919,-0.1202973 -0.1370289,-0.1823863 -0.084325,-0.06597 -0.1932459,-0.06597 -0.1054068,0 -0.1967594,0.058208 -0.087839,0.058208 -0.1405424,0.1785057 -0.052703,0.1164168 -0.052703,0.2871615 0,0.1707446 0.052703,0.2832808 0.052703,0.1086557 0.1405424,0.1629836 0.087839,0.054328 0.1967594,0.054328 z M 5.8143001,0.7799926 q 0.224868,0 0.4110868,0.1241779 0.1897323,0.1241779 0.2986527,0.3647726 0.1124339,0.2367142 0.1124339,0.5665618 0,0.325967 -0.1124339,0.5665617 -0.1089204,0.2405947 -0.2986527,0.3647727 -0.1862188,0.1241779 -0.4110868,0.1241779 -0.1686508,0 -0.3056798,-0.06985 -0.1335152,-0.06597 -0.231895,-0.2056698 V 3.7408598 H 4.7040148 V 0.8343204 h 0.5094664 q 0,0.027164 0,0.058208 0.00351,0.027164 0.00703,0.054328 0.00351,0.046567 0.00703,0.089253 0.00351,0.042686 0.010541,0.081492 Q 5.3329482,0.9468567 5.480518,0.865365 5.6316011,0.779993 5.8143062,0.779993 Z M 5.6667306,2.3360971 q 0.1089204,0 0.1932459,-0.058208 0.087839,-0.062089 0.1370289,-0.1746252 0.04919,-0.1125362 0.04919,-0.2677586 0,-0.159103 -0.04919,-0.2755198 -0.04919,-0.1202973 -0.1370289,-0.1823863 -0.084325,-0.06597 -0.1932459,-0.06597 -0.1054069,0 -0.1967594,0.058208 -0.087839,0.058208 -0.1405424,0.1785057 -0.052703,0.1164168 -0.052703,0.2871615 0,0.1707446 0.052703,0.2832808 0.052703,0.1086557 0.1405424,0.1629836 0.087839,0.054328 0.1967594,0.054328 z M 7.6691388,0.7799926 q 0.2845984,0 0.4918986,0.1552224 0.2073001,0.1552224 0.2951391,0.4385032 0.091353,0.2794004 0.035136,0.644173 H 7.3283234 q 0.024595,0.1125362 0.077298,0.1901474 0.052703,0.077611 0.1229747,0.1202974 0.073785,0.038806 0.1651373,0.038806 0.1089205,0 0.1967594,-0.058208 0.091353,-0.06209 0.1370292,-0.1707455 L 8.4456358,2.4137083 Q 8.3683378,2.6426613 8.1540102,2.7668393 7.939683,2.8910172 7.6726523,2.8910172 7.426703,2.8910172 7.2088622,2.7707198 6.9945351,2.6504225 6.8610197,2.4137083 6.731018,2.1731136 6.731018,1.8277437 6.731018,1.490135 6.8610197,1.2534209 6.9945351,1.0167067 7.2088622,0.9002899 7.4231895,0.7799926 7.6691388,0.7799926 Z m -0.017568,0.5044728 q -0.080812,0 -0.144056,0.038806 -0.063244,0.034925 -0.1089204,0.1047751 -0.045676,0.06597 -0.070271,0.1591029 H 7.9326559 Q 7.9221152,1.4862545 7.883466,1.420285 7.8448169,1.3504349 7.7850863,1.3193904 7.7253557,1.2844654 7.6515708,1.2844654 Z M 9.7488481,0.7799926 q 0.112434,0 0.210814,0.038806 0.1018939,0.038806 0.1510829,0.1008945 L 9.8893911,1.4008822 q -0.101893,-0.081492 -0.224868,-0.081492 -0.122975,0 -0.214327,0.081492 -0.09135,0.077611 -0.140543,0.2211917 -0.04919,0.1397001 -0.04919,0.3298476 v 0.8886484 h -0.57271 V 0.8343204 h 0.509466 q 0.01405,0.2134308 0.03162,0.3104448 0.08081,-0.1785058 0.214328,-0.2716392 0.133515,-0.093133 0.305679,-0.093133 z"
     id="text3"
     style="font-weight:900;font-size:3.88056px;line-height:0.9;font-family:'HarmonyOS Sans';-inkscape-font-specification:'HarmonyOS Sans Heavy';text-align:center;letter-spacing:-0.132292px;word-spacing:0px;text-anchor:middle;stroke-width:0.251761"
     aria-label="Upper" />
</svg>
