<?xml version="1.0" encoding="UTF-8" standalone="no"?>
<!-- Created with Inkscape (http://www.inkscape.org/) -->

<svg
   width="10.003791mm"
   height="3.01911mm"
   viewBox="0 0 10.003791 3.01911"
   version="1.1"
   id="svg1"
   xmlns="http://www.w3.org/2000/svg"
   xmlns:svg="http://www.w3.org/2000/svg">
  <defs
     id="defs1" />
  <g
     id="layer1"
     transform="translate(-59.633239,-153.08752)">
    <text
       xml:space="preserve"
       style="font-style:normal;font-variant:normal;font-weight:bold;font-stretch:normal;font-size:3.52777px;line-height:0.9;font-family:'HarmonyOS Sans';-inkscape-font-specification:'HarmonyOS Sans Bold';text-align:center;text-decoration-color:#000000;letter-spacing:0.079375px;writing-mode:lr-tb;direction:ltr;text-anchor:middle;fill:#000000;stroke-width:0.264583"
       x="68.657768"
       y="148.46114"
       id="text1"><tspan
         id="tspan1"
         style="stroke-width:0.264583"
         x="68.657768"
         y="148.46114" /></text>
    <path
       d="m 61.325201,154.95407 0.764471,1.10208 -0.787754,-0.004 -0.628651,-0.9585 q -0.0039,0 -0.01164,0 -0.0039,0 -0.0078,0 h -0.357012 v 0.96238 h -0.663576 v -2.84057 h 1.032229 q 0.353131,0 0.613129,0.11642 0.263878,0.11641 0.403578,0.32984 0.1397,0.21343 0.1397,0.49283 0,0.26776 -0.128058,0.47343 -0.128059,0.20567 -0.368654,0.32597 z m -0.737306,-1.17969 h -0.291042 v 0.76447 h 0.291042 q 0.221192,0 0.376414,-0.0854 0.159103,-0.0893 0.159103,-0.29881 0,-0.21731 -0.155222,-0.2988 -0.151342,-0.0815 -0.380295,-0.0815 z m 2.694872,0.22119 q 0.434623,0 0.671337,0.24448 0.236714,0.24059 0.236714,0.68298 v 1.13312 h -0.531636 q -0.01552,-0.15134 -0.02716,-0.21731 -0.08925,0.13582 -0.225073,0.20179 -0.131939,0.066 -0.333728,0.066 -0.213431,0 -0.391936,-0.0776 -0.174626,-0.0737 -0.279401,-0.21343 -0.100894,-0.14358 -0.100894,-0.3376 0,-0.28329 0.217311,-0.46179 0.217311,-0.18239 0.543278,-0.20567 0.325967,-0.0272 0.632532,0.12418 l -0.128059,0.14358 v -0.11642 q 0.0039,-0.24836 -0.08925,-0.35313 -0.09313,-0.10866 -0.256117,-0.10866 -0.135819,0 -0.232833,0.066 -0.09701,0.066 -0.155223,0.18239 l -0.446264,-0.26 q 0.116417,-0.22507 0.34537,-0.35701 0.232833,-0.13582 0.551039,-0.13582 z m -0.100894,1.64148 q 0.09313,0 0.182386,-0.0388 0.08925,-0.0388 0.143581,-0.10865 0.05821,-0.0699 0.05821,-0.16687 v -0.0504 q -0.186267,-0.0466 -0.329847,-0.0388 -0.143581,0.008 -0.225073,0.066 -0.07761,0.0582 -0.07761,0.14746 0,0.0854 0.06985,0.1397 0.06985,0.0504 0.178506,0.0504 z m 1.829509,-1.80058 q -0.151342,0 -0.259997,-0.10866 -0.108656,-0.11253 -0.108656,-0.26388 0,-0.15522 0.108656,-0.26387 0.108655,-0.11254 0.259997,-0.11254 0.147462,0 0.256117,0.11254 0.112536,0.10865 0.112536,0.26387 0,0.15135 -0.108655,0.26388 -0.108656,0.10866 -0.259998,0.10866 z m 0.318206,0.21343 v 2.00625 h -0.632531 v -2.00625 z m 2.085627,1.40088 q 0,0.20567 -0.112536,0.35701 -0.112536,0.14746 -0.310445,0.22119 -0.194028,0.0776 -0.442383,0.0776 -0.325967,0 -0.566562,-0.1397 -0.240595,-0.1397 -0.329848,-0.38418 l 0.457906,-0.26776 q 0.05045,0.13582 0.170745,0.21343 0.120297,0.0737 0.271639,0.0737 0.09701,0 0.155223,-0.031 0.05821,-0.0349 0.05821,-0.097 0,-0.0543 -0.04657,-0.0893 -0.04269,-0.0388 -0.112536,-0.0621 -0.06597,-0.0272 -0.197909,-0.066 -0.201789,-0.0582 -0.337608,-0.11641 -0.131939,-0.0582 -0.232834,-0.17075 -0.09701,-0.11641 -0.09701,-0.2988 0,-0.20955 0.116417,-0.36089 0.116417,-0.15523 0.310445,-0.23284 0.197908,-0.0815 0.422981,-0.0815 0.318206,0 0.535517,0.1397 0.217311,0.13582 0.27552,0.35313 l -0.457906,0.25612 q -0.05433,-0.11642 -0.1397,-0.17851 -0.08537,-0.066 -0.217312,-0.066 -0.09313,0 -0.147461,0.0388 -0.05045,0.0349 -0.05045,0.0931 0,0.0505 0.04269,0.0893 0.04269,0.0349 0.108655,0.0582 0.06985,0.0233 0.190148,0.0582 0.20567,0.0543 0.341489,0.11642 0.1397,0.0582 0.240595,0.18239 0.100894,0.12029 0.100894,0.31432 z m 1.290113,-1.45521 q 0.314326,0 0.543279,0.15522 0.228953,0.15523 0.325967,0.43851 0.100894,0.2794 0.0388,0.64417 h -1.284465 q 0.02716,0.11254 0.08537,0.19015 0.05821,0.0776 0.13582,0.12029 0.08149,0.0388 0.182386,0.0388 0.120298,0 0.217312,-0.0582 0.100894,-0.0621 0.151341,-0.17074 l 0.461787,0.27552 q -0.08537,0.22895 -0.322086,0.35313 -0.236715,0.12418 -0.531637,0.12418 -0.271639,0 -0.512234,-0.1203 -0.236714,-0.1203 -0.384175,-0.35701 -0.143581,-0.2406 -0.143581,-0.58597 0,-0.33761 0.143581,-0.57432 0.147461,-0.23671 0.384175,-0.35313 0.236714,-0.1203 0.508353,-0.1203 z m -0.0194,0.50447 q -0.08925,0 -0.159103,0.0388 -0.06985,0.0349 -0.120298,0.10477 -0.05045,0.066 -0.07761,0.15911 h 0.667456 q -0.01164,-0.1009 -0.05433,-0.16687 -0.04269,-0.0699 -0.108656,-0.10089 -0.06597,-0.0349 -0.147461,-0.0349 z"
       id="text3"
       style="font-weight:900;font-size:3.88056px;line-height:0.9;font-family:'HarmonyOS Sans';-inkscape-font-specification:'HarmonyOS Sans Heavy';text-align:center;letter-spacing:0.079375px;text-anchor:middle;stroke-width:0.264583"
       aria-label="Raise" />
  </g>
</svg>
