<?xml version="1.0" encoding="UTF-8" standalone="no"?>
<!-- Created with Inkscape (http://www.inkscape.org/) -->

<svg
   width="8.3417702mm"
   height="3.2765999mm"
   viewBox="0 0 8.3417702 3.2765998"
   version="1.1"
   id="svg1"
   inkscape:version="1.4 (e7c3feb100, 2024-10-09)"
   sodipodi:docname="ctrl.svg"
   xmlns:inkscape="http://www.inkscape.org/namespaces/inkscape"
   xmlns:sodipodi="http://sodipodi.sourceforge.net/DTD/sodipodi-0.dtd"
   xmlns="http://www.w3.org/2000/svg"
   xmlns:svg="http://www.w3.org/2000/svg">
  <sodipodi:namedview
     id="namedview1"
     pagecolor="#ffffff"
     bordercolor="#000000"
     borderopacity="0.25"
     inkscape:showpageshadow="2"
     inkscape:pageopacity="0.0"
     inkscape:pagecheckerboard="0"
     inkscape:deskcolor="#d1d1d1"
     inkscape:document-units="mm"
     inkscape:zoom="5.6943322"
     inkscape:cx="42.761818"
     inkscape:cy="-0.9658727"
     inkscape:window-width="1920"
     inkscape:window-height="1008"
     inkscape:window-x="0"
     inkscape:window-y="0"
     inkscape:window-maximized="1"
     inkscape:current-layer="layer1" />
  <defs
     id="defs1" />
  <g
     inkscape:label="Layer 1"
     inkscape:groupmode="layer"
     id="layer1"
     transform="translate(-94.28058,-123.75845)">
    <path
       d="m 95.783412,126.37042 q 0.211667,0 0.364066,-0.1143 0.1524,-0.1143 0.245534,-0.32597 l 0.605366,0.3556 q -0.06773,0.2032 -0.232833,0.37253 -0.160867,0.16934 -0.410633,0.27094 -0.249767,0.10583 -0.554567,0.10583 -0.419099,0 -0.766232,-0.19897 -0.347133,-0.19896 -0.550333,-0.56303 -0.2032,-0.3683 -0.2032,-0.84667 0,-0.47836 0.2032,-0.84243 0.2032,-0.3683 0.550333,-0.56303 0.347133,-0.19897 0.766232,-0.19897 0.3048,0 0.554567,0.10583 0.249766,0.1016 0.410633,0.27094 0.165099,0.16933 0.232833,0.37253 l -0.605366,0.3556 q -0.09313,-0.21167 -0.245534,-0.32597 -0.152399,-0.1143 -0.364066,-0.1143 -0.2032,0 -0.376766,0.1143 -0.169334,0.11007 -0.2667,0.32597 -0.09737,0.21167 -0.09737,0.49953 0,0.28787 0.09737,0.50377 0.09737,0.2159 0.2667,0.3302 0.173566,0.11007 0.376766,0.11007 z m 3.227913,-0.0254 0.2413,0.47836 q -0.237067,0.21167 -0.668867,0.21167 -0.389466,0 -0.622299,-0.19897 -0.2286,-0.2032 -0.2286,-0.71543 v -0.7493 h -0.402166 v -0.57997 h 0.402166 v -0.70273 h 0.690033 v 0.70273 h 0.668866 v 0.57997 h -0.668866 v 0.62653 q 0,0.21167 0.0635,0.3302 0.0635,0.1143 0.2413,0.1143 0.0762,0 0.143933,-0.0212 0.06773,-0.0212 0.1397,-0.0762 z m 2.004485,-1.6129 q 0.13546,0 0.254,0.0423 0.12276,0.0423 0.18203,0.11007 l -0.2667,0.52493 q -0.12277,-0.0889 -0.27093,-0.0889 -0.14817,0 -0.25824,0.0889 -0.11006,0.0847 -0.16933,0.2413 -0.0593,0.1524 -0.0593,0.35983 v 0.96944 h -0.690029 v -2.18864 h 0.613829 q 0.0169,0.23284 0.0381,0.33867 0.0974,-0.19473 0.25824,-0.29633 0.16086,-0.1016 0.3683,-0.1016 z m 1.60654,-0.97367 v 3.22157 h -0.69003 v -3.22157 z"
       id="text1"
       style="font-weight:900;font-size:4.23333px;line-height:0.9;font-family:'HarmonyOS Sans';-inkscape-font-specification:'HarmonyOS Sans Heavy';text-align:center;letter-spacing:0.264583px;text-anchor:middle;stroke-width:1.71979"
       aria-label="Ctrl" />
  </g>
</svg>
