<?xml version="1.0" encoding="UTF-8" standalone="no"?>
<!-- Created with Inkscape (http://www.inkscape.org/) -->

<svg
   width="11.082855mm"
   height="3.3359001mm"
   viewBox="0 0 11.082855 3.3359"
   version="1.1"
   id="svg1"
   inkscape:version="1.4 (e7c3feb100, 2024-10-09)"
   sodipodi:docname="shift.svg"
   xmlns:inkscape="http://www.inkscape.org/namespaces/inkscape"
   xmlns:sodipodi="http://sodipodi.sourceforge.net/DTD/sodipodi-0.dtd"
   xmlns="http://www.w3.org/2000/svg"
   xmlns:svg="http://www.w3.org/2000/svg">
  <sodipodi:namedview
     id="namedview1"
     pagecolor="#ffffff"
     bordercolor="#000000"
     borderopacity="0.25"
     inkscape:showpageshadow="2"
     inkscape:pageopacity="0.0"
     inkscape:pagecheckerboard="0"
     inkscape:deskcolor="#d1d1d1"
     inkscape:document-units="mm"
     inkscape:zoom="8"
     inkscape:cx="42.5625"
     inkscape:cy="30.4375"
     inkscape:window-width="1920"
     inkscape:window-height="1008"
     inkscape:window-x="0"
     inkscape:window-y="0"
     inkscape:window-maximized="1"
     inkscape:current-layer="layer1" />
  <defs
     id="defs1" />
  <g
     inkscape:label="Layer 1"
     inkscape:groupmode="layer"
     id="layer1"
     transform="translate(-92.935435,-122.25985)">
    <path
       d="m 95.378066,124.63052 c 0.03542,0.53908 -0.480207,0.91614 -0.974393,0.95152 -0.570444,0.0768 -1.277829,-0.15714 -1.468238,-0.75252 0.194733,-0.11148 0.389466,-0.22296 0.584199,-0.33444 0.14521,0.39637 0.693403,0.59643 1.040606,0.3453 0.251938,-0.44523 -0.442704,-0.54007 -0.731043,-0.63996 -0.399366,-0.0874 -0.796777,-0.40625 -0.762529,-0.85254 -0.03538,-0.55962 0.517475,-0.94132 1.028964,-0.95859 0.503522,-0.0571 1.125659,0.16944 1.257034,0.70885 -0.197555,0.11145 -0.395111,0.2229 -0.592666,0.33435 -0.0752,-0.42293 -0.852963,-0.59519 -0.944032,-0.11433 0.103887,0.40413 0.666813,0.33341 0.969171,0.51673 0.335269,0.11697 0.61727,0.42209 0.592927,0.79563 z m 1.940981,-1.33773 c 0.491186,-0.0403 0.816547,0.44539 0.790806,0.89465 0.0019,0.45107 2.98e-4,0.90216 8.27e-4,1.35324 -0.230011,0 -0.460022,0 -0.690033,0 -0.01253,-0.45262 0.0297,-0.90966 -0.03142,-1.35857 -0.144716,-0.58526 -0.875444,-0.13958 -0.726348,0.32567 0,0.34431 0,0.68862 0,1.03293 -0.230011,0 -0.460022,0 -0.690033,0 0,-1.07385 0,-2.14771 0,-3.22156 0.230011,0 0.460022,0 0.690033,0 0,0.43462 0,0.86925 0,1.30387 0.136297,-0.22557 0.399408,-0.33663 0.656166,-0.33023 z m 1.869012,-0.17357 c -0.686424,0.004 -0.353982,-1.13118 0.217487,-0.74799 0.33549,0.20289 0.175901,0.761 -0.217487,0.74799 z m 0.347133,0.23283 c 0,0.72954 0,1.45909 0,2.18863 -0.230011,0 -0.460022,0 -0.690033,0 0,-0.72954 0,-1.45909 0,-2.18863 0.230011,0 0.460022,0 0.690033,0 z m 1.890188,-0.49953 c -0.26036,-0.0488 -0.46389,0.57674 -0.11557,0.48229 0.11829,0.0326 0.34825,-0.0416 0.3907,0.0635 0,0.17648 0,0.35296 0,0.52944 -0.19191,0 -0.38382,0 -0.57573,0 0,0.53763 0,1.07526 0,1.61289 -0.23001,0 -0.46002,0 -0.69003,0 0,-0.53763 0,-1.07526 0,-1.61289 -0.10917,-0.0304 -0.34067,0.0614 -0.37254,-0.0463 0,-0.17648 0,-0.35296 0,-0.52944 0.10917,-0.0304 0.34067,0.0614 0.37254,-0.0463 -0.0355,-0.45921 0.23601,-0.96925 0.72945,-1.0295 0.24084,-0.0482 0.87328,2.4e-4 0.76041,0.31388 -0.0691,0.12697 -0.13811,0.25395 -0.20716,0.38092 -0.0787,-0.073 -0.18375,-0.12001 -0.29207,-0.11853 z m 2.35161,2.05317 c 0.0804,0.15945 0.16087,0.31891 0.2413,0.47836 -0.37397,0.29066 -1.00048,0.30186 -1.34475,-0.0429 -0.26577,-0.38363 -0.14869,-0.87039 -0.17502,-1.30795 0.0449,-0.1866 -0.21542,-0.0681 -0.32407,-0.10115 -0.15984,0.0181 -0.042,-0.2415 -0.0781,-0.34722 -0.0222,-0.16152 -0.0124,-0.29105 0.18518,-0.23275 0.18056,0.0388 0.26171,-0.0218 0.21698,-0.20833 0,-0.1648 0,-0.3296 0,-0.4944 0.23001,0 0.46003,0 0.69004,0 0,0.23424 0,0.46849 0,0.70273 0.22295,0 0.44591,0 0.66886,0 0,0.19332 0,0.38665 0,0.57997 -0.22295,0 -0.44591,0 -0.66886,0 0.0173,0.31889 -0.047,0.65154 0.0635,0.95673 0.11133,0.17464 0.38513,0.12997 0.52493,0.0169 z"
       id="text1"
       style="font-weight:900;font-size:4.23333px;line-height:0.9;font-family:'HarmonyOS Sans';-inkscape-font-specification:'HarmonyOS Sans Heavy';text-align:center;letter-spacing:0.264583px;text-anchor:middle;stroke-width:1.71979"
       aria-label="Shift" />
  </g>
</svg>
