<?xml version="1.0" encoding="UTF-8" standalone="no"?>
<!-- Created with Inkscape (http://www.inkscape.org/) -->

<svg
   width="5.7502704mm"
   height="2.73049mm"
   viewBox="0 0 5.7502704 2.73049"
   version="1.1"
   id="svg1"
   xmlns="http://www.w3.org/2000/svg"
   xmlns:svg="http://www.w3.org/2000/svg">
  <defs
     id="defs1" />
  <g
     id="layer1"
     transform="translate(-76.364513,-105.81909)">
    <path
       d="m 76.82973,107.32853 h 0.532693 l 1.047748,2.58233 h -0.634999 l -0.197555,-0.52211 h -0.977192 l -0.1905,0.52211 h -0.599721 z m -0.04233,1.55575 h 0.599721 l -0.306916,-0.80433 z m 2.69169,-1.65805 v 2.68463 h -0.575026 v -2.68463 z m 1.880301,2.15547 0.201083,0.39863 q -0.197555,0.17639 -0.557388,0.17639 -0.324555,0 -0.518582,-0.1658 -0.1905,-0.16934 -0.1905,-0.5962 v -0.62441 H 79.958863 V 108.087 h 0.335138 v -0.58561 h 0.575027 v 0.58561 h 0.557387 v 0.48331 h -0.557387 v 0.52211 q 0,0.17639 0.05292,0.27516 0.05292,0.0952 0.201083,0.0952 0.0635,0 0.119944,-0.0176 0.05644,-0.0176 0.116417,-0.0635 z"
       id="text1"
       style="font-weight:900;font-size:3.52777px;line-height:0.9;font-family:'HarmonyOS Sans';-inkscape-font-specification:'HarmonyOS Sans Heavy';text-align:center;letter-spacing:0.264583px;text-anchor:middle;stroke-width:1.71979"
       aria-label="Alt" />
  </g>
</svg>
