<?xml version="1.0" encoding="UTF-8" standalone="no"?>
<!-- Created with Inkscape (http://www.inkscape.org/) -->

<svg
   width="2.070801mm"
   height="2.5823262mm"
   viewBox="0 0 2.0708012 2.5823262"
   version="1.1"
   id="svg1"
   xmlns="http://www.w3.org/2000/svg"
   xmlns:svg="http://www.w3.org/2000/svg">
  <defs
     id="defs1" />
  <g
     id="layer1"
     transform="translate(-75.387636,-98.678524)">
    <path
       d="m 77.056271,99.923827 q 0.197556,0.08114 0.299861,0.229303 0.102305,0.14464 0.102305,0.35631 0,0.35277 -0.264583,0.55386 -0.264582,0.19755 -0.72672,0.19755 h -1.079498 v -2.582326 h 0.991304 q 0.271638,0 0.486832,0.08114 0.215194,0.08114 0.338666,0.246943 0.126999,0.162278 0.126999,0.402166 0,0.176389 -0.07408,0.306916 -0.07056,0.127 -0.201083,0.208139 z m -0.72672,-0.726721 h -0.352777 v 0.507999 h 0.352777 q 0.17286,0 0.275166,-0.07408 0.102305,-0.07408 0.102305,-0.197555 0,-0.07761 -0.04586,-0.130528 -0.04233,-0.05292 -0.127,-0.07761 -0.08467,-0.02822 -0.20461,-0.02822 z m -0.352777,1.541634 h 0.455082 q 0.1905,0 0.296333,-0.067 0.105833,-0.0706 0.105833,-0.19755 0,-0.127 -0.109361,-0.19756 -0.105833,-0.0741 -0.296333,-0.0741 h -0.451554 z"
       id="text2"
       style="font-weight:900;font-size:3.52777px;line-height:0.9;font-family:'HarmonyOS Sans';-inkscape-font-specification:'HarmonyOS Sans Heavy';text-align:center;letter-spacing:0.264583px;text-anchor:middle;stroke-width:1.71979"
       aria-label="B" />
  </g>
</svg>
