<?xml version="1.0" encoding="UTF-8" standalone="no"?>
<!-- Created with Inkscape (http://www.inkscape.org/) -->

<svg
   width="2.2648282mm"
   height="2.6775799mm"
   viewBox="0 0 2.2648284 2.67758"
   version="1.1"
   id="svg1"
   xmlns="http://www.w3.org/2000/svg"
   xmlns:svg="http://www.w3.org/2000/svg">
  <defs
     id="defs1" />
  <g
     id="layer1"
     transform="translate(-75.429968,-99.75278)">
    <path
       d="m 76.475951,103.09701 q 0.176389,0 0.303389,-0.0952 0.126999,-0.0953 0.20461,-0.27164 l 0.504471,0.29633 q -0.05644,0.16933 -0.194027,0.31045 -0.134055,0.14111 -0.342194,0.22577 -0.208138,0.0882 -0.462138,0.0882 -0.349249,0 -0.638526,-0.16581 -0.289277,-0.1658 -0.45861,-0.46919 -0.169333,-0.30692 -0.169333,-0.70556 0,-0.39863 0.169333,-0.70202 0.169333,-0.30692 0.45861,-0.4692 0.289277,-0.1658 0.638526,-0.1658 0.254,0 0.462138,0.0882 0.208139,0.0847 0.342194,0.22578 0.137583,0.14111 0.194027,0.31044 l -0.504471,0.29634 q -0.07761,-0.17639 -0.20461,-0.27164 -0.127,-0.0952 -0.303389,-0.0952 -0.169333,0 -0.313971,0.0952 -0.141111,0.0917 -0.22225,0.27164 -0.08114,0.17639 -0.08114,0.41627 0,0.23989 0.08114,0.41981 0.08114,0.17992 0.22225,0.27516 0.144638,0.0917 0.313971,0.0917 z"
       id="text2"
       style="font-weight:900;font-size:3.52777px;line-height:0.9;font-family:'HarmonyOS Sans';-inkscape-font-specification:'HarmonyOS Sans Heavy';text-align:center;letter-spacing:0.264583px;text-anchor:middle;stroke-width:1.71979"
       aria-label="C" />
  </g>
</svg>
