<?xml version="1.0" encoding="UTF-8" standalone="no"?>
<!-- Created with Inkscape (http://www.inkscape.org/) -->

<svg
   width="7.0837598mm"
   height="2.7305mm"
   viewBox="0 0 7.0837598 2.7305"
   version="1.1"
   id="svg1"
   xmlns="http://www.w3.org/2000/svg"
   xmlns:svg="http://www.w3.org/2000/svg">
  <defs
     id="defs1" />
  <g
     id="layer1"
     transform="translate(-78.568249,-109.6931)">
    <path
       d="m 79.820607,111.86977 q 0.176389,0 0.303388,-0.0953 0.127,-0.0952 0.204611,-0.27164 l 0.504471,0.29633 q -0.05644,0.16933 -0.194027,0.31044 -0.134055,0.14111 -0.342194,0.22578 -0.208138,0.0882 -0.462138,0.0882 -0.349249,0 -0.638526,-0.16581 -0.289277,-0.16581 -0.45861,-0.46919 -0.169333,-0.30692 -0.169333,-0.70556 0,-0.39864 0.169333,-0.70202 0.169333,-0.30692 0.45861,-0.4692 0.289277,-0.1658 0.638526,-0.1658 0.254,0 0.462138,0.0882 0.208139,0.0847 0.342194,0.22578 0.137583,0.14111 0.194027,0.31044 l -0.504471,0.29634 q -0.07761,-0.17639 -0.204611,-0.27164 -0.126999,-0.0953 -0.303388,-0.0953 -0.169333,0 -0.313971,0.0953 -0.141111,0.0917 -0.22225,0.27164 -0.08114,0.17638 -0.08114,0.41627 0,0.23989 0.08114,0.41981 0.08114,0.17991 0.22225,0.27516 0.144638,0.0917 0.313971,0.0917 z m 2.734021,-0.0212 0.201083,0.39864 q -0.197555,0.17639 -0.557388,0.17639 -0.324554,0 -0.518582,-0.16581 -0.190499,-0.16933 -0.190499,-0.59619 v -0.62442 h -0.335139 v -0.4833 h 0.335139 v -0.58561 h 0.575026 v 0.58561 h 0.557388 v 0.4833 h -0.557388 v 0.52211 q 0,0.17639 0.05292,0.27517 0.05292,0.0952 0.201083,0.0952 0.0635,0 0.119944,-0.0176 0.05644,-0.0176 0.116416,-0.0635 z m 1.714497,-1.34408 q 0.112888,0 0.211666,0.0353 0.102305,0.0353 0.151694,0.0917 l -0.222249,0.43744 q -0.102306,-0.0741 -0.225778,-0.0741 -0.123472,0 -0.215194,0.0741 -0.09172,0.0706 -0.14111,0.20108 -0.04939,0.127 -0.04939,0.29986 v 0.80786 h -0.575027 v -1.82385 h 0.511527 q 0.01411,0.19402 0.03175,0.28222 0.08114,-0.16228 0.215194,-0.24695 0.134055,-0.0847 0.306916,-0.0847 z m 1.382884,-0.81139 v 2.68463 h -0.575027 v -2.68463 z"
       id="text1"
       style="font-weight:900;font-size:3.52777px;line-height:0.9;font-family:'HarmonyOS Sans';-inkscape-font-specification:'HarmonyOS Sans Heavy';text-align:center;letter-spacing:0.264583px;text-anchor:middle;stroke-width:1.71979"
       aria-label="Ctrl" />
  </g>
</svg>
