<?xml version="1.0" encoding="UTF-8" standalone="no"?>
<!-- Created with Inkscape (http://www.inkscape.org/) -->

<svg
   width="5.7114601mm"
   height="2.73052mm"
   viewBox="0 0 5.7114602 2.7305201"
   version="1.1"
   id="svg1"
   xmlns="http://www.w3.org/2000/svg"
   xmlns:svg="http://www.w3.org/2000/svg">
  <defs
     id="defs1" />
  <g
     id="layer1"
     transform="translate(-76.140359,-106.02679)">
    <path
       d="m 76.140359,106.12909 h 0.931331 q 0.377472,0 0.684388,0.1517 0.306916,0.15169 0.483304,0.4445 0.179916,0.28927 0.179916,0.69144 0,0.40216 -0.176388,0.69497 -0.176389,0.2928 -0.483305,0.44803 -0.306916,0.15169 -0.687915,0.15169 h -0.931331 z m 0.603249,2.07433 h 0.261055 q 0.253999,0 0.42686,-0.0917 0.176388,-0.0917 0.264583,-0.26811 0.08819,-0.17639 0.08819,-0.42686 0,-0.24694 -0.08819,-0.41981 -0.08819,-0.17638 -0.264583,-0.26811 -0.172861,-0.0917 -0.42686,-0.0917 h -0.261055 z m 3.125604,-1.36525 q 0.285749,0 0.493888,0.14112 0.208138,0.14111 0.296333,0.39863 0.09172,0.254 0.03528,0.58561 h -1.167692 q 0.0247,0.10231 0.07761,0.17286 0.05292,0.0706 0.123472,0.10936 0.07408,0.0353 0.165806,0.0353 0.10936,0 0.197555,-0.0529 0.09172,-0.0564 0.137583,-0.15523 l 0.419804,0.25048 q -0.07761,0.20813 -0.292805,0.32102 -0.215194,0.11289 -0.483304,0.11289 -0.246944,0 -0.465666,-0.10936 -0.215194,-0.10936 -0.349249,-0.32455 -0.130527,-0.21873 -0.130527,-0.5327 0,-0.30691 0.130527,-0.52211 0.134055,-0.21519 0.349249,-0.32102 0.215194,-0.10937 0.462138,-0.10937 z m -0.01764,0.45861 q -0.08114,0 -0.144638,0.0353 -0.0635,0.0318 -0.109361,0.0953 -0.04586,0.06 -0.07056,0.14464 h 0.606777 q -0.01058,-0.0917 -0.04939,-0.15169 -0.0388,-0.0635 -0.09878,-0.0917 -0.05997,-0.0318 -0.134056,-0.0318 z m 2.000247,-1.26999 v 2.68463 h -0.575027 v -2.68463 z"
       id="text1"
       style="font-weight:900;font-size:3.52777px;line-height:0.9;font-family:'HarmonyOS Sans';-inkscape-font-specification:'HarmonyOS Sans Heavy';text-align:center;letter-spacing:0.264583px;text-anchor:middle;stroke-width:1.71979"
       aria-label="Del" />
  </g>
</svg>
