<?xml version="1.0" encoding="UTF-8" standalone="no"?>
<!-- Created with Inkscape (http://www.inkscape.org/) -->

<svg
   width="3.9455199mm"
   height="2.6352441mm"
   viewBox="0 0 3.9455199 2.6352441"
   version="1.1"
   id="svg1"
   xmlns="http://www.w3.org/2000/svg"
   xmlns:svg="http://www.w3.org/2000/svg">
  <defs
     id="defs1" />
  <g
     id="layer1"
     transform="translate(-4.7906034,-4.5937426)">
    <path
       d="M 4.7906034,7.2289868 V 4.6466592 H 6.5192107 V 5.1722969 H 5.393852 v 0.5644432 h 1.0089423 v 0.52211 H 5.393852 V 7.2289868 Z M 8.1364024,6.2870722 7.7624588,6.7068769 H 8.7361233 V 7.2289868 H 6.8946273 V 6.8374044 L 7.6495701,5.9872118 C 7.774218,5.8508047 7.8612363,5.7426197 7.9106251,5.6626569 c 0.049389,-0.079963 0.074083,-0.1599256 0.074083,-0.2398883 0,-0.079963 -0.022343,-0.1458145 -0.067028,-0.1975552 -0.044685,-0.051741 -0.1070093,-0.077611 -0.1869719,-0.077611 -0.087018,0 -0.1634533,0.032926 -0.229305,0.098778 -0.065852,0.0635 -0.1187686,0.1599257 -0.1587497,0.2892771 L 6.8769885,5.2640189 C 6.9428402,5.0452972 7.0569048,4.879492 7.2191822,4.7666033 7.3814596,4.6513628 7.5707833,4.5937426 7.7871532,4.5937426 c 0.1763885,0 0.3269066,0.036454 0.4515545,0.1093609 0.1269997,0.070555 0.2222495,0.1669811 0.2857494,0.2892771 0.0635,0.1199442 0.09525,0.2528235 0.09525,0.398638 0,0.1481663 -0.035278,0.2857494 -0.1058331,0.4127491 C 8.445671,5.9284156 8.3198466,6.0895171 8.1364024,6.2870722 Z"
       id="text2"
       style="font-weight:900;font-size:3.52777px;line-height:0.9;font-family:'HarmonyOS Sans';-inkscape-font-specification:'HarmonyOS Sans Heavy';text-align:center;letter-spacing:0.264583px;text-anchor:middle;stroke-width:1.71979"
       aria-label="F2" />
  </g>
</svg>
