<?xml version="1.0" encoding="UTF-8" standalone="no"?>
<!-- Created with Inkscape (http://www.inkscape.org/) -->

<svg
   width="3.3125758mm"
   height="5.9091392mm"
   viewBox="0 0 3.312576 5.9091393"
   version="1.1"
   id="svg1"
   xmlns="http://www.w3.org/2000/svg"
   xmlns:svg="http://www.w3.org/2000/svg">
  <defs
     id="defs1" />
  <g
     id="layer1"
     transform="translate(-34.155144,-126.04867)">
    <g
       id="text4"
       style="font-weight:900;font-size:3.52777px;line-height:0.9;font-family:'HarmonyOS Sans';-inkscape-font-specification:'HarmonyOS Sans Heavy';text-align:center;letter-spacing:0.079375px;text-anchor:middle;stroke-width:0.264583"
       aria-label="@&#10;2">
      <path
         d="m 35.866113,126.04879 q 0.45861,0 0.82197,0.19403 0.366888,0.19403 0.571499,0.55739 0.208138,0.36336 0.208138,0.85019 0,0.42686 -0.17286,0.67381 -0.172861,0.24694 -0.532694,0.24694 -0.186972,0 -0.328082,-0.067 -0.141111,-0.0705 -0.211667,-0.21872 -0.08819,0.14464 -0.215194,0.21519 -0.126999,0.067 -0.289277,0.067 -0.201083,0 -0.370416,-0.1023 -0.169332,-0.10584 -0.271638,-0.30339 -0.09878,-0.19756 -0.09878,-0.46919 0,-0.27164 0.09878,-0.4692 0.102306,-0.19755 0.271638,-0.30339 0.169333,-0.10583 0.370416,-0.10583 0.144639,0 0.261055,0.0564 0.119945,0.0564 0.204611,0.17286 0.01411,-0.0917 0.02117,-0.18698 h 0.398638 v 1.01247 q 0,0.15875 0.04586,0.22931 0.04586,0.067 0.134055,0.067 0.137583,0 0.194027,-0.13406 0.05997,-0.13758 0.05997,-0.36336 0,-0.38453 -0.148166,-0.65616 -0.148166,-0.27517 -0.412749,-0.41628 -0.264583,-0.14111 -0.620888,-0.14111 -0.370415,0 -0.659693,0.15522 -0.289277,0.15522 -0.451554,0.43392 -0.162278,0.27869 -0.162278,0.63852 0,0.35631 0.15875,0.635 0.162277,0.27517 0.448027,0.42686 0.285749,0.15522 0.645582,0.15522 0.20461,0 0.384527,-0.0494 0.179916,-0.0494 0.317499,-0.14111 l 0.197555,0.33867 q -0.151694,0.12347 -0.384527,0.1905 -0.232833,0.067 -0.515054,0.067 -0.486833,0 -0.871359,-0.20814 -0.381,-0.20461 -0.596194,-0.5715 -0.211666,-0.36689 -0.211666,-0.84314 0,-0.47977 0.218722,-0.85019 0.222249,-0.37042 0.610304,-0.57503 0.391583,-0.20814 0.881943,-0.20814 z m -0.06703,2.04964 q 0.09172,0 0.169333,-0.0388 0.07761,-0.0388 0.127,-0.13052 0.04939,-0.0917 0.04939,-0.23636 0,-0.14464 -0.04939,-0.23637 -0.04939,-0.0917 -0.127,-0.13052 -0.07761,-0.0388 -0.169333,-0.0388 -0.102305,0 -0.176388,0.0459 -0.07408,0.0459 -0.116417,0.13759 -0.04233,0.0917 -0.04233,0.22225 0,0.13052 0.04233,0.22225 0.04233,0.0917 0.116417,0.13758 0.07408,0.0459 0.176388,0.0459 z"
         id="path5" />
      <path
         d="m 36.1598,131.20089 -0.373943,0.41981 h 0.973664 v 0.52211 h -1.841496 v -0.39158 l 0.754943,-0.8502 q 0.186972,-0.20461 0.261055,-0.32455 0.07408,-0.11994 0.07408,-0.23989 0,-0.11994 -0.06703,-0.19755 -0.06703,-0.0776 -0.186972,-0.0776 -0.130528,0 -0.229305,0.0988 -0.09878,0.0952 -0.15875,0.28928 l -0.465665,-0.27164 q 0.09878,-0.32808 0.342193,-0.49741 0.243416,-0.17286 0.567971,-0.17286 0.264583,0 0.451555,0.10936 0.190499,0.10583 0.285749,0.28927 0.09525,0.17992 0.09525,0.39864 0,0.22225 -0.105833,0.41275 -0.102305,0.18697 -0.377472,0.4833 z"
         id="path6" />
    </g>
  </g>
</svg>
