<?xml version="1.0" encoding="UTF-8" standalone="no"?>
<!-- Created with Inkscape (http://www.inkscape.org/) -->

<svg
   width="7.1860714mm"
   height="3.4007699mm"
   viewBox="0 0 7.1860715 3.40077"
   version="1.1"
   id="svg1"
   xmlns="http://www.w3.org/2000/svg"
   xmlns:svg="http://www.w3.org/2000/svg">
  <defs
     id="defs1" />
  <g
     id="layer1"
     transform="translate(-41.069173,-134.66715)">
    <path
       d="m 42.088698,134.66715 h 0.532694 l 1.047747,2.58233 h -0.634998 l -0.197555,-0.52211 h -0.977193 l -0.190499,0.52211 h -0.599721 z m -0.04233,1.55574 h 0.599721 l -0.306916,-0.80433 z m 3.046232,-0.84666 q 0.225777,0 0.412749,0.11289 0.190499,0.11289 0.29986,0.33161 0.112889,0.21519 0.112889,0.51505 0,0.29634 -0.112889,0.51506 -0.109361,0.21872 -0.29986,0.33161 -0.186972,0.11289 -0.412749,0.11289 -0.169333,0 -0.306916,-0.0635 -0.134056,-0.06 -0.232833,-0.18697 v 1.02305 h -0.575027 v -2.6423 h 0.511527 q 0,0.0247 0,0.0529 0.0035,0.0247 0.0071,0.0494 0.0035,0.0423 0.0071,0.0811 0.0035,0.0388 0.01058,0.0741 0.09525,-0.15523 0.243417,-0.22931 0.151694,-0.0776 0.335138,-0.0776 z m -0.148167,1.41464 q 0.109361,0 0.194028,-0.0529 0.08819,-0.0564 0.137583,-0.15875 0.04939,-0.10231 0.04939,-0.24342 0,-0.14463 -0.04939,-0.25047 -0.04939,-0.10936 -0.137583,-0.1658 -0.08467,-0.06 -0.194028,-0.06 -0.105833,0 -0.197555,0.0529 -0.08819,0.0529 -0.141111,0.16228 -0.05292,0.10583 -0.05292,0.26105 0,0.15523 0.05292,0.25753 0.05292,0.0988 0.141111,0.14817 0.08819,0.0494 0.197555,0.0494 z m 2.485313,-1.41464 q 0.225777,0 0.412749,0.11289 0.190499,0.11289 0.29986,0.33161 0.112889,0.21519 0.112889,0.51505 0,0.29634 -0.112889,0.51506 -0.109361,0.21872 -0.29986,0.33161 -0.186972,0.11289 -0.412749,0.11289 -0.169333,0 -0.306916,-0.0635 -0.134056,-0.06 -0.232833,-0.18697 v 1.02305 H 46.31497 v -2.6423 h 0.511527 q 0,0.0247 0,0.0529 0.0035,0.0247 0.0071,0.0494 0.0035,0.0423 0.0071,0.0811 0.0035,0.0388 0.01058,0.0741 0.09525,-0.15523 0.243416,-0.22931 0.151694,-0.0776 0.335139,-0.0776 z m -0.148167,1.41464 q 0.109361,0 0.194028,-0.0529 0.08819,-0.0564 0.137583,-0.15875 0.04939,-0.10231 0.04939,-0.24342 0,-0.14463 -0.04939,-0.25047 -0.04939,-0.10936 -0.137583,-0.1658 -0.08467,-0.06 -0.194028,-0.06 -0.105833,0 -0.197555,0.0529 -0.08819,0.0529 -0.141111,0.16228 -0.05292,0.10583 -0.05292,0.26105 0,0.15523 0.05292,0.25753 0.05292,0.0988 0.141111,0.14817 0.08819,0.0494 0.197555,0.0494 z"
       id="text1"
       style="font-weight:900;font-size:3.52777px;line-height:0.9;font-family:'HarmonyOS Sans';-inkscape-font-specification:'HarmonyOS Sans Heavy';text-align:center;letter-spacing:0.079375px;text-anchor:middle;stroke-width:0.264583"
       aria-label="App" />
  </g>
</svg>
