<?xml version="1.0" encoding="UTF-8" standalone="no"?>
<!-- Created with Inkscape (http://www.inkscape.org/) -->

<svg
   width="5.3410439mm"
   height="2.73054mm"
   viewBox="0 0 5.3410439 2.73054"
   version="1.1"
   id="svg1"
   xmlns="http://www.w3.org/2000/svg"
   xmlns:svg="http://www.w3.org/2000/svg">
  <defs
     id="defs1" />
  <g
     id="layer1"
     transform="translate(-67.604711,-146.49288)">
    <path
       d="m 67.604711,146.59519 h 0.931332 q 0.377471,0 0.684387,0.15169 0.306916,0.1517 0.483304,0.4445 0.179917,0.28928 0.179917,0.69144 0,0.40217 -0.176389,0.69497 -0.176388,0.29281 -0.483304,0.44803 -0.306916,0.1517 -0.687915,0.1517 h -0.931332 z m 0.603249,2.07433 h 0.261055 q 0.253999,0 0.42686,-0.0917 0.176389,-0.0917 0.264583,-0.26811 0.08819,-0.17638 0.08819,-0.42686 0,-0.24694 -0.08819,-0.4198 -0.08819,-0.17639 -0.264583,-0.26811 -0.172861,-0.0917 -0.42686,-0.0917 H 68.20796 Z m 2.940396,-1.36525 q 0.28575,0 0.493888,0.14111 0.208139,0.14111 0.296333,0.39864 0.09172,0.254 0.03528,0.58561 h -1.167692 q 0.02469,0.1023 0.07761,0.17286 0.05292,0.0705 0.123472,0.10936 0.07408,0.0353 0.165805,0.0353 0.109361,0 0.197555,-0.0529 0.09172,-0.0564 0.137583,-0.15522 l 0.419804,0.25047 q -0.07761,0.20814 -0.292804,0.32103 -0.215194,0.11289 -0.483305,0.11289 -0.246944,0 -0.465666,-0.10936 -0.215194,-0.10937 -0.349249,-0.32456 -0.130527,-0.21872 -0.130527,-0.53269 0,-0.30692 0.130527,-0.52211 0.134055,-0.2152 0.349249,-0.32103 0.215194,-0.10936 0.462138,-0.10936 z m -0.01764,0.45861 q -0.08114,0 -0.144638,0.0353 -0.0635,0.0318 -0.109361,0.0952 -0.04586,0.06 -0.07055,0.14464 h 0.606776 q -0.01058,-0.0917 -0.04939,-0.1517 -0.03881,-0.0635 -0.09878,-0.0917 -0.05997,-0.0318 -0.134056,-0.0318 z m 1.815039,-1.27 v 2.68464 H 72.37073 v -2.68464 z"
       id="text1"
       style="font-weight:900;font-size:3.52777px;line-height:0.9;font-family:'HarmonyOS Sans';-inkscape-font-specification:'HarmonyOS Sans Heavy';text-align:center;letter-spacing:0.079375px;text-anchor:middle;stroke-width:1.71979"
       aria-label="Del" />
  </g>
</svg>
