<?xml version="1.0" encoding="UTF-8" standalone="no"?>
<!-- Created with Inkscape (http://www.inkscape.org/) -->

<svg
   width="4.8083668mm"
   height="2.62814mm"
   viewBox="0 0 4.8083668 2.62814"
   version="1.1"
   id="svg1"
   xmlns="http://www.w3.org/2000/svg"
   xmlns:svg="http://www.w3.org/2000/svg">
  <defs
     id="defs1" />
  <g
     id="layer1"
     transform="translate(-42.30212,-135.81546)">
    <path
       d="m 42.905368,135.81546 v 2.58233 H 42.30212 v -2.58233 z m 1.663346,0.70909 q 0.306916,0 0.483304,0.20108 0.176389,0.20108 0.176389,0.59266 v 1.0795 H 44.65338 v -0.88547 q 0,-0.2293 -0.06703,-0.3563 -0.06703,-0.127 -0.229305,-0.127 -0.105833,0 -0.179917,0.06 -0.07408,0.06 -0.116416,0.17286 -0.03881,0.11289 -0.03881,0.27517 v 0.86077 h -0.575027 v -1.82386 h 0.511527 q 0.01411,0.19403 0.03175,0.28223 0.08819,-0.16934 0.23636,-0.25048 0.148167,-0.0811 0.342194,-0.0811 z m 2.541756,1.32291 q 0,0.18697 -0.102306,0.32455 -0.102305,0.13406 -0.282221,0.20109 -0.176389,0.0705 -0.402166,0.0705 -0.296333,0 -0.515054,-0.127 -0.218722,-0.127 -0.299861,-0.34925 l 0.416277,-0.24341 q 0.04586,0.12347 0.155222,0.19402 0.109361,0.067 0.246944,0.067 0.08819,0 0.141111,-0.0282 0.05292,-0.0317 0.05292,-0.0882 0,-0.0494 -0.04233,-0.0811 -0.03881,-0.0353 -0.102305,-0.0564 -0.05997,-0.0247 -0.179917,-0.06 -0.183444,-0.0529 -0.306916,-0.10583 -0.119944,-0.0529 -0.211666,-0.15522 -0.08819,-0.10584 -0.08819,-0.27164 0,-0.1905 0.105833,-0.32809 0.105833,-0.14111 0.282222,-0.21166 0.179916,-0.0741 0.384526,-0.0741 0.289278,0 0.486833,0.127 0.197555,0.12347 0.250471,0.32102 l -0.416276,0.23284 q -0.04939,-0.10584 -0.127,-0.16228 -0.07761,-0.06 -0.197555,-0.06 -0.08467,0 -0.134056,0.0353 -0.04586,0.0318 -0.04586,0.0847 0,0.0459 0.03881,0.0811 0.0388,0.0318 0.09878,0.0529 0.0635,0.0212 0.172861,0.0529 0.186972,0.0494 0.310444,0.10583 0.127,0.0529 0.218722,0.16581 0.09172,0.10936 0.09172,0.28575 z"
       id="text1"
       style="font-weight:900;font-size:3.52777px;line-height:0.9;font-family:'HarmonyOS Sans';-inkscape-font-specification:'HarmonyOS Sans Heavy';text-align:center;letter-spacing:0.079375px;text-anchor:middle;stroke-width:0.264583"
       aria-label="Ins" />
  </g>
</svg>
