<?xml version="1.0" encoding="UTF-8" standalone="no"?>
<!-- Created with Inkscape (http://www.inkscape.org/) -->

<svg
   width="9.0239487mm"
   height="2.73054mm"
   viewBox="0 0 9.0239485 2.73054"
   version="1.1"
   id="svg1"
   sodipodi:docname="KC_TAB.svg"
   inkscape:export-filename="KC_TAB.png"
   inkscape:export-xdpi="96"
   inkscape:export-ydpi="96"
   xmlns:inkscape="http://www.inkscape.org/namespaces/inkscape"
   xmlns:sodipodi="http://sodipodi.sourceforge.net/DTD/sodipodi-0.dtd"
   xmlns="http://www.w3.org/2000/svg"
   xmlns:svg="http://www.w3.org/2000/svg">
  <sodipodi:namedview
     id="namedview1"
     pagecolor="#ffffff"
     bordercolor="#000000"
     borderopacity="0.25"
     inkscape:showpageshadow="2"
     inkscape:pageopacity="0.0"
     inkscape:pagecheckerboard="0"
     inkscape:deskcolor="#d1d1d1"
     inkscape:document-units="mm"
     showguides="true">
    <sodipodi:guide
       position="6.206496,1.50412"
       orientation="1,0"
       id="guide1"
       inkscape:locked="false" />
    <inkscape:page
       x="0"
       y="0"
       width="9.0239487"
       height="2.73054"
       id="page2"
       margin="0"
       bleed="0" />
  </sodipodi:namedview>
  <defs
     id="defs1" />
  <g
     id="layer1"
     transform="translate(-65.491877,-146.65871)">
    <path
       d="m 65.491877,147.29373 v -0.53269 h 2.151939 v 0.53269 h -0.776109 v 2.04963 h -0.599721 v -2.04963 z m 2.813399,0.17639 c 0.263407,0 0.466842,0.0741 0.610305,0.22225 0.143463,0.14581 0.215194,0.35277 0.215194,0.62088 v 1.03011 H 68.64747 c -0.0094,-0.0917 -0.01764,-0.15757 -0.02469,-0.19755 -0.05409,0.0823 -0.122297,0.14346 -0.204611,0.18344 -0.07996,0.04 -0.181092,0.06 -0.303388,0.06 -0.129351,0 -0.24812,-0.0235 -0.356305,-0.0705 -0.105833,-0.0447 -0.1905,-0.10934 -0.253999,-0.19403 -0.06115,-0.087 -0.09172,-0.18932 -0.09172,-0.30691 0,-0.17169 0.06585,-0.31162 0.197555,-0.41981 0.131703,-0.11053 0.296333,-0.17286 0.493888,-0.18697 0.197555,-0.0165 0.38923,0.0212 0.575026,0.11289 l -0.116416,0.13053 v -0.10584 c 0.0023,-0.15052 -0.02471,-0.25753 -0.08114,-0.32102 -0.05645,-0.0659 -0.134058,-0.0988 -0.232833,-0.0988 -0.08231,0 -0.15287,0.02 -0.211666,0.06 -0.05879,0.04 -0.10583,0.0953 -0.141111,0.1658 l -0.405693,-0.23636 c 0.07055,-0.13641 0.175212,-0.24459 0.313971,-0.32455 0.141111,-0.0823 0.308092,-0.12347 0.500943,-0.12347 z m -0.09172,1.49224 c 0.05645,0 0.111715,-0.0118 0.165806,-0.0353 0.05409,-0.0235 0.0976,-0.0565 0.130527,-0.0988 0.03528,-0.0423 0.05292,-0.0929 0.05292,-0.1517 v -0.0459 c -0.112889,-0.0282 -0.212842,-0.04 -0.299861,-0.0353 -0.08702,0.005 -0.155221,0.0247 -0.20461,0.06 -0.04704,0.0353 -0.07056,0.0799 -0.07056,0.13405 0,0.0517 0.02117,0.0941 0.0635,0.127 0.04233,0.0306 0.09643,0.0459 0.162277,0.0459 z m 2.382497,-1.49224 c 0.150518,0 0.288101,0.0376 0.412749,0.11289 0.127,0.0753 0.226953,0.18579 0.299861,0.33161 0.07526,0.14346 0.112888,0.31514 0.112888,0.51505 0,0.19755 -0.03763,0.36924 -0.112888,0.51506 -0.07291,0.14581 -0.172861,0.25635 -0.299861,0.33161 -0.124648,0.0752 -0.262231,0.11288 -0.412749,0.11288 -0.122296,0 -0.232833,-0.0247 -0.33161,-0.0741 -0.09878,-0.0494 -0.181092,-0.12583 -0.246944,-0.2293 -0.01411,0.10818 -0.02234,0.19402 -0.02469,0.25752 h -0.511527 v -2.68463 h 0.575026 v 1.06186 c 0.06585,-0.0847 0.143464,-0.14699 0.232833,-0.18697 0.09172,-0.0423 0.194027,-0.0635 0.306916,-0.0635 z m -0.148166,1.4358 c 0.07291,0 0.137583,-0.02 0.194027,-0.06 0.05879,-0.04 0.104654,-0.0953 0.137583,-0.16581 0.03293,-0.0729 0.04939,-0.1564 0.04939,-0.25047 0,-0.0941 -0.01646,-0.17521 -0.04939,-0.24342 -0.03057,-0.0682 -0.07526,-0.11994 -0.134055,-0.15522 -0.05645,-0.0376 -0.122299,-0.0564 -0.197555,-0.0564 -0.07291,0 -0.138759,0.0165 -0.197555,0.0494 -0.05879,0.0329 -0.105831,0.0835 -0.141111,0.15169 -0.03528,0.0659 -0.05292,0.15053 -0.05292,0.254 0,0.10348 0.01764,0.19167 0.05292,0.26458 0.03528,0.0706 0.08232,0.12348 0.141111,0.15875 0.06115,0.0353 0.126998,0.0529 0.197555,0.0529 z"
       id="text1"
       style="font-weight:900;font-size:3.52777px;line-height:0.9;font-family:'HarmonyOS Sans';-inkscape-font-specification:'HarmonyOS Sans Heavy';text-align:center;letter-spacing:0.079375px;text-anchor:middle;stroke-width:1.71979"
       aria-label="Tab" />
    <path
       d="m 74.515826,147.35159 h -2.230279 l 0.36035,-0.36136 -0.141923,-0.14191 -0.573482,0.57352 v -0.57352 l -0.232119,-4e-5 2e-6,1.208 h 0.23212 l 2e-6,-0.57356 0.271511,0.27155 0.301967,0.30196 0.141922,-0.1419 -0.360349,-0.36136 h 2.230277 z"
       style="fill:#000000;stroke-width:0.0416506"
       id="path1"
       sodipodi:nodetypes="cccccccccccccccc" />
    <path
       d="m 71.698373,148.55959 h 2.230279 l -0.36035,-0.36136 0.141923,-0.14191 0.573482,0.57352 v -0.57352 l 0.232119,-4e-5 -2e-6,1.208 h -0.23212 l -2e-6,-0.57356 -0.271511,0.27155 -0.301967,0.30196 -0.141922,-0.1419 0.360349,-0.36136 h -2.230277 z"
       style="fill:#000000;stroke-width:0.0416506"
       id="path1-6"
       sodipodi:nodetypes="cccccccccccccccc" />
  </g>
</svg>
