<?xml version="1.0" encoding="UTF-8" standalone="no"?>
<!-- Created with Inkscape (http://www.inkscape.org/) -->

<svg
   width="7.1089158mm"
   height="2.7890937mm"
   viewBox="0 0 7.1089159 2.7890938"
   version="1.1"
   id="svg1"
   xmlns="http://www.w3.org/2000/svg"
   xmlns:svg="http://www.w3.org/2000/svg">
  <defs
     id="defs1" />
  <g
     id="layer1"
     transform="translate(-46.807065,-133.85597)">
    <path
       d="m 46.919081,133.85655 c -0.07706,0.003 -0.137219,0.0767 -0.101412,0.14829 l 1.289095,2.57758 c 0.04538,0.0908 0.194034,0.0805 0.222969,-0.0154 l 0.30541,-1.01247 c 0.01097,-0.0363 0.04315,-0.065 0.08408,-0.0746 l 1.140136,-0.27121 c 0.107997,-0.0257 0.119512,-0.1577 0.01733,-0.19801 l -2.90257,-1.14476 c -0.01861,-0.008 -0.03726,-0.01 -0.05503,-0.01 z"
       style="baseline-shift:baseline;display:inline;overflow:visible;vector-effect:none;fill:#000000;stroke-width:0.113003;enable-background:accumulate;stop-color:#000000"
       id="path12" />
    <path
       id="path17"
       style="baseline-shift:baseline;display:inline;overflow:visible;vector-effect:none;fill:#000000;stroke-width:0.113003;enable-background:accumulate;stop-color:#000000"
       d="m 50.148377,133.94848 v 0.52412 h 0.472168 v 1.35524 h -0.472168 v 0.52414 h 1.656804 2.1108 v -0.52414 h -0.472168 v -1.35524 h 0.472168 v -0.52412 h -2.1108 z m 2.137309,0.52412 h 0.445657 v 1.35524 h -0.445657 z m -0.497929,1.35524 h -0.454745 v -1.35524 h 0.454745 z" />
  </g>
</svg>
