<?xml version="1.0" encoding="UTF-8" standalone="no"?>
<!-- Created with Inkscape (http://www.inkscape.org/) -->

<svg
   width="9.4120893mm"
   height="2.7799599mm"
   viewBox="0 0 9.4120894 2.7799599"
   version="1.1"
   id="svg1"
   xmlns="http://www.w3.org/2000/svg"
   xmlns:svg="http://www.w3.org/2000/svg">
  <defs
     id="defs1" />
  <g
     id="layer1"
     transform="translate(-75.255895,-108.63337)">
    <path
       d="m 77.291419,110.609 q 0,0.28222 -0.151695,0.46567 -0.148166,0.17991 -0.373943,0.25752 -0.225777,0.0811 -0.462138,0.0811 -0.356305,0 -0.652637,-0.1658 -0.292805,-0.16228 -0.395111,-0.47272 l 0.486833,-0.2787 q 0.07761,0.17639 0.225777,0.2787 0.151694,0.0988 0.356305,0.0988 0.151694,0 0.243416,-0.0564 0.09525,-0.06 0.09525,-0.17286 0,-0.0917 -0.0635,-0.15169 -0.0635,-0.06 -0.15875,-0.0988 -0.09525,-0.0388 -0.264583,-0.0882 -0.250471,-0.0741 -0.416277,-0.14464 -0.162277,-0.0741 -0.278693,-0.22577 -0.116417,-0.1517 -0.116417,-0.39511 0,-0.26811 0.137583,-0.44803 0.141111,-0.17992 0.363361,-0.26811 0.225777,-0.0882 0.483304,-0.0882 0.218722,0 0.409221,0.0705 0.194028,0.067 0.328083,0.20108 0.134055,0.13406 0.183444,0.32456 l -0.493888,0.27869 q -0.05644,-0.16227 -0.176388,-0.24694 -0.116417,-0.0882 -0.28575,-0.0882 -0.144638,0 -0.23636,0.067 -0.08819,0.067 -0.08819,0.17286 0,0.0847 0.05997,0.14111 0.05997,0.0565 0.155221,0.0917 0.09525,0.0353 0.261055,0.0847 0.254,0.0741 0.419805,0.1517 0.165805,0.0776 0.285749,0.2293 0.119945,0.1517 0.119945,0.39511 z m 1.661579,-1.11477 q 0.306916,0 0.483305,0.20108 0.176388,0.20108 0.176388,0.59266 v 1.0795 H 79.037665 V 110.482 q 0,-0.2293 -0.06703,-0.3563 -0.06703,-0.127 -0.229305,-0.127 -0.105833,0 -0.179916,0.06 -0.07408,0.06 -0.116417,0.17286 -0.0388,0.11289 -0.0388,0.27517 v 0.86077 H 77.83117 v -2.68463 h 0.575027 v 1.08655 q 0.09172,-0.14111 0.229305,-0.20814 0.137583,-0.067 0.317499,-0.067 z m 1.601605,-0.14464 q -0.137583,0 -0.236361,-0.0988 -0.09878,-0.10231 -0.09878,-0.23989 0,-0.14111 0.09878,-0.23989 0.09878,-0.1023 0.236361,-0.1023 0.134055,0 0.232833,0.1023 0.102305,0.0988 0.102305,0.23989 0,0.13758 -0.09878,0.23989 -0.09878,0.0988 -0.236361,0.0988 z m 0.289277,0.19403 v 1.82385 h -0.575026 v -1.82385 z m 1.619249,-0.41628 q -0.123472,0 -0.186972,0.0952 -0.0635,0.0953 -0.0635,0.29986 v 0.0811 l -0.07055,-0.06 h 0.550332 v 0.47977 h -0.479777 v 1.34408 h -0.575026 v -1.34408 h -0.310444 v -0.47977 h 0.310444 v -0.0423 q 0,-0.43391 0.211666,-0.64911 0.215194,-0.21872 0.560915,-0.21872 0.172861,0 0.306916,0.0529 0.134056,0.0529 0.208139,0.13758 l -0.218722,0.40217 q -0.109361,-0.0988 -0.243416,-0.0988 z m 2.003772,1.71097 0.201083,0.39863 q -0.197555,0.17639 -0.557388,0.17639 -0.324555,0 -0.518582,-0.1658 -0.1905,-0.16933 -0.1905,-0.5962 v -0.62441 h -0.335138 v -0.4833 h 0.335138 v -0.58561 h 0.575027 v 0.58561 h 0.557388 v 0.4833 h -0.557388 v 0.52211 q 0,0.17639 0.05292,0.27517 0.05292,0.0952 0.201082,0.0952 0.0635,0 0.119945,-0.0176 0.05644,-0.0176 0.116416,-0.0635 z"
       id="text1"
       style="font-weight:900;font-size:3.52777px;line-height:0.9;font-family:'HarmonyOS Sans';-inkscape-font-specification:'HarmonyOS Sans Heavy';text-align:center;letter-spacing:0.264583px;text-anchor:middle;stroke-width:1.71979"
       aria-label="Shift" />
  </g>
</svg>
