<?xml version="1.0" encoding="UTF-8" standalone="no"?>
<!-- Created with Inkscape (http://www.inkscape.org/) -->

<svg
   width="1.8891215mm"
   height="5.5497956mm"
   viewBox="0 0 1.8891217 5.5497957"
   version="1.1"
   id="svg1"
   xmlns="http://www.w3.org/2000/svg"
   xmlns:svg="http://www.w3.org/2000/svg">
  <defs
     id="defs1" />
  <g
     id="text1"
     style="font-weight:900;font-size:3.52777px;line-height:0.9;font-family:'HarmonyOS Sans';-inkscape-font-specification:'HarmonyOS Sans Heavy';text-align:center;letter-spacing:0.264583px;text-anchor:middle;stroke-width:1.71979"
     aria-label="?&#10;/"
     transform="translate(0.63455585,1.4966762)">
    <path
       d="m 0.28619213,1.2796788 q -0.13758303,0 -0.23283282,-0.1023053 -0.09524979,-0.098778 -0.09524979,-0.23636063 0,-0.1411108 0.09524979,-0.23988836 0.09877756,-0.10230534 0.23283282,-0.10230534 0.13758303,0 0.23636059,0.10230534 0.10230534,0.0987776 0.10230534,0.23988836 0,0.13758303 -0.10230534,0.23636063 -0.0987776,0.1023053 -0.23636059,0.1023053 z m -0.44802679,-1.83444043 -0.47272119,-0.27516606 q 0.12699972,-0.32808261 0.38805471,-0.49741561 0.26105498,-0.1693329 0.61735975,-0.1693329 0.24341614,0 0.44097126,0.081139 0.20108293,0.077611 0.31749933,0.2328328 0.1164164,0.1516941 0.1164164,0.36336032 0,0.15522188 -0.059972,0.27516606 Q 1.1293296,-0.42776161 1.0446628,-0.3466229 0.9599963,-0.2654842 0.81888551,-0.15612331 0.69541346,-0.06440159 0.62485806,0.00262604 0.55783042,0.0661259 0.51549718,0.15432015 0.47669171,0.2425144 0.49080279,0.35540304 H 0.02513715 Q -0.04189048,0.171959 -0.00661278,0.0308482 q 0.0352777,-0.1411108 0.11994418,-0.22930505 0.0846665,-0.091722 0.22930505,-0.20461067 0.13052749,-0.10230533 0.19402735,-0.17286073 0.0670276,-0.0740832 0.0670276,-0.16580519 0,-0.0952498 -0.0776109,-0.14816634 -0.0776109,-0.0564443 -0.20461066,-0.0564443 -0.16580519,0 -0.28574937,0.0987776 -0.11994418,0.0987776 -0.19755513,0.29280485 z"
       id="path2" />
    <path
       d="m 0.28795662,4.0531193 h -0.55033213 l 0.966609,-2.5823276 H 1.2545656 Z"
       id="path3" />
  </g>
</svg>
